<?xml version="1.0" standalone="no"?>
<!DOCTYPE svg PUBLIC "-//W3C//DTD SVG 1.1//EN" "http://www.w3.org/Graphics/SVG/1.1/DTD/svg11.dtd" >
<svg xmlns="http://www.w3.org/2000/svg" xmlns:xlink="http://www.w3.org/1999/xlink" version="1.1">
<metadata>
Created by FontForge 20201107 at Wed Nov 15 18:09:57 2023
 By 
Copyright 2023 The Honk Project Authors (https://github.com/EkType/Honk)
</metadata>
<defs>
<font id="Honk-Regular" horiz-adv-x="1060" >
  <font-face 
    font-family="Honk"
    font-weight="400"
    font-stretch="normal"
    units-per-em="2000"
    panose-1="0 0 0 0 0 0 0 0 0 0"
    ascent="1600"
    descent="-400"
    x-height="968"
    cap-height="1172"
    bbox="-73 -418 3884 1597"
    underline-thickness="50"
    underline-position="-125"
    unicode-range="U+000D-1FAF0"
  />
<missing-glyph horiz-adv-x="870" 
d="M-40 0v1172h950v-1172h-950zM38 70h794v1032h-794v-1032zM442 777l-16 16.5t-47 48t-75 75.5v0v0v0l-194 -194v0v0v0l76 -76t46.5 -47.5l15.5 -16.5v0l-14.5 -14.5l-43.5 -43.5l-72 -72v0v0l188 -188v0v0l97.5 97.5l32.5 32.5v0l34.5 -33t95.5 -95v0v0v0l194 194v0v0v0
q-42 42 -71 70.5t-44 43l-15 14.5v0l15 15l44 44l71 71v0v0l-188 188v0v0v0q-58 -57 -94 -93.5l-36 -36.5v0z" />
    <glyph glyph-name="fi" unicode="fi" horiz-adv-x="1306" 
d="M480 770q0 4 0.5 5.5t2 2t5.5 0.5h31h77h92h77h31v0v0v0v0v0q6 0 7 -1t1 -7v-6.5v-16v-19v-16v-6.5q0 -6 -1 -7t-7 -1v0v0v0v0v0h-31h-77h-92h-77h-31q-4 0 -5.5 0.5t-2 2t-0.5 5.5v16v32v16zM-40 614v91.5v91.5v92.5v93v94v95.5v0v0h44h109h130h109h44v0v0v0v0v0v-39.5
v-40.5h-20h-41h-50.5h-48.5h-34v0v0v0q-3 0 -20 -15t-41 -38t-47 -46.5t-38.5 -40.5t-15.5 -20v-318h-80zM804 614h-80v48.5v119.5v142v119.5v48.5v0v0v0v0v0v0v0v0v0v0v0h-36h-89h-106h-89h-36v40.5v39.5v0v0v0v0v0h44h109h130h109h44v0v0v0v-40.5v-104v-134.5v-134.5v-104
v-40.5zM368 0v0v0v0v0v0h-44h-102.5h-120.5h-100.5h-40.5v0v0v0v149v145.5v132v109.5h80v-456v0v0v0v0v0v0h33.5h77.5h77.5h33.5h34.5h79.5h79.5h34.5v0v0v0v0v28.5v70.5v84v70.5v28.5v0v0v0v0v0h35.5h81.5h81.5h35.5v0v0v0v26v64v76v64v26v0v0h80v-73v-96.5v-166.5v-282v0
v0h-43.5h-107.5h-128.5h-109.5h-47v0v0v0v0v0zM-40 716h80v-88v-63.5v-78.5v0v0v0v0v-76v-43.5v-41v-69.5h-80v460zM1346 498v-89.5v-101v-106v-104.5v-97h-31.5h-78h-93h-78h-31.5v0v0v0v0q-7 15 -7 40t7 40h47h55.5h62.5h67v0v0v0v0v0v0v0v0v42v104.5v125v104.5v42h80z
M724 498h80v-42v-104.5v-125v-104.5v-42v0v0v0v0v0v0v0v0h67.5h62h55.5h47q8 -15 8 -40t-8 -40v0v0v0v0h-31.5h-78h-93h-78h-31.5v97v104.5v106v101v89.5zM724 716h80v-88v-63.5v-78.5v0v0v0v0v-76v-43.5v-41v-69.5h-80v460zM1346 716v-460h-80v69.5v41v43.5v76v0v0v0v0
v78.5v63.5v88h80zM1346 674h-80v42v104.5v125v104.5v42v0v0v0v0v0v0v0v0h-67h-62.5h-55.5h-47q-7 15 -7 40t7 40v0v0v0v0h31.5h78h93h78h31.5v-97v-104.5v-106v-101v-89.5zM724 674v89.5v101v106v104.5v97h31.5h78h93h78h31.5v0v0v0v0q8 -15 8 -40t-8 -40h-47h-55.5h-62
h-67.5v0v0v0v0v0v0v0v0v-42v-104.5v-125v-104.5v-42h-80zM1346 614h-80v61.5v58.5v43.5v16.5v0v0v3v12.5v30v54.5v0v0h-34.5h-80.5h-80.5h-34.5v11.5v26.5v26.5v11.5h31h42.5h61.5h87h21h27h18h7.5h7h7.5v-79v-101v-100v-76zM724 614v76v100v101v79h7.5h7h7.5h18h27h21h61.5
h49h39h31h24h19.5v-11.5v-26.5v-26.5v-11.5h-23.5h-58h-69h-58h-23.5v0v0v-54.5v-30v-12.5v-3v0v0v-16.5v-43.5v-58.5v-61.5h-80z" />
    <glyph glyph-name="fl" unicode="fl" horiz-adv-x="1306" 
d="M480 770q0 4 0.5 5.5t2 2t5.5 0.5h31h77h92h77h31v0v0v0v0v0q6 0 7 -1t1 -7v-6.5v-16v-19v-16v-6.5q0 -6 -1 -7t-7 -1v0v0v0v0v0h-31h-77h-92h-77h-31q-4 0 -5.5 0.5t-2 2t-0.5 5.5v16v32v16zM-40 614v91.5v91.5v92.5v93v94v95.5v0v0h44h109h130h109h44v0v0v0v0v0v-39.5
v-40.5h-20h-41h-50.5h-48.5h-34v0v0v0q-3 0 -20 -15t-41 -38t-47 -46.5t-38.5 -40.5t-15.5 -20v-318h-80zM804 614h-80v48.5v119.5v142v119.5v48.5v0v0v0v0v0v0v0v0v0v0v0h-36h-89h-106h-89h-36v40.5v39.5v0v0v0v0v0h44h109h130h109h44v0v0v0v-40.5v-104v-134.5v-134.5v-104
v-40.5zM368 0v0v0v0v0v0h-44h-102.5h-120.5h-100.5h-40.5v0v0v0v149v145.5v132v109.5h80v-456v0v0v0v0v0v0h33.5h77.5h77.5h33.5h34.5h79.5h79.5h34.5v0v0v0v0v28.5v70.5v84v70.5v28.5v0v0v0v0v0h35.5h81.5h81.5h35.5v0v0v0v26v64v76v64v26v0v0h80v-73v-96.5v-166.5v-282v0
v0h-43.5h-107.5h-128.5h-109.5h-47v0v0v0v0v0zM-40 716h80v-88v-63.5v-78.5v0v0v0v0v-76v-43.5v-41v-69.5h-80v460zM1346 718v-460h-80v69.5v41v43.5v76v0v0v0v0v78.5v63.5v88h80zM724 656v516h31.5h78.5h94.5h81h36.5v0v0v0v0v0v0v0v0v0h34.5h75.5h87.5h73h29.5v-516h-80
v436v0v0h-114.5h-66h-39.5h-36.5h-84.5h-84.5h-36.5v0v0v-436h-80zM724 884h80v-79v-261v-5v-5v-5v-5v-288v-92h-80v740zM724 538h80v-298q0 -3 15.5 -20t38.5 -40.5t47 -46.5t41 -38t20 -15h30.5h75h89h75h30.5v0v0v0v84.5v84.5v84.5v84.5v120h80v-538h-31h-76.5h-92h-79
h-35.5v0v0v0v0v0v0v0v0v0v0h-35h-77.5h-90h-75h-30.5v538z" />
    <glyph glyph-name=".notdef" horiz-adv-x="870" 
d="M-40 0v1172h950v-1172h-950zM38 70h794v1032h-794v-1032zM442 777l-16 16.5t-47 48t-75 75.5v0v0v0l-194 -194v0v0v0l76 -76t46.5 -47.5l15.5 -16.5v0l-14.5 -14.5l-43.5 -43.5l-72 -72v0v0l188 -188v0v0l97.5 97.5l32.5 32.5v0l34.5 -33t95.5 -95v0v0v0l194 194v0v0v0
q-42 42 -71 70.5t-44 43l-15 14.5v0l15 15l44 44l71 71v0v0l-188 188v0v0v0q-58 -57 -94 -93.5l-36 -36.5v0z" />
    <glyph glyph-name=".null" horiz-adv-x="0" 
 />
    <glyph glyph-name="nonmarkingreturn" horiz-adv-x="666" 
 />
    <glyph glyph-name="CR" unicode="&#xd;" horiz-adv-x="3442" 
 />
    <glyph glyph-name="space" unicode=" " horiz-adv-x="560" 
 />
    <glyph glyph-name="exclam" unicode="!" horiz-adv-x="422" 
d="M462 674h-80v418v0v0h-26h-60h-60h-26q-4 15 -4 40t4 40v0v0v0h28.5h63.5h74h61.5h24.5v0v0v0v0v-38v-98v-128.5v-130.5v-103zM-40 674v103v130.5v128.5v98v38v0v0v0v0h24.5h61.5h74h63.5h28.5v0v0v0q5 -15 5 -40t-5 -40h-26h-60h-60h-26v0v0v-418h-80zM462 498v-103
v-130.5v-128.5v-98v-38v0v0v0v0h-24.5h-61.5h-74h-63.5h-28.5v0v0v0q-4 15 -4 40t4 40h26h60h60h26v0v0v418h80zM-40 498h80v-418v0v0h26h60h60h26q5 -15 5 -40t-5 -40v0v0v0h-28.5h-63.5h-74h-61.5h-24.5v0v0v0v0v38v98v128.5v130.5v103zM462 758v-64v-91.5v-101v-92.5v-67
h-22h-12.5h-19h-20h-14.5h-95.5h-38h-28.5v11.5v26.5v26.5v11.5h30h60h30v0v0l5 26.5t12.5 65l15 77t12.5 65l5 26.5v0v0v12v28v28v12h80zM-40 758h80v-12v-28v-28v-12v0v0v0l5 -26.5t12.5 -65l15 -77t12.5 -65l5 -26.5v0v0h18.5h42.5h42.5h18.5v-11.5v-26.5v-26.5v-11.5
h-23.5h-27.5h-32.5h-37.5h-43h-14.5h-20h-19h-12.5h-22v67v92.5v101v91.5v64z" />
    <glyph glyph-name="quotedbl" unicode="&#x22;" horiz-adv-x="844" 
d="M462 674h-80v418v0v0h-26h-60h-60h-26q-4 15 -4 40t4 40v0v0v0h28.5h63.5h74h61.5h24.5v0v0v0v0v-38v-98v-128.5v-130.5v-103zM-40 674v103v130.5v128.5v98v38v0v0v0v0h24.5h61.5h74h63.5h28.5v0v0v0q5 -15 5 -40t-5 -40h-26h-60h-60h-26v0v0v-418h-80zM462 942v-89.5
v-101v-106v-104.5v-97h-38h-88h-88h-38v0v0q-4 15 -4 40t4 40h29h58h29l5.5 26t14 64.5l17 77t14 64.5l5.5 26v0v0v0v0v0v0v0v15v50v95h80zM-40 942h80v-95v-50v-15v0v0v0v0v0v0v0l5.5 -26t14 -64.5l17 -77t14 -64.5l5.5 -26h29h58h29q5 -15 5 -40t-5 -40v0v0h-38h-88h-88
h-38v97v104.5v106v101v89.5zM884 674h-80v418v0v0h-26h-60h-60h-26q-4 15 -4 40t4 40v0v0v0h28.5h63.5h74h61.5h24.5v0v0v0v0v-38v-98v-128.5v-130.5v-103zM382 674v103v130.5v128.5v98v38v0v0v0v0h24.5h61.5h74h63.5h28.5v0v0v0q5 -15 5 -40t-5 -40h-26h-60h-60h-26v0v0
v-418h-80zM884 942v-89.5v-101v-106v-104.5v-97h-38h-88h-88h-38v0v0q-4 15 -4 40t4 40h29h58h29l5.5 26t14 64.5l17 77t14 64.5l5.5 26v0v0v0v0v0v0v0v15v50v95h80zM382 942h80v-95v-50v-15v0v0v0v0v0v0v0l5.5 -26t14 -64.5l17 -77t14 -64.5l5.5 -26h29h58h29q5 -15 5 -40
t-5 -40v0v0h-38h-88h-88h-38v97v104.5v106v101v89.5z" />
    <glyph glyph-name="numbersign" unicode="#" horiz-adv-x="1018" 
d="M326 805h-100v0v0l-26 -176v0v0h102l-26 -160h-100v0v0l-24 -176v0v0h102l-30 -176v0v0h28h64h67h25v0v0l28 176h76l-28 -176v0v0h27h63h67h25v0v0l28 176h100v0v0l24 176v0v0h-102l26 160h100v0v0l26 176v0v0h-102l24 158v0v0h-27h-63h-67h-25v0v0l-24 -158h-76l24 158
v0v0h-27h-63h-67h-25v0v0zM458 469l24 160h78l-26 -160h-76zM-40 -2v0v0v0v0v0v0v0v0v63.5v168.5v230v250v230v168.5v63.5v0v0v0v0v0v0v0v0h110.5h123.5h121h104.5h73.5h27v0v0v0v0v0v0h26h70h100h116.5h119h106.5v0v0v0v0v0v0v0v0v-63.5v-168.5v-230v-250v-230v-168.5
v-63.5v0v0v0v0v0v0v0v0h-106h-118.5h-116.5h-100.5h-70.5h-26v0v0v0v0v0v0h-27h-73h-103.5h-120.5h-124h-112z" />
    <glyph glyph-name="dollar" unicode="$" horiz-adv-x="1018" 
d="M445 922h-72h-68q-4 0 -22 -16t-40 -38t-38 -39.5t-16 -20.5v-368v0v0h180.5h96h49.5h26.5h45.5v-7.5v-22.5v-22.5v-7.5h-51h-33h-105h-96h-113v0v0v-74v-26.5v-11.5v-21v-89v0v0h99h117v-104h39.5h70.5v0h70h40v104h50h42q3 0 20.5 16.5t39.5 38.5t38 39.5t16 19.5v372
v0v0h-131.5h-92h-78.5h-35.5h-52.5v7.5v22.5v22.5v7.5h55.5h38.5h64.5h48h66h117.5v0v0v92v18v23v85v0v0h-84.5h-81.5v104h-40h-70v0h-70.5h-39.5v-104zM-40 -2v0v0v0v0v0v0v0v0v63.5v168.5v230v250v230v168.5v63.5v0v0v0v0v0v0v0v0h110.5h123.5h121h104.5h73.5h27v0v0v0v0
v0v0h26h70h100h116.5h119h106.5v0v0v0v0v0v0v0v0v-63.5v-168.5v-230v-250v-230v-168.5v-63.5v0v0v0v0v0v0v0v0h-106h-118.5h-116.5h-100.5h-70.5h-26v0v0v0v0v0v0h-27h-73h-103.5h-120.5h-124h-112z" />
    <glyph glyph-name="percent" unicode="%" horiz-adv-x="1018" 
d="M725 955h-79h-25v0v0l-440 -762v0v0h28.5h85.5h79h25v0v0l440 762v0v0h-28.5h-85.5zM315 699q54 0 90 33t36 97q0 63 -34.5 96.5t-91.5 33.5t-93.5 -33.5t-36.5 -96.5q0 -64 36.5 -97t93.5 -33zM709 189q54 0 90 33t36 97q0 63 -34.5 96.5t-91.5 33.5t-93.5 -33.5
t-36.5 -96.5q0 -64 36.5 -97t93.5 -33zM-40 -2v0v0v0v0v0v0v0v0v63.5v168.5v230v250v230v168.5v63.5v0v0v0v0v0v0v0v0h110.5h123.5h121h104.5h73.5h27v0v0v0v0v0v0h26h70h100h116.5h119h106.5v0v0v0v0v0v0v0v0v-63.5v-168.5v-230v-250v-230v-168.5v-63.5v0v0v0v0v0v0v0v0
h-106h-118.5h-116.5h-100.5h-70.5h-26v0v0v0v0v0v0h-27h-73h-103.5h-120.5h-124h-112z" />
    <glyph glyph-name="ampersand" unicode="&#x26;" horiz-adv-x="1018" 
d="M579 454v-82h-82h-80v0v0v20.5v36v25.5h83.5h78.5zM305 940q-3 0 -20.5 -16t-38.5 -37t-37 -38t-16 -19v-220l16.5 -8t37.5 -19t37.5 -19l16.5 -8v0v0v0v0l-16.5 -8.5t-37.5 -19.5t-37.5 -19.5l-16.5 -8.5v-250q0 -2 16 -19t37 -38t38.5 -37t20.5 -16h109h99v0v0
q4 0 21.5 22t34 44.5t16.5 25.5q0 -3 19.5 -25.5t40 -44.5t24.5 -22h80.5h77.5v0v0v232v0v0h-24.5h-25.5v0v0v82h33.5h16.5v25.5v62.5v0v74.5v35.5h-96.5h-148h-165.5v23.5v34v18.5v0v0h132.5h133.5v0v0v212v0v0h-177h-201zM-40 -2v0v0v0v0v0v0v0v0v63.5v168.5v230v250v230
v168.5v63.5v0v0v0v0v0v0v0v0h110.5h123.5h121h104.5h73.5h27v0v0v0v0v0v0h26h70h100h116.5h119h106.5v0v0v0v0v0v0v0v0v-63.5v-168.5v-230v-250v-230v-168.5v-63.5v0v0v0v0v0v0v0v0h-106h-118.5h-116.5h-100.5h-70.5h-26v0v0v0v0v0v0h-27h-73h-103.5h-120.5h-124h-112z" />
    <glyph glyph-name="quotesingle" unicode="'" horiz-adv-x="422" 
d="M462 674h-80v418v0v0h-26h-60h-60h-26q-4 15 -4 40t4 40v0v0v0h28.5h63.5h74h61.5h24.5v0v0v0v0v-38v-98v-128.5v-130.5v-103zM-40 674v103v130.5v128.5v98v38v0v0v0v0h24.5h61.5h74h63.5h28.5v0v0v0q5 -15 5 -40t-5 -40h-26h-60h-60h-26v0v0v-418h-80zM462 942v-89.5
v-101v-106v-104.5v-97h-38h-88h-88h-38v0v0q-4 15 -4 40t4 40h29h58h29l5.5 26t14 64.5l17 77t14 64.5l5.5 26v0v0v0v0v0v0v0v15v50v95h80zM-40 942h80v-95v-50v-15v0v0v0v0v0v0v0l5.5 -26t14 -64.5l17 -77t14 -64.5l5.5 -26h29h58h29q5 -15 5 -40t-5 -40v0v0h-38h-88h-88
h-38v97v104.5v106v101v89.5z" />
    <glyph glyph-name="parenleft" unicode="(" horiz-adv-x="542" 
d="M582 516h-80v79.5v123.5v131.5v104.5v41v0v0v0v2v11v27.5v51v83.5v123v0v0h-35h-81h-81h-35v20v40v20v0v0v0h36.5h78.5h91h75.5h30.5v0v0v0v0v-53v-138.5v-186.5v-198v-172.5v-109.5zM384 1028h26h60h60h26l-2 -512h-170v67v182.5v262.5v0v0v0zM-40 516v109.5v172.5v198
v186.5v138.5v53v0v0v0v0h32.5h80.5h97h83.5h38.5v0v0v0v-12v-28v-28v-12h-14h-35h-41q-3 0 -20 -15t-41 -38t-47 -46.5t-38.5 -40.5t-15.5 -20v-55v-38.5v-24.5v-13v-5.5v-1.5v0v0v-41v-104.5v-131.5v-123.5v-79.5h-26.5h-27h-26.5zM582 656v-109.5v-172.5v-198v-186.5
v-138.5v-53v0v0v0v0h-30.5h-75.5h-91h-78.5h-36.5v0v0v0v20v40v20h35h81h81h35v0v0v123.5v83v51v27.5v11v2v0v0v0v41v104.5v131.5v123.5v79.5h80zM384 144v0v0v0v263v182.5v66.5h170l2 -512h-26h-60h-60h-26zM-40 656h26.5h27h26.5v-79.5v-123.5v-131.5v-104.5v-41v0v0v-1.5
v-5.5v-13v-24.5v-38v-55.5q0 -3 15.5 -20t38.5 -40.5t47 -46.5t41 -38t20 -15h41h35h14v-12v-28v-28v-12v0v0v0h-38.5h-83.5h-97h-80.5h-32.5v0v0v0v0v53v138.5v186.5v198v172.5v109.5z" />
    <glyph glyph-name="parenright" unicode=")" horiz-adv-x="542" 
d="M-40 516v109.5v172.5v198v186.5v138.5v53v0v0v0v0h30.5h75.5h91h78.5h36.5v0v0v0v-20v-40v-20h-35h-81h-81h-35v0v0v-123v-83.5v-51v-27.5v-11v-2v0v0v0v-41v-104.5v-131.5v-123.5v-79.5h-80zM158 1028v0v0v0v-262.5v-182.5v-67h-170l-2 512h26h60h60h26zM582 516h-26.5
h-27h-26.5v79.5v123.5v131.5v104.5v41v0v0v1.5v5.5v13v24.5v38.5v55q0 3 -15.5 20t-38.5 40.5t-47 46.5t-41 38t-20 15h-41h-35h-14v12v28v28v12v0v0v0h38.5h83.5h97h80.5h32.5v0v0v0v0v-53v-138.5v-186.5v-198v-172.5v-109.5zM-40 656h80v-79.5v-123.5v-131.5v-104.5v-41v0
v0v0v-2v-11v-27.5v-51v-83v-123.5v0v0h35h81h81h35v-20v-40v-20v0v0v0h-36.5h-78.5h-91h-75.5h-30.5v0v0v0v0v53v138.5v186.5v198v172.5v109.5zM158 144h-26h-60h-60h-26l2 512h170v-66.5v-182.5v-263v0v0v0zM582 656v-109.5v-172.5v-198v-186.5v-138.5v-53v0v0v0v0h-32.5
h-80.5h-97h-83.5h-38.5v0v0v0v12v28v28v12h14h35h41q3 0 20 15t41 38t47 46.5t38.5 40.5t15.5 20v55.5v38v24.5v13v5.5v1.5v0v0v41v104.5v131.5v123.5v79.5h26.5h27h26.5z" />
    <glyph glyph-name="asterisk" unicode="*" horiz-adv-x="580" 
d="M210 930v0v0v0l-19.5 5.5t-45 13t-45 13l-19.5 5.5v0v0l-5 -26.5t-12 -62t-12 -62l-5 -26.5v0v0l19 -2.5t43.5 -5t43.5 -5l19 -2.5v0v0v0v0v0v0v0l-15.5 -15.5t-36 -35t-36 -35l-15.5 -15.5v0v0l23.5 -17t54.5 -39t54.5 -39l23.5 -17v0v0l10 17.5t22.5 41t22.5 41
l10 17.5v0v0v0v0v0v0v0l10 -17.5t22.5 -41t22.5 -41l10 -17.5v0v0l23.5 17t54.5 39t54.5 39l23.5 17v0v0l-15.5 15.5t-36 35t-36 35l-15.5 15.5v0v0v0v0v0v0v0l19 2.5t43.5 5t43.5 5l19 2.5v0v0l-5 26.5t-12 62t-12 62l-5 26.5v0v0l-19 -5.5t-44.5 -13t-44.5 -13l-19 -5.5v0
v0v0v0v0v0v0l4 19.5t9 45.5t9 45.5l4 19.5v0v0h-32.5h-75.5h-75.5h-32.5v0v0l4 -19.5t10 -45.5t10 -45.5l4 -19.5v0v0v0v0zM-39 467v0v0v0v0v0v0v0v0v38v101v138v150v138v101v38v0v0v0v0v0v0v0v0h66.5h74h72.5h62.5h44h16.5v0v0v0v0v0v0h15.5h42h60h70h71.5h64v0v0v0v0v0v0
v0v0v-38v-101v-138v-150v-138v-101v-38v0v0v0v0v0v0v0v0h-63.5h-71h-70h-60.5h-42.5h-15.5v0v0v0v0v0v0h-16h-43.5h-62.5h-72.5h-74h-67.5z" />
    <glyph glyph-name="plus" unicode="+" horiz-adv-x="1018" 
d="M648 700v23v67v106v0v0v0h-274v0v0v0v-107.5v-66v-22.5v0h-21h-62h-101v0v0v-266v0v0h137h47v0v-47.5v-134.5v0v0v0h274v0v0v0v99.5v61.5v21v0h21h61.5h99.5v0v0v266v0v0h-95h-64h-23v0zM-40 -2v0v0v0v0v0v0v0v0v63.5v168.5v230v250v230v168.5v63.5v0v0v0v0v0v0v0v0
h110.5h123.5h121h104.5h73.5h27v0v0v0v0v0v0h26h70h100h116.5h119h106.5v0v0v0v0v0v0v0v0v-63.5v-168.5v-230v-250v-230v-168.5v-63.5v0v0v0v0v0v0v0v0h-106h-118.5h-116.5h-100.5h-70.5h-26v0v0v0v0v0v0h-27h-73h-103.5h-120.5h-124h-112z" />
    <glyph glyph-name="comma" unicode="," horiz-adv-x="422" 
d="M462 376v-578h-37.5h-87h-87h-37.5v0v0v0v0v0v0v0v0v0v0h-38h-88.5h-88.5h-38v578h80v-498v0v0v0h32.5h74.5h74.5h32.5q3 0 23 18.5t44 42.5t42.5 44t18.5 23v370h80zM40 102h24h55h55h24v-10.5v-21v-10.5v-19v-19h-39h-45.5h-46h-41.5v0v0v63.5v104v100.5v52h14v-23.5
v-40.5v-68.5v-107.5v0v0v0zM462 28h-80v418v0v0h-26h-60h-60h-26q-4 15 -4 40t4 40v0v0v0h28.5h63.5h74h61.5h24.5v0v0v0v0v-38v-98v-128.5v-130.5v-103zM-40 28v103v130.5v128.5v98v38v0v0v0v0h24.5h61.5h74h63.5h28.5v0v0v0q5 -15 5 -40t-5 -40h-26h-60h-60h-26v0v0v-418
h-80z" />
    <glyph glyph-name="hyphen" unicode="-" horiz-adv-x="764" 
d="M724 466v108v108v0v0v0v0h-168.5h-103h-57h-31.5h-28.5h-49h-91h-155.5v0v0v0v0v-57v-159h-80v296h140h137.5h91.5h35v0v0v0v0v0h38.5h103.5h158h140v-296h-80zM724 658h80v-296h-140h-158h-103.5h-38.5v0v0v0v0v0h-35h-91.5h-137.5h-140v296h80v-159v-57v0v0v0v0h155.5
h91h49h28.5h31.5h57h103h168.5v0v0v0v0v108v108zM-40 684h80v-24v-96v0v0v0v0v-89.5v-27v-17.5h-80v254zM804 684v-254h-80v17.5v27v89.5v0v0v0v0v96v24h80z" />
    <glyph glyph-name="period" unicode="." horiz-adv-x="422" 
d="M462 498v-103v-130.5v-128.5v-98v-38v0v0v0v0h-24.5h-61.5h-74h-63.5h-28.5v0v0v0q-4 15 -4 40t4 40h26h60h60h26v0v0v418h80zM-40 498h80v-418v0v0h26h60h60h26q5 -15 5 -40t-5 -40v0v0v0h-28.5h-63.5h-74h-61.5h-24.5v0v0v0v0v38v98v128.5v130.5v103zM462 28h-80v418v0
v0h-26h-60h-60h-26q-4 15 -4 40t4 40v0v0v0h28.5h63.5h74h61.5h24.5v0v0v0v0v-38v-98v-128.5v-130.5v-103zM-40 28v103v130.5v128.5v98v38v0v0v0v0h24.5h61.5h74h63.5h28.5v0v0v0q5 -15 5 -40t-5 -40h-26h-60h-60h-26v0v0v-418h-80zM-40 406h80v-24v-96v0v0v0v0v-89.5v-27
v-17.5h-80v254zM462 406v-254h-80v17.5v27v89.5v0v0v0v0v96v24h80z" />
    <glyph glyph-name="slash" unicode="/" horiz-adv-x="542" 
d="M-40 1374v0v0v0h35.5h88h105h88h35.5v0v0v0v0v0v-20v-40v-20h-28h-40h-46.5h-47.5v0v0l-4.5 -59.5t-12.5 -161t-17.5 -227.5t-19.5 -260t-19.5 -260t-17.5 -227.5t-12.5 -161l-4.5 -59.5v0v0h49h51h59.5h74.5v-20v-40v-20v0v0v0v0v0h-32h-79h-94h-79h-32v0v0v1576z
M582 -202v0v0v0h-35.5h-88h-105h-88h-35.5v0v0v0v0v0v20v40v20h28.5h39.5h46.5h47.5v0v0l4.5 59.5t12.5 161t17.5 227.5t19.5 260t19.5 260t17.5 227.5t12.5 161l4.5 59.5v0v0h-49h-51h-59.5h-74.5v20v40v20v0v0v0v0v0h32h79h94h79h32v0v0v-1576z" />
    <glyph glyph-name="zero" unicode="0" horiz-adv-x="984" 
d="M-40 558h80v-318q0 -3 15.5 -20t38.5 -40.5t47 -46.5t41 -38t20 -15v0v0v0v0h44.5h74h82h68.5h33v-39.5v-40.5v0v0v0v0v0h-39.5h-101h-131.5h-131.5h-101h-39.5v0v0v0v0v28v76v107v121.5v121.5v104zM1024 558v-104v-121.5v-121.5v-107v-76v-28v0v0v0v0h-39.5h-101h-131.5
h-131.5h-101h-39.5v0v0v0v0v0v40.5v39.5h33h68.5h82h74h44.5v0v0v0v0q3 0 20 15t41 38t47 46.5t38.5 40.5t15.5 20v318h80zM-40 614v104v121v122v107v76v28v0v0v0v0h39.5h101h131.5h131.5h101h39.5v0v0v0v0v0v-39.5v-40.5h-33h-68.5h-82h-74h-44.5v0v0v0v0q-3 0 -20 -15
t-41 -38t-47 -46.5t-38.5 -40.5t-15.5 -20v-318h-80zM1024 614h-80v318q0 3 -15.5 20t-38.5 40.5t-47 46.5t-41 38t-20 15v0v0v0v0h-44.5h-74h-82h-68.5h-33v40.5v39.5v0v0v0v0v0h39.5h101h131.5h131.5h101h39.5v0v0v0v0v-28v-76v-107v-122v-121v-104zM1024 376h-80v31.5
v73.5v73.5v31.5v0v0v0v0v31.5v73.5v73.5v31.5h80v-420zM-40 376v420h80v-31.5v-73.5v-73.5v-31.5v0v0v0v0v-31.5v-73.5v-73.5v-31.5h-80zM614 628v0v0v0v0v0v0v0q6 0 7 -1t1 -7v-21.5v-21v-21.5q0 -6 -1 -7t-7 -1v0v0v0v0v0v0v0h-37.5h-86.5h-86.5h-37.5v0v0q-6 0 -7 1t-1 7
v21.5v21v21.5q0 6 1 7t7 1v0v0h37.5h86.5h86.5h37.5z" />
    <glyph glyph-name="one" unicode="1" horiz-adv-x="706" 
d="M746 498v-89.5v-101v-106v-104.5v-97h-31.5h-78h-93h-78h-31.5v0v0v0v0q-7 15 -7 40t7 40h47h55.5h62.5h67v0v0v0v0v0v0v0v0v42v104.5v125v104.5v42h80zM746 376h-80v31.5v73.5v73.5v31.5v0v0v0v0v31.5v73.5v73.5v31.5h80v-420zM-40 502l2 670h39.5h98h117.5h100h44v0v0
v0v0v0v0v0v0v0v0v0v0v0v0h42.5h96.5h113.5h94.5h38v-504h-80v428v0v0v0h-16h-39h-46h-39h-16v0v0v0v0l-47.5 -14t-117.5 -35l-140 -42t-117.5 -35l-47.5 -14v0v0v0v0v-454h-80zM440 0h-47.5h-34.5h-22.5h-12.5h-5v0v0v0v0v0v0v0v0h-29h-67.5h-86h-85h-65h-25.5v0v0v45v118.5
v162v177v162v118.5v45h80v0v0v-32v-79.5v-95v-79.5v-32v0v0v0v0l27.5 4.5t63.5 10.5t63.5 10.5l27.5 4.5v0v0v0v-32v-83v-108.5v-110v-87.5v-39v0v0v0v0v0v0v0h55h68.5h94.5v-80z" />
    <glyph glyph-name="two" unicode="2" horiz-adv-x="984" 
d="M-40 498h80v-42v-104.5v-125v-104.5v-42v0v0v0v0v0v0v0v0v0v0v0h47h116h138h116h47v-39.5v-40.5v0v0v0v0v0h-39.5h-101h-131.5h-131.5h-101h-39.5v0v0v0v0v36v92.5v120.5v120.5v92.5v36zM1024 614h-80v318q0 3 -15.5 20t-38.5 40.5t-47 46.5t-41 38t-20 15v0v0v0v0h-44.5
h-74h-82h-68.5h-33v40.5v39.5v0v0v0v0v0h39.5h101h131.5h131.5h101h39.5v0v0v0v0v-28v-76v-107v-122v-121v-104zM1024 498v-36v-92.5v-120.5v-120.5v-92.5v-36v0v0v0v0h-39.5h-101h-131.5h-131.5h-101h-39.5v0v0v0v0v0v40.5v39.5h47h116h138h116h47v0v0v0v0v0v0v0v0v0v0v0
v42v104.5v125v104.5v42h80zM-40 674v36v92.5v120.5v120.5v92.5v36v0v0v0v0h39.5h101h131.5h131.5h101h39.5v0v0v0v0v0v-39.5v-40.5h-47h-116h-138h-116h-47v0v0v0v0v0v0v0v0v0v0v0v-42v-104.5v-125v-104.5v-42h-80zM1024 196h-80v79.5v260.5v5v5v5v5v288.5v91.5h80v-740z
M-40 196v740h80v-91.5v-288.5v-5v-5v-5v-5v-260.5v-79.5h-80zM0 742h38v-7v-14v-7l40.5 6t100 14.5l119 17t100 14.5l40.5 6l0.5 -4t2 -12.5t3.5 -21.5t3.5 -22t2 -13.5l0.5 -4.5l-41.5 -6t-103 -15l-123 -18t-103 -15l-41.5 -6v-9.5v-19v-9.5h-38v146zM982 418h-38v7v14v7
l-40.5 -6t-100 -14.5l-119 -17t-100 -14.5l-40.5 -6l-0.5 4t-2 12.5t-3.5 21.5t-3.5 22t-2 13.5l-0.5 4.5l41.5 6t103 15l123 18t103 15l41.5 6v9.5v19v9.5h38v-146z" />
    <glyph glyph-name="three" unicode="3" horiz-adv-x="984" 
d="M-40 196v740h80v-91.5v-288.5v-5v-5v-5v-5v-260.5v-79.5h-80zM1024 558v-104v-121.5v-121.5v-107v-76v-28v0v0v0v0h-39.5h-101h-131.5h-131.5h-101h-39.5v0v0v0v0v0v40.5v39.5h33h68.5h82h74h44.5v0v0v0v0q3 0 20 15t41 38t47 46.5t38.5 40.5t15.5 20v318h80zM1024 614
h-80v318q0 3 -15.5 20t-38.5 40.5t-47 46.5t-41 38t-20 15v0v0v0v0h-44.5h-74h-82h-68.5h-33v40.5v39.5v0v0v0v0v0h39.5h101h131.5h131.5h101h39.5v0v0v0v0v-28v-76v-107v-122v-121v-104zM-40 498h80v-42v-104.5v-125v-104.5v-42v0v0v0v0v0v0v0v0v0v0v0h47h116h138h116h47
v-39.5v-40.5v0v0v0v0v0h-39.5h-101h-131.5h-131.5h-101h-39.5v0v0v0v0v36v92.5v120.5v120.5v92.5v36zM-40 674v36v92.5v120.5v120.5v92.5v36v0v0v0v0h39.5h101h131.5h131.5h101h39.5v0v0v0v0v0v-39.5v-40.5h-47h-116h-138h-116h-47v0v0v0v0v0v0v0v0v0v0v0v-42v-104.5v-125
v-104.5v-42h-80zM428 782v-16v-32v-16q0 -4 -0.5 -5.5t-2 -2t-5.5 -0.5h-41h-102h-122h-102h-41v0v0v0v0v0q-6 0 -7 1t-1 7v6.5v16v19v16v6.5q0 4 0.5 5.5t2 2t5.5 0.5v0v0v0v0v0h41h102h122h102h41q4 0 5.5 -0.5t2 -2t0.5 -5.5zM428 370q0 -4 -0.5 -5.5t-2 -2t-5.5 -0.5
h-41h-102h-122h-102h-41v0v0v0v0v0q-4 0 -5.5 0.5t-2 2t-0.5 5.5v6.5v16v19v16v6.5q0 6 1 7t7 1v0v0v0v0v0h41h102h122h102h41q4 0 5.5 -0.5t2 -2t0.5 -5.5v-16v-32v-16zM804 586v0v0l21 17t49 40t49 40l21 17v100h38h42v-43v-107v-128v-107v-43h-42h-38v100l-21 17t-49 40
t-49 40l-21 17v0v0z" />
    <glyph glyph-name="four" unicode="4" 
d="M1100 580v-580h-42.5h-110h-142.5h-142.5h-110h-42.5v0v0v0v0v0v0v0v0v0v0v0v0v0v0v0v0v0v0v0v0v0v0v0v0v0v0v0v0v0h-5h-30h-83.5h-162.5h-269v598h80v0v0v-36v-89v-106v-89v-36v0v0v0v0v0v0v0v0v0h38.5h98.5h128h128h98.5h38.5v0v0v0v0v-162v0v0h32.5h75.5h75.5h32.5
h35.5h81.5h81.5h35.5v0v0v500h80zM-40 575l2 597v0v0v0v0h59.5h58h54.5h47h36.5h22.5h13.5h33h51h66h79.5h91v0v0v0v-39.5v-40.5h-21h-49h-49h-21v0v0v0v0q-1 0 -30.5 -28.5t-74 -74t-94.5 -96.5t-94.5 -97t-72.5 -75.5t-28 -30.5v0v0v0v0v-24.5v-33.5v-33.5v-23.5h-80z
M1100 674h-80v42v104.5v125v104.5v42v0v0v0v0v0v0v0v0v0v0v0h-47h-116h-138h-116h-47v40.5v39.5v0v0v0v0v0h39.5h101h131.5h131.5h101h39.5v0v0v0v0v-36v-92.5v-120.5v-120.5v-92.5v-36zM1100 376h-80v31.5v73.5v73.5v31.5v0v0v0v0v31.5v73.5v73.5v31.5h80v-420zM510 524
v37.5v86.5v86.5v37.5v0v0q0 6 1 7t7 1h21.5h21h21.5q6 0 7 -1t1 -7v0v0v-37.5v-86.5v-86.5v-37.5v0v0v0v0v0v0v0q0 -6 -1 -7t-7 -1h-31.5h-32.5q-6 0 -7 1t-1 7v0v0v0v0v0v0v0z" />
    <glyph glyph-name="five" unicode="5" horiz-adv-x="984" 
d="M1024 194h-80v79.5v260.5v5v5v5v5v288.5v91.5h80v-740zM-40 196v740h80v-91.5v-288.5v-5v-5v-5v-5v-260.5v-79.5h-80zM0 418v146h38v-9.5v-19v-9.5l41.5 -6t103 -15l123 -18t103 -15l41.5 -6l-0.5 -4.5t-2 -13.5t-3.5 -22t-3.5 -21.5t-2 -12.5l-0.5 -4l-40.5 6t-100 14.5
l-119 17t-100 14.5l-40.5 6v-7v-14v-7h-38zM546 778q0 4 0.5 5.5t2 2t5.5 0.5h41h102h122h102h41v0v0v0v0v0q4 0 5.5 -0.5t2 -2t0.5 -5.5v-6.5v-16v-19v-16v-6.5q0 -6 -1 -7t-7 -1v0v0v0v0v0h-41h-102h-122h-102h-41q-4 0 -5.5 0.5t-2 2t-0.5 5.5v16v32v16zM-40 498h80v-42
v-104.5v-125v-104.5v-42v0v0v0v0v0v0v0v0v0v0v0h47h116h138h116h47v-39.5v-40.5v0v0v0v0v0h-39.5h-101h-131.5h-131.5h-101h-39.5v0v0v0v0v36v92.5v120.5v120.5v92.5v36zM1024 674h-80v42v104.5v125v104.5v42v0v0v0v0v0v0v0v0v0v0v0h-47h-116h-138h-116h-47v40.5v39.5v0v0v0
v0v0h39.5h101h131.5h131.5h101h39.5v0v0v0v0v-36v-92.5v-120.5v-120.5v-92.5v-36zM-40 674v36v92.5v120.5v120.5v92.5v36v0v0v0v0h39.5h101h131.5h131.5h101h39.5v0v0v0v0v0v-39.5v-40.5h-47h-116h-138h-116h-47v0v0v0v0v0v0v0v0v0v0v0v-42v-104.5v-125v-104.5v-42h-80z
M1024 558v-104v-121.5v-121.5v-107v-76v-28v0v0v0v0h-39.5h-101h-131.5h-131.5h-101h-39.5v0v0v0v0v0v40.5v39.5h33h68.5h82h74h44.5v0v0v0v0q3 0 20 15t41 38t47 46.5t38.5 40.5t15.5 20v318h80z" />
    <glyph glyph-name="six" unicode="6" 
d="M-40 558h80v-318q0 -3 15.5 -20t38.5 -40.5t47 -46.5t41 -38t20 -15v0v0v0h34.5h85.5h102h85.5h34.5v-39.5v-40.5v0v0v0v0v0h-52h-111.5h-139h-136.5h-104.5h-40.5v0v0v0v0v40.5v104v134.5v134.5v104v40.5zM1100 558v-40.5v-104v-134.5v-134.5v-104v-40.5v0v0v0v0h-40.5
h-104.5h-136.5h-139h-111.5h-52v0v0v0v0v0v40.5v39.5h34.5h85.5h102h85.5h34.5v0v0v0q3 0 20 15t41 38t47 46.5t38.5 40.5t15.5 20v318h80zM-40 614v40.5v104v134.5v134.5v104v40.5v0v0v0v0h40.5h104.5h136.5h139h111.5h52v0v0v0v0v0v-39.5v-40.5h-34.5h-85.5h-102h-85.5
h-34.5v0v0v0q-3 0 -20 -15t-41 -38t-47 -46.5t-38.5 -40.5t-15.5 -20v-318h-80zM1100 614h-80v34.5v89v115.5v115.5v89v34.5v0v0v0v0v0v0v0v0v0v0v0v0h-36.5h-94h-121.5h-121.5h-94h-36.5v40.5v39.5v0v0v0v0v0h42h108.5h141.5h141.5h108.5h42v0v0v0v0v-40.5v-104v-134.5
v-134.5v-104v-40.5zM1100 978v-740h-80v92v288v5v5v5v5v261v79h80zM676 450v0v0v0v0v0v0v0q6 0 7 -1t1 -7v-21.5v-21v-21.5q0 -6 -1 -7t-7 -1v0v0v0v0v0v0v0h-37.5h-86.5h-86.5h-37.5v0v0q-6 0 -7 1t-1 7v21.5v21v21.5q0 6 1 7t7 1v0v0h37.5h86.5h86.5h37.5zM866 716h-27
h-69h-90h-90h-69h-27v10.5v21v10.5v9.5v19v9.5h68h94.5h108h108h96h69.5v0v0v0v-53.5v-87.5v-97v-82v-42h-16v35v48v59q0 3 -15 18t-37 35.5t-45 40.5t-39.5 33t-19.5 13zM-40 376v420h80v-31.5v-73.5v-73.5v-31.5v0v0v0v0v-31.5v-73.5v-73.5v-31.5h-80z" />
    <glyph glyph-name="seven" unicode="7" horiz-adv-x="984" 
d="M1024 796v-420h-80v31.5v73.5v73.5v31.5v0v0v0v0v31.5v73.5v73.5v31.5h80zM1024 674h-80v42v104.5v125v104.5v42v0v0v0v0v0v0v0v0v0v0v0h-47h-116h-138h-116h-47v40.5v39.5v0v0v0v0v0h39.5h101h131.5h131.5h101h39.5v0v0v0v0v-36v-92.5v-120.5v-120.5v-92.5v-36zM-40 674
v36v92.5v120.5v120.5v92.5v36v0v0v0v0h39.5h101h131.5h131.5h101h39.5v0v0v0v0v0v-39.5v-40.5h-47h-116h-138h-116h-47v0v0v0v0v0v0v0v0v0v0v0v-42v-104.5v-125v-104.5v-42h-80zM944 458h80v-458v0v0v0v0v0v0h-218.5h-147.5h-90.5h-46h-15.5v0v0v0v0v0v0h-11.5h-33.5h-63
h-99.5h-143h-195.5v0v0v0v0v0v0v0v0v822h80v-332v0v0v0v0v0v0v0v0h28.5h73.5h95h95h73.5h28.5v28.5v70v83v70v28.5v0v0v0h19.5h39h19.5v-18v-49.5v-73v-89.5v-98.5v-99.5v-129.5v-96v-36.5v0v0v0v0v0v0v0h43.5h108h129h108h43.5v0v0v0v0v0v0v378z" />
    <glyph glyph-name="eight" unicode="8" 
d="M1100 558v-40.5v-104v-134.5v-134.5v-104v-40.5v0v0v0v0h-40.5h-104.5h-136.5h-139h-111.5h-52v0v0v0v0v0v40.5v39.5h34.5h85.5h102h85.5h34.5v0v0v0q3 0 20 15t41 38t47 46.5t38.5 40.5t15.5 20v318h80zM1100 614h-80v318q0 3 -15.5 20t-38.5 40.5t-47 46.5t-41 38
t-20 15v0v0v0h-34.5h-85.5h-102h-85.5h-34.5v40.5v39.5v0v0v0v0v0h52h111.5h139h136.5h104.5h40.5v0v0v0v0v-40.5v-104v-134.5v-134.5v-104v-40.5zM-40 558h80v-318q0 -3 15.5 -20t38.5 -40.5t47 -46.5t41 -38t20 -15v0v0v0h34.5h85.5h102h85.5h34.5v-39.5v-40.5v0v0v0v0v0
h-52h-111.5h-139h-136.5h-104.5h-40.5v0v0v0v0v40.5v104v134.5v134.5v104v40.5zM-40 614v40.5v104v134.5v134.5v104v40.5v0v0v0v0h40.5h104.5h136.5h139h111.5h52v0v0v0v0v0v-39.5v-40.5h-34.5h-85.5h-102h-85.5h-34.5v0v0v0q-3 0 -20 -15t-41 -38t-47 -46.5t-38.5 -40.5
t-15.5 -20v-318h-80zM656 790v0v0v0v0v0v0v0q6 0 7 -1t1 -7v-21.5v-21v-21.5q0 -6 -1 -7t-7 -1v0v0v0v0v0v0v0h-37.5h-86.5h-86.5h-37.5v0v0q-6 0 -7 1t-1 7v21.5v21v21.5q0 6 1 7t7 1v0v0h37.5h86.5h86.5h37.5zM408 384v0v0v0v0v0v0v0q-6 0 -7 1t-1 7v21.5v21v21.5q0 6 1 7
t7 1v0v0v0v0v0v0v0h37.5h86.5h86.5h37.5v0v0q6 0 7 -1t1 -7v-21.5v-21v-21.5q0 -6 -1 -7t-7 -1v0v0h-37.5h-86.5h-86.5h-37.5zM880 586v0v0l21 17t49 40t49 40l21 17v100h38h42v-43v-107v-128v-107v-43h-42h-38v100l-21 17t-49 40t-49 40l-21 17v0v0zM180 586v0v0l-21 -17
t-49 -40t-49 -40l-21 -17v-100h-38h-42v43v107v128v107v43h42h38v-100l21 -17t49 -40t49 -40l21 -17v0v0z" />
    <glyph glyph-name="nine" unicode="9" 
d="M-40 558h80v-34.5v-89v-115.5v-115.5v-89v-34.5v0v0v0v0v0v0v0v0v0v0v0v0h36.5h94h121.5h121.5h94h36.5v-39.5v-40.5v0v0v0v0v0h-42h-108.5h-141.5h-141.5h-108.5h-42v0v0v0v0v40.5v104v134.5v134.5v104v40.5zM1100 558v-40.5v-104v-134.5v-134.5v-104v-40.5v0v0v0v0
h-40.5h-104.5h-136.5h-139h-111.5h-52v0v0v0v0v0v40.5v39.5h34.5h85.5h102h85.5h34.5v0v0v0q3 0 20 15t41 38t47 46.5t38.5 40.5t15.5 20v318h80zM-40 614v40.5v104v134.5v134.5v104v40.5v0v0v0v0h40.5h104.5h136.5h139h111.5h52v0v0v0v0v0v-39.5v-40.5h-34.5h-85.5h-102
h-85.5h-34.5v0v0v0q-3 0 -20 -15t-41 -38t-47 -46.5t-38.5 -40.5t-15.5 -20v-318h-80zM1100 614h-80v318q0 3 -15.5 20t-38.5 40.5t-47 46.5t-41 38t-20 15v0v0v0h-34.5h-85.5h-102h-85.5h-34.5v40.5v39.5v0v0v0v0v0h52h111.5h139h136.5h104.5h40.5v0v0v0v0v-40.5v-104
v-134.5v-134.5v-104v-40.5zM662 770v0v0v0v0v0v0v0q6 0 7 -1t1 -7v-21.5v-21v-21.5q0 -6 -1 -7t-7 -1v0v0v0v0v0v0v0h-37.5h-86.5h-86.5h-37.5v0v0q-6 0 -7 1t-1 7v21.5v21v21.5q0 6 1 7t7 1v0v0h37.5h86.5h86.5h37.5zM196 422h27h69h90h90h69h27v-10.5v-21v-10.5v-9.5v-19
v-9.5h-67.5h-95h-108h-108h-95.5h-70v0v0v0v53.5v87.5v97v82v42h16v-35v-48v-59q0 -3 15 -18t37 -35.5t45 -40.5t39.5 -33t19.5 -13zM1100 796v-420h-80v31.5v73.5v73.5v31.5v0v0v0v0v31.5v73.5v73.5v31.5h80zM-40 378v420h80v-31.5v-73.5v-73.5v-31.5v0v0v0v0v-31.5v-73.5
v-73.5v-31.5h-80z" />
    <glyph glyph-name="colon" unicode=":" horiz-adv-x="424" 
d="M462 498v-103v-130.5v-128.5v-98v-38v0v0v0v0h-24.5h-61.5h-74h-63.5h-28.5v0v0v0q-4 15 -4 40t4 40h26h60h60h26v0v0v418h80zM-40 498h80v-418v0v0h26h60h60h26q5 -15 5 -40t-5 -40v0v0v0h-28.5h-63.5h-74h-61.5h-24.5v0v0v0v0v38v98v128.5v130.5v103zM462 470h-80v418
v0v0h-26h-60h-60h-26q-4 15 -4 40t4 40v0v0v0h28.5h63.5h74h61.5h24.5v0v0v0v0v-38v-98v-128.5v-130.5v-103zM-40 470v103v130.5v128.5v98v38v0v0v0v0h24.5h61.5h74h63.5h28.5v0v0v0q5 -15 5 -40t-5 -40h-26h-60h-60h-26v0v0v-418h-80zM-40 406h80v-24v-96v0v0v0v0v-89.5
v-27v-17.5h-80v254zM462 406v-254h-80v17.5v27v89.5v0v0v0v0v96v24h80zM-40 822h80v-24v-96v0v0v0v0v-89.5v-27v-17.5h-80v254zM462 822v-254h-80v17.5v27v89.5v0v0v0v0v96v24h80zM464 258h-80v56.5v35.5v0v0v4.5v27v76.5v0v0h-26h-60h-60h-26v15v30v15h64.5h48h59.5v0v0
h24.5h34h21.5v-33v-79.5v-88.5v-59zM-40 258v59v88.5v79.5v33h20h35.5h24.5v0v0h38.5h31h29h32h41.5v-15v-30v-15h-17.5h-43h-51h-43h-17.5v0v0v-76.5v-27v-4.5v0v0v-35.5v-56.5h-80zM464 730v-59v-88.5v-79.5v-33h-21.5h-34h-24.5v0v0h-59.5h-48h-64.5v15v30v15h26h60h60
h26v0v0v76.5v27v4.5v0v0v35.5v56.5h80zM-40 730h80v-56.5v-35.5v0v0v-4.5v-27v-76.5v0v0h17.5h43h51h43h17.5v-15v-30v-15h-41.5h-32h-29h-31h-38.5v0v0h-24.5h-35.5h-20v33v79.5v88.5v59z" />
    <glyph glyph-name="semicolon" unicode=";" horiz-adv-x="424" 
d="M464 470h-80v418v0v0h-26h-60h-60h-26q-4 15 -4 40t4 40v0v0v0h28.5h63.5h74h61.5h24.5v0v0v0v0v-38v-98v-128.5v-130.5v-103zM-40 470v103v130.5v128.5v98v38v0v0v0v0h24.5h61.5h74h63.5h28.5v0v0v0q5 -15 5 -40t-5 -40h-26h-60h-60h-26v0v0v-418h-80zM-40 822h80v-24
v-96v0v0v0v0v-89.5v-27v-17.5h-80v254zM464 822v-254h-80v17.5v27v89.5v0v0v0v0v96v24h80zM462 376v-578h-37.5h-87h-87h-37.5v0v0v0v0v0v0v0v0v0v0h-38h-88.5h-88.5h-38v578h80v-498v0v0v0h32.5h74.5h74.5h32.5q3 0 23 18.5t44 42.5t42.5 44t18.5 23v370h80zM40 82h24h55
h55h24v-10.5v-21v-10.5v-19v-19h-39h-45.5h-46h-41.5v0v0v63.5v104v100.5v52h14v-23.5v-40.5v-68.5v-107.5v0v0v0zM464 258h-80v56.5v35.5v0v0v4.5v27v76.5v0v0h-26h-60h-60h-26v15v30v15h64.5h48h59.5v0v0h24.5h34h21.5v-33v-79.5v-88.5v-59zM-40 258v59v88.5v79.5v33h20
h35.5h24.5v0v0h38.5h31h29h32h41.5v-15v-30v-15h-17.5h-43h-51h-43h-17.5v0v0v-76.5v-27v-4.5v0v0v-35.5v-56.5h-80zM464 730v-59v-88.5v-79.5v-33h-21.5h-34h-24.5v0v0h-59.5h-48h-64.5v15v30v15h26h60h60h26v0v0v76.5v27v4.5v0v0v35.5v56.5h80zM-40 730h80v-56.5v-35.5v0
v0v-4.5v-27v-76.5v0v0h17.5h43h51h43h17.5v-15v-30v-15h-41.5h-32h-29h-31h-38.5v0v0h-24.5h-35.5h-20v33v79.5v88.5v59z" />
    <glyph glyph-name="less" unicode="&#x3c;" horiz-adv-x="1018" 
d="M466 606h67h65h65h66.5h68.5v0v0v0v262v0v0v0v0l-576 -132v0v0v-322v0v0l576 -134v0v0v0v0v262v0v0v0h-68.5h-66.5h-65h-65h-67v0v0v0v64v0v0v0zM-40 -2v0v0v0v0v0v0v0v0v63.5v168.5v230v250v230v168.5v63.5v0v0v0v0v0v0v0v0h110.5h123.5h121h104.5h73.5h27v0v0v0v0v0v0
h26h70h100h116.5h119h106.5v0v0v0v0v0v0v0v0v-63.5v-168.5v-230v-250v-230v-168.5v-63.5v0v0v0v0v0v0v0v0h-106h-118.5h-116.5h-100.5h-70.5h-26v0v0v0v0v0v0h-27h-73h-103.5h-120.5h-124h-112z" />
    <glyph glyph-name="equal" unicode="=" horiz-adv-x="1018" 
d="M210 808v0v0v-202v0v0h600v0v0v202v0v0h-600zM210 542v0v0v-202v0v0h600v0v0v202v0v0h-600zM-40 -2v0v0v0v0v0v0v0v0v63.5v168.5v230v250v230v168.5v63.5v0v0v0v0v0v0v0v0h110.5h123.5h121h104.5h73.5h27v0v0v0v0v0v0h26h70h100h116.5h119h106.5v0v0v0v0v0v0v0v0v-63.5
v-168.5v-230v-250v-230v-168.5v-63.5v0v0v0v0v0v0v0v0h-106h-118.5h-116.5h-100.5h-70.5h-26v0v0v0v0v0v0h-27h-73h-103.5h-120.5h-124h-112z" />
    <glyph glyph-name="greater" unicode="&#x3e;" horiz-adv-x="1018" 
d="M554 606v0v0v0v-64v0v0v0h-67h-65h-65h-66.5h-68.5v0v0v0v-262v0v0v0v0l576 134v0v0v322v0v0l-576 132v0v0v0v0v-262v0v0v0h68.5h66.5h65h65h67zM-40 -2v0v0v0v0v0v0v0v0v63.5v168.5v230v250v230v168.5v63.5v0v0v0v0v0v0v0v0h110.5h123.5h121h104.5h73.5h27v0v0v0v0v0v0
h26h70h100h116.5h119h106.5v0v0v0v0v0v0v0v0v-63.5v-168.5v-230v-250v-230v-168.5v-63.5v0v0v0v0v0v0v0v0h-106h-118.5h-116.5h-100.5h-70.5h-26v0v0v0v0v0v0h-27h-73h-103.5h-120.5h-124h-112z" />
    <glyph glyph-name="question" unicode="?" horiz-adv-x="764" 
d="M804 458h-80v88v63.5v78.5v0v0v0v0v76v43.5v41v69.5h80v-460zM-40 726h80v-10.5v-23.5v-23.5v-10.5v0v0q0 -27 0.5 -66.5t0.5 -78.5t0.5 -65l0.5 -26v0v0h135.5h91.5h55.5h27.5h8v0v0v0h11h29.5h40h43h40h28.5q4 0 30.5 25t60 58.5t58.5 61t25 31.5v0v0l-0.5 28.5
t-0.5 65.5t-0.5 65.5l-0.5 28.5h80v-57v-146.5v-189.5v-189.5v-146.5v-57v0v0v0h-41h-102h-122h-102h-41v0v0v0v0v0v0v0v0v0v0h-44h-109h-130h-109h-44v0v0v0v48v125.5v166v170.5v141v75zM40 80h34.5h86h103h86h34.5v0v0v0v264v0v0v0v0h-34.5h-86h-103h-86h-34.5v0v0v0v0
v-264v0v0zM364 782v-16v-32v-16q0 -4 -0.5 -5.5t-2 -2t-5.5 -0.5h-39h-97h-116h-97h-39v0v0v0v0v0q-6 0 -7 1t-1 7v6.5v16v19v16v6.5q0 6 1 7t7 1v0v0v0v0v0h39h97h116h97h39q4 0 5.5 -0.5t2 -2t0.5 -5.5zM804 614h-80v318q0 3 -15.5 20t-38.5 40.5t-47 46.5t-41 38t-20 15
v0v0v0h-34h-48.5h-50.5h-41h-20v40.5v39.5v0v0v0v0v0h44h109h130h109h44v0v0v-95.5v-94v-93v-92.5v-91.5v-91.5zM-40 614v40.5v104v134.5v134.5v104v40.5v0v0v0h44h109h130h109h44v0v0v0v0v0v-39.5v-40.5h-36h-89h-106h-89h-36v0v0v0v0v0v0v0v0v0v0v0v-48.5v-119.5v-142
v-119.5v-48.5h-80z" />
    <glyph glyph-name="at" unicode="@" horiz-adv-x="1018" 
d="M538 620v-72.5v-71.5v0v0h-26.5h-17.5v0v0v28.5v45v44v26.5v0v0h20h24v0v0zM804 316q3 0 16.5 12t30.5 28t29 29t12 15v454q0 2 -12 15.5t-29 30t-30.5 28.5t-16.5 12h-104.5h-106.5h-104h-99.5h-92h-81.5q-3 0 -16.5 -12t-30.5 -28.5t-29 -30t-12 -15.5v-630
q0 -2 12 -15t29 -29t30.5 -28t16.5 -12h94.5h99h102h103h101.5v0v0v136v0v0h-45h-112h-134h-112h-45v0v0v38v98v127v127v98v38v0v0h49h121h144h121h49v0v0v-33.5v-82.5v-98v-82.5v-33.5v0v0h-18h-20v0v0v284v0v0h-52h-127.5h-144.5q-3 0 -16 -11.5t-29 -27t-27.5 -28.5
t-11.5 -15v-276q0 -2 11.5 -15t27.5 -28.5t29 -27t16 -11.5h21h49h49h21q4 0 8 20t7 40l3 20v0v0h4h4v0v0l3.5 -20t8 -40t8.5 -20h34.5h79.5h79.5h34.5zM-40 -2v0v0v0v0v0v0v0v0v63.5v168.5v230v250v230v168.5v63.5v0v0v0v0v0v0v0v0h110.5h123.5h121h104.5h73.5h27v0v0v0v0
v0v0h26h70h100h116.5h119h106.5v0v0v0v0v0v0v0v0v-63.5v-168.5v-230v-250v-230v-168.5v-63.5v0v0v0v0v0v0v0v0h-106h-118.5h-116.5h-100.5h-70.5h-26v0v0v0v0v0v0h-27h-73h-103.5h-120.5h-124h-112z" />
    <glyph glyph-name="A" unicode="A" 
d="M-40 558h80v-34.5v-89v-115.5v-115.5v-89v-34.5v0v0v0v0v0v0v0v0v0v0v0v0v0h36.5h94h121.5h121.5h94h36.5v-39.5v-40.5v0v0v0v0v0h-42h-108.5h-141.5h-141.5h-108.5h-42v0v0v0v0v40.5v104v134.5v134.5v104v40.5zM1100 558v-40.5v-104v-134.5v-134.5v-104v-40.5v0v0v0v0
h-42h-108.5h-141.5h-141.5h-108.5h-42v0v0v0v0v0v40.5v39.5h36.5h94h121.5h121.5h94h36.5v0v0v0v0v0v0v0v0v0v0v0v0v0v34.5v89v115.5v115.5v89v34.5h80zM-40 614v40.5v104v134.5v134.5v104v40.5v0v0v0v0h40.5h104.5h136.5h139h111.5h52v0v0v0v0v0v-39.5v-40.5h-34.5h-85.5
h-102h-85.5h-34.5v0v0v0q-3 0 -20 -15t-41 -38t-47 -46.5t-38.5 -40.5t-15.5 -20v-318h-80zM1100 614h-80v318q0 3 -15.5 20t-38.5 40.5t-47 46.5t-41 38t-20 15v0v0v0h-34.5h-85.5h-102h-85.5h-34.5v40.5v39.5v0v0v0v0v0h52h111.5h139h136.5h104.5h40.5v0v0v0v0v-40.5v-104
v-134.5v-134.5v-104v-40.5zM492 549v37.5v86.5v86.5v37.5v0v0q0 6 1 7t7 1h21.5h21h21.5q6 0 7 -1t1 -7v0v0v-37.5v-86.5v-86.5v-37.5v0v0v0v0v0v0v0q0 -6 -1 -7t-7 -1h-31.5h-32.5q-6 0 -7 1t-1 7v0v0v0v0v0v0v0zM568 356q4 0 5.5 -0.5t2 -2t0.5 -5.5v-27v-67v-80v-67v-27
v0v0v0v0v0v-4.5t-1 -2.5t-2.5 -1h-4.5h-16h-32h-16h-4.5t-2.5 1t-1 2.5v4.5v0v0v0v0v0v27v67v80v67v27q0 4 0.5 5.5t2 2t5.5 0.5h16h32h16zM1100 376h-80v31.5v73.5v73.5v31.5v0v0v0v0v31.5v73.5v73.5v31.5h80v-420zM-40 376v420h80v-31.5v-73.5v-73.5v-31.5v0v0v0v0v-31.5
v-73.5v-73.5v-31.5h-80z" />
    <glyph glyph-name="B" unicode="B" 
d="M-40 376v420h80v-31.5v-73.5v-73.5v-31.5v0v0v0v0v-31.5v-73.5v-73.5v-31.5h-80zM1100 558v-40.5v-104v-134.5v-134.5v-104v-40.5v0v0v0v0h-40.5h-104.5h-136.5h-139h-111.5h-52v0v0v0v0v0v40.5v39.5h34.5h85.5h102h85.5h34.5v0v0v0q3 0 20 15t41 38t47 46.5t38.5 40.5
t15.5 20v318h80zM1100 614h-80v318q0 3 -15.5 20t-38.5 40.5t-47 46.5t-41 38t-20 15v0v0v0h-34.5h-85.5h-102h-85.5h-34.5v40.5v39.5v0v0v0v0v0h52h111.5h139h136.5h104.5h40.5v0v0v0v0v-40.5v-104v-134.5v-134.5v-104v-40.5zM880 566v0v0l21 17t49 40t49 40l21 17v100h38
h42v-43v-107v-128v-107v-43h-42h-38v100l-21 17t-49 40t-49 40l-21 17v0v0zM-40 558h80v-34.5v-89v-115.5v-115.5v-89v-34.5v0v0v0v0v0v0v0v0v0v0v0v0v0h36.5h94h121.5h121.5h94h36.5v-39.5v-40.5v0v0v0v0v0h-42h-108.5h-141.5h-141.5h-108.5h-42v0v0v0v0v40.5v104v134.5
v134.5v104v40.5zM-40 614v40.5v104v134.5v134.5v104v40.5v0v0v0v0h42h108.5h141.5h141.5h108.5h42v0v0v0v0v0v-39.5v-40.5h-36.5h-94h-121.5h-121.5h-94h-36.5v0v0v0v0v0v0v0v0v0v0v0v0v0v-34.5v-89v-115.5v-115.5v-89v-34.5h-80zM660 788v0v0v0v0v0v0v0q6 0 7 -1t1 -7
v-21.5v-21v-21.5q0 -6 -1 -7t-7 -1v0v0v0v0v0v0v0h-37.5h-86.5h-86.5h-37.5v0v0q-6 0 -7 1t-1 7v21.5v21v21.5q0 6 1 7t7 1v0v0h37.5h86.5h86.5h37.5zM660 384h-37.5h-86.5h-86.5h-37.5v0v0q-6 0 -7 1t-1 7v21.5v21v21.5q0 6 1 7t7 1v0v0h37.5h86.5h86.5h37.5v0v0v0v0v0v0v0
q6 0 7 -1t1 -7v-21.5v-21v-21.5q0 -6 -1 -7t-7 -1v0v0v0v0v0v0v0z" />
    <glyph glyph-name="C" unicode="C" horiz-adv-x="984" 
d="M-40 558h80v-318q0 -3 15.5 -20t38.5 -40.5t47 -46.5t41 -38t20 -15v0v0v0v0h44.5h74h82h68.5h33v-39.5v-40.5v0v0v0v0v0h-39.5h-101h-131.5h-131.5h-101h-39.5v0v0v0v0v28v76v107v121.5v121.5v104zM-40 614v104v121v122v107v76v28v0v0v0v0h39.5h101h131.5h131.5h101
h39.5v0v0v0v0v0v-39.5v-40.5h-33h-68.5h-82h-74h-44.5v0v0v0v0q-3 0 -20 -15t-41 -38t-47 -46.5t-38.5 -40.5t-15.5 -20v-318h-80zM-40 376v420h80v-31.5v-73.5v-73.5v-31.5v0v0v0v0v-31.5v-73.5v-73.5v-31.5h-80zM1024 498v-36v-92.5v-120.5v-120.5v-92.5v-36v0v0v0v0
h-39.5h-101h-131.5h-131.5h-101h-39.5v0v0v0v0v0v40.5v39.5h47h116h138h116h47v0v0v0v0v0v0v0v0v0v0v0v42v104.5v125v104.5v42h80zM1024 674h-80v42v104.5v125v104.5v42v0v0v0v0v0v0v0v0v0v0v0h-47h-116h-138h-116h-47v40.5v39.5v0v0v0v0v0h39.5h101h131.5h131.5h101h39.5v0
v0v0v0v-36v-92.5v-120.5v-120.5v-92.5v-36zM550 622q0 4 0.5 5.5t2 2t5.5 0.5h41h102h122h102h41v0v0v0v0v0q4 0 5.5 -0.5t2 -2t0.5 -5.5v-6.5v-16v-19v-16v-6.5q0 -6 -1 -7t-7 -1v0v0v0v0v0h-41h-102h-122h-102h-41q-4 0 -5.5 0.5t-2 2t-0.5 5.5v16v32v16zM1024 196h-80
v79.5v260.5v5v5v5v5v288.5v91.5h80v-740z" />
    <glyph glyph-name="D" unicode="D" horiz-adv-x="1062" 
d="M-40 376v420h80v-31.5v-73.5v-73.5v-31.5v0v0v0v0v-31.5v-73.5v-73.5v-31.5h-80zM466 576v24v59v70v59v24v0v0q0 4 0.5 5.5t2 2t5.5 0.5h21.5h21h21.5q4 0 5.5 -0.5t2 -2t0.5 -5.5v0v0v-24v-59v-70v-59v-24v-15.5v-39.5v-51v-51v-39.5v-15.5v0v0q0 -4 -0.5 -5.5t-2 -2
t-5.5 -0.5h-31.5h-32.5q-4 0 -5.5 0.5t-2 2t-0.5 5.5v0v0v15.5v39.5v51v51v39.5v15.5zM-40 558h80v-34.5v-89v-115.5v-115.5v-89v-34.5v0v0v0v0v0v0v0v0v0v0v0v0v0h36.5h94h121.5h121.5h94h36.5v-39.5v-40.5v0v0v0v0v0h-42h-108.5h-141.5h-141.5h-108.5h-42v0v0v0v0v40.5
v104v134.5v134.5v104v40.5zM-40 614v40.5v104v134.5v134.5v104v40.5v0v0v0v0h42h108.5h141.5h141.5h108.5h42v0v0v0v0v0v-39.5v-40.5h-36.5h-94h-121.5h-121.5h-94h-36.5v0v0v0v0v0v0v0v0v0v0v0v0v0v-34.5v-89v-115.5v-115.5v-89v-34.5h-80zM1102 196h-80v79.5v260.5v5v5v5
v5v288.5v91.5h80v-740zM1102 558v-40.5v-104v-134.5v-134.5v-104v-40.5v0v0v0v0h-42h-108.5h-141.5h-141.5h-108.5h-42v0v0v0v0v0v80h28.5h70.5h84h70.5h28.5v0v0v0q3 0 26.5 30t56 74.5t64.5 89.5t53.5 77t21.5 35v17.5v43v51v43v17.5h80zM1102 614h-80v17.5v43v51v43v17.5
q0 3 -21.5 35t-53.5 77t-64.5 89.5t-56 74.5t-26.5 30v0v0v0h-28.5h-70.5h-84h-70.5h-28.5v80v0v0v0v0v0h42h108.5h141.5h141.5h108.5h42v0v0v0v0v-40.5v-104v-134.5v-134.5v-104v-40.5z" />
    <glyph glyph-name="E" unicode="E" horiz-adv-x="984" 
d="M-40 376v420h80v-31.5v-73.5v-73.5v-31.5v0v0v0v0v-31.5v-73.5v-73.5v-31.5h-80zM-40 498h80v-42v-104.5v-125v-104.5v-42v0v0v0v0v0v0v0v0v0v0v0h47h116h138h116h47v-39.5v-40.5v0v0v0v0v0h-39.5h-101h-131.5h-131.5h-101h-39.5v0v0v0v0v36v92.5v120.5v120.5v92.5v36z
M-40 674v36v92.5v120.5v120.5v92.5v36v0v0v0v0h39.5h101h131.5h131.5h101h39.5v0v0v0v0v0v-39.5v-40.5h-47h-116h-138h-116h-47v0v0v0v0v0v0v0v0v0v0v0v-42v-104.5v-125v-104.5v-42h-80zM556 782q0 4 0.5 5.5t2 2t5.5 0.5h41h102h122h102h41v0v0v0v0v0q4 0 5.5 -0.5t2 -2
t0.5 -5.5v-6.5v-16v-19v-16v-6.5q0 -6 -1 -7t-7 -1v0v0v0v0v0h-41h-102h-122h-102h-41q-4 0 -5.5 0.5t-2 2t-0.5 5.5v16v32v16zM556 370v16v32v16q0 4 0.5 5.5t2 2t5.5 0.5h41h102h122h102h41v0v0v0v0v0q6 0 7 -1t1 -7v-6.5v-16v-19v-16v-6.5q0 -4 -0.5 -5.5t-2 -2
t-5.5 -0.5v0v0v0v0v0h-41h-102h-122h-102h-41q-4 0 -5.5 0.5t-2 2t-0.5 5.5zM1024 196h-80v79.5v260.5v5v5v5v5v288.5v91.5h80v-740zM1024 498v-36v-92.5v-120.5v-120.5v-92.5v-36v0v0v0v0h-39.5h-101h-131.5h-131.5h-101h-39.5v0v0v0v0v0v40.5v39.5h47h116h138h116h47v0v0
v0v0v0v0v0v0v0v0v0v42v104.5v125v104.5v42h80zM1024 674h-80v42v104.5v125v104.5v42v0v0v0v0v0v0v0v0v0v0v0h-47h-116h-138h-116h-47v40.5v39.5v0v0v0v0v0h39.5h101h131.5h131.5h101h39.5v0v0v0v0v-36v-92.5v-120.5v-120.5v-92.5v-36z" />
    <glyph glyph-name="F" unicode="F" horiz-adv-x="984" 
d="M600 764q0 4 0.5 5.5t2 2t5.5 0.5h41h102h122h102h41v0v0v0v0v0q4 0 5.5 -0.5t2 -2t0.5 -5.5v-6.5v-16v-19v-16v-6.5q0 -6 -1 -7t-7 -1v0v0v0v0v0h-41h-102h-122h-102h-41q-4 0 -5.5 0.5t-2 2t-0.5 5.5v16v32v16zM-40 674v36v92.5v120.5v120.5v92.5v36v0v0v0v0h39.5h101
h131.5h131.5h101h39.5v0v0v0v0v0v-39.5v-40.5h-47h-116h-138h-116h-47v0v0v0v0v0v0v0v0v0v0v0v-42v-104.5v-125v-104.5v-42h-80zM1024 674h-80v42v104.5v125v104.5v42v0v0v0v0v0v0v0v0v0v0v0h-47h-116h-138h-116h-47v40.5v39.5v0v0v0v0v0h39.5h101h131.5h131.5h101h39.5v0v0
v0v0v-36v-92.5v-120.5v-120.5v-92.5v-36zM532 0v0v0v0v0v0v0h-47h-108h-137h-136h-104h-40v0v0v0v516h80v-436v0v0v0h35h81h81h35v0v0v0v0v0h35h81h81h35v0v0v5v30v83v164v0v0v0v0v0h44.5h110h131h110h44.5v0v0v0v0v0v32v79v94v79v32v0v0v0v0v0h80v-678h-34.5h-89.5h-117.5
h-118.5h-92.5h-39.5v0v0v0v0zM-40 376v420h80v-31.5v-73.5v-73.5v-31.5v0v0v0v0v-31.5v-73.5v-73.5v-31.5h-80z" />
    <glyph glyph-name="G" unicode="G" 
d="M-40 558h80v-318q0 -3 15.5 -20t38.5 -40.5t47 -46.5t41 -38t20 -15v0v0v0h34.5h85.5h102h85.5h34.5v-39.5v-40.5v0v0v0v0v0h-52h-111.5h-139h-136.5h-104.5h-40.5v0v0v0v0v40.5v104v134.5v134.5v104v40.5zM-40 614v40.5v104v134.5v134.5v104v40.5v0v0v0v0h40.5h104.5
h136.5h139h111.5h52v0v0v0v0v0v-39.5v-40.5h-34.5h-85.5h-102h-85.5h-34.5v0v0v0q-3 0 -20 -15t-41 -38t-47 -46.5t-38.5 -40.5t-15.5 -20v-318h-80zM-40 376v420h80v-31.5v-73.5v-73.5v-31.5v0v0v0v0v-31.5v-73.5v-73.5v-31.5h-80zM590 626v-16v-41v-53v-53v-41v-16v-3
t-1 -1h-3h-66h-3t-1 1v3v21.5v56v72.5v72.5v56v21.5v0v0v0h38h97.5h126.5h126.5h97.5h38v0v0v0v0l10 -40l-10 -40v0v0h-32.5h-83.5h-108.5h-109h-84h-32.5zM1100 558v-40.5v-104v-134.5v-134.5v-104v-40.5v0v0v0v0h-42h-108.5h-141.5h-141.5h-108.5h-42v0v0v0v0v0v40.5v39.5
h36.5h94h121.5h121.5h94h36.5v0v0v0v0v0v0v0v0v0v0v0v0v0v34.5v89v115.5v115.5v89v34.5h80zM1100 614h-80v34.5v89v115.5v115.5v89v34.5v0v0v0v0v0v0v0v0v0v0v0v0v0h-36.5h-94h-121.5h-121.5h-94h-36.5v40.5v39.5v0v0v0v0v0h42h108.5h141.5h141.5h108.5h42v0v0v0v0v-40.5
v-104v-134.5v-134.5v-104v-40.5zM1100 194h-80v79.5v260.5v5v5v5v5v288.5v91.5h80v-740z" />
    <glyph glyph-name="H" unicode="H" 
d="M-40 558h80v-34.5v-89v-115.5v-115.5v-89v-34.5v0v0v0v0v0v0v0v0v0v0v0v0v0h36.5h94h121.5h121.5h94h36.5v-39.5v-40.5v0v0v0v0v0h-42h-108.5h-141.5h-141.5h-108.5h-42v0v0v0v0v40.5v104v134.5v134.5v104v40.5zM-40 376v420h80v-31.5v-73.5v-73.5v-31.5v0v0v0v0v-31.5
v-73.5v-73.5v-31.5h-80zM1100 558v-40.5v-104v-134.5v-134.5v-104v-40.5v0v0v0v0h-42h-108.5h-141.5h-141.5h-108.5h-42v0v0v0v0v0v40.5v39.5h36.5h94h121.5h121.5h94h36.5v0v0v0v0v0v0v0v0v0v0v0v0v0v34.5v89v115.5v115.5v89v34.5h80zM-40 614v40.5v104v134.5v134.5v104
v40.5v0v0v0v0h42h108.5h141.5h141.5h108.5h42v0v0v0v0v0v-39.5v-40.5h-36.5h-94h-121.5h-121.5h-94h-36.5v0v0v0v0v0v0v0v0v0v0v0v0v0v-34.5v-89v-115.5v-115.5v-89v-34.5h-80zM1100 376h-80v31.5v73.5v73.5v31.5v0v0v0v0v31.5v73.5v73.5v31.5h80v-420zM1100 614h-80v34.5
v89v115.5v115.5v89v34.5v0v0v0v0v0v0v0v0v0v0v0v0v0h-36.5h-94h-121.5h-121.5h-94h-36.5v40.5v39.5v0v0v0v0v0h42h108.5h141.5h141.5h108.5h42v0v0v0v0v-40.5v-104v-134.5v-134.5v-104v-40.5zM498 498h16h32h16q4 0 5.5 -0.5t2 -2t0.5 -5.5v-41v-102v-122v-102v-41v0v0v0v0
v0q0 -6 -1 -7t-7 -1h-9.5h-22.5h-22.5h-9.5q-4 0 -5.5 0.5t-2 2t-0.5 5.5v0v0v0v0v0v41v102v122v102v41q0 4 0.5 5.5t2 2t5.5 0.5zM564 674h-16h-32h-16q-4 0 -5.5 0.5t-2 2t-0.5 5.5v41v102v122v102v41v0v0v0v0v0q0 6 1 7t7 1h9.5h22.5h22.5h9.5q4 0 5.5 -0.5t2 -2
t0.5 -5.5v0v0v0v0v0v-41v-102v-122v-102v-41q0 -4 -0.5 -5.5t-2 -2t-5.5 -0.5z" />
    <glyph glyph-name="I" unicode="I" horiz-adv-x="542" 
d="M582 498v-89.5v-101v-106v-104.5v-97h-31.5h-78h-93h-78h-31.5v0v0v0v0q-7 15 -7 40t7 40h47h55.5h62.5h67v0v0v0v0v0v0v0v0v42v104.5v125v104.5v42h80zM-40 498h80v-42v-104.5v-125v-104.5v-42v0v0v0v0v0v0v0v0h67.5h62h55.5h47q8 -15 8 -40t-8 -40v0v0v0v0h-31.5h-78
h-93h-78h-31.5v97v104.5v106v101v89.5zM582 376h-80v31.5v73.5v73.5v31.5v0v0v0v0v31.5v73.5v73.5v31.5h80v-420zM-40 376v420h80v-31.5v-73.5v-73.5v-31.5v0v0v0v0v-31.5v-73.5v-73.5v-31.5h-80zM582 674h-80v42v104.5v125v104.5v42v0v0v0v0v0v0v0v0h-67h-62.5h-55.5h-47
q-7 15 -7 40t7 40v0v0v0v0h31.5h78h93h78h31.5v-97v-104.5v-106v-101v-89.5zM-40 674v89.5v101v106v104.5v97h31.5h78h93h78h31.5v0v0v0v0q8 -15 8 -40t-8 -40h-47h-55.5h-62h-67.5v0v0v0v0v0v0v0v0v-42v-104.5v-125v-104.5v-42h-80z" />
    <glyph glyph-name="J" unicode="J" horiz-adv-x="984" 
d="M1024 376h-80v31.5v73.5v73.5v31.5v0v0v0v0v31.5v73.5v73.5v31.5h80v-420zM1024 558v-104v-121.5v-121.5v-107v-76v-28v0v0v0v0h-39.5h-101h-131.5h-131.5h-101h-39.5v0v0v0v0v0v40.5v39.5h33h68.5h82h74h44.5v0v0v0v0q3 0 20 15t41 38t47 46.5t38.5 40.5t15.5 20v318h80
zM-40 498h80v-42v-104.5v-125v-104.5v-42v0v0v0v0v0v0v0v0v0v0v0h47h116h138h116h47v-39.5v-40.5v0v0v0v0v0h-39.5h-101h-131.5h-131.5h-101h-39.5v0v0v0v0v36v92.5v120.5v120.5v92.5v36zM-40 1092h80v-384v0v0v0h13.5h37.5h55h66.5h71.5h112h86.5h33.5v-22v-57v-74v-74v-57
v-22h-8.5h-17h-8.5h-10h-20h-10v0v0v0v0v0v0v33.5v77.5v77.5v33.5h-40.5h-100.5h-120h-100.5h-40.5v0v0v0v0v-252h-80v720zM1024 674h-80v42v104.5v125v104.5v42v0v0v0v0v0v0v0v0v0v0v0h-47h-116h-138h-116h-47v40.5v39.5v0v0v0v0v0h39.5h101h131.5h131.5h101h39.5v0v0v0v0
v-36v-92.5v-120.5v-120.5v-92.5v-36zM-40 674v36v92.5v120.5v120.5v92.5v36v0v0v0v0h39.5h101h131.5h131.5h101h39.5v0v0v0v0v0v-39.5v-40.5h-47h-116h-138h-116h-47v0v0v0v0v0v0v0v0v0v0v0v-42v-104.5v-125v-104.5v-42h-80z" />
    <glyph glyph-name="K" unicode="K" 
d="M-40 376v420h80v-31.5v-73.5v-73.5v-31.5v0v0v0v0v-31.5v-73.5v-73.5v-31.5h-80zM-40 558h80v-34.5v-89v-115.5v-115.5v-89v-34.5v0v0v0v0v0v0v0v0v0v0v0v0v0h36.5h94h121.5h121.5h94h36.5v-39.5v-40.5v0v0v0v0v0h-42h-108.5h-141.5h-141.5h-108.5h-42v0v0v0v0v40.5v104
v134.5v134.5v104v40.5zM-40 614v40.5v104v134.5v134.5v104v40.5v0v0v0v0h42h108.5h141.5h141.5h108.5h42v0v0v0v0v0v-39.5v-40.5h-36.5h-94h-121.5h-121.5h-94h-36.5v0v0v0v0v0v0v0v0v0v0v0v0v0v-34.5v-89v-115.5v-115.5v-89v-34.5h-80zM1100 196h-80v79.5v260.5v5v5v5v5
v288.5v91.5h80v-740zM1100 614h-80v34.5v89v115.5v115.5v89v34.5v0v0v0v0v0v0v0v0v0v0v0v0v0h-36.5h-94h-121.5h-121.5h-94h-36.5v40.5v39.5v0v0v0v0v0h42h108.5h141.5h141.5h108.5h42v0v0v0v0v-40.5v-104v-134.5v-134.5v-104v-40.5zM490 426h6h15h19h20.5h15.5h6v-55.5
v-88.5v-95.5v-76.5v-30v0v0v0h32.5h83.5h108h108h83.5h32.5v0v0v0v31.5v68v50.5v21.5v26v39.5v61v0v0v0v21v49v49v21h80v-108.5v-126v-138v-145.5v0v0v0v0v0v0v0v0h-43h-111h-145h-146.5h-115h-49.5v0v0v0v0v0v0v0v12v28v28v12v0v0v0v79.5v77v71.5v64v54zM498 674
q-4 0 -5.5 0.5t-2 2t-0.5 5.5v41v102v122v102v41v0v0v0v0v0q0 4 0.5 5.5t2 2t5.5 0.5h9.5h22.5h22.5h9.5q6 0 7 -1t1 -7v0v0v0v0v0v-41v-102v-122v-102v-41q0 -4 -0.5 -5.5t-2 -2t-5.5 -0.5h-16h-32h-16zM1020 482v0l-21.5 11t-53.5 27l-64 32t-53.5 27l-21.5 11v0v0v0v0
l21.5 11.5t53.5 28l64 33t53.5 28l21.5 11.5v0q8 -31 11.5 -56.5t3.5 -49t-3.5 -51t-11.5 -63.5z" />
    <glyph glyph-name="L" unicode="L" horiz-adv-x="984" 
d="M-40 376v420h80v-31.5v-73.5v-73.5v-31.5v0v0v0v0v-31.5v-73.5v-73.5v-31.5h-80zM-40 498h80v-42v-104.5v-125v-104.5v-42v0v0v0v0v0v0v0v0v0v0v0h47h116h138h116h47v-39.5v-40.5v0v0v0v0v0h-39.5h-101h-131.5h-131.5h-101h-39.5v0v0v0v0v36v92.5v120.5v120.5v92.5v36z
M1024 498v-36v-92.5v-120.5v-120.5v-92.5v-36v0v0v0v0h-39.5h-101h-131.5h-131.5h-101h-39.5v0v0v0v0v0v40.5v39.5h47h116h138h116h47v0v0v0v0v0v0v0v0v0v0v0v42v104.5v125v104.5v42h80zM40 714h-80v458v0v0v0v0v0v0h218.5h147.5h90.5h46h15.5v0v0v0v0v0v0h12h33h63h99.5
h143.5h195v0v0v0v0v0v0v0v0v-822h-80v332v0v0v0v0v0v0v0v0h-28.5h-73.5h-95h-95h-73.5h-28.5v-28.5v-70v-83v-70v-28.5v0v0v0h-19.5h-39h-19.5v18v49.5v73v89.5v98.5v99.5v129.5v96v36.5v0v0v0v0v0v0v0h-43.5h-108h-129h-108h-43.5v0v0v0v0v0v0v-378z" />
    <glyph glyph-name="M" unicode="M" horiz-adv-x="1260" 
d="M1300 376h-80v31.5v73.5v73.5v31.5v0v0v0v0v31.5v73.5v73.5v31.5h80v-420zM-40 376v420h80v-31.5v-73.5v-73.5v-31.5v0v0v0v0v-31.5v-73.5v-73.5v-31.5h-80zM630 1172q2 -24 3.5 -49.5t2 -52t0.5 -53t-1.5 -52t-4.5 -49.5h-6h-6l-12 18t-30 44l-36 52t-30 44l-12 18v0v0
v0h-166.5h-147.5h-105h-39v0v0v0v0v0v0v0v0v-4.5v-26.5v-72v-141v-234h-80v81v92.5v99v100v97v88.5v0v0h48.5h124.5h162h162h124.5h48.5v0v0v0v0v0v0v0v0zM-40 578h80v-50.5v-124.5v-148v-124.5v-50.5v0v0v0v0v0v0v0v0v0v0h44h113.5h147.5h147.5h113.5h44v0v0v-39.5v-40.5v0
v0v0v0v0v0v0h-56h-130.5h-165.5h-164h-125.5h-48.5v0v0v0v41.5v107.5v140v140v107.5v41.5zM1300 578v-41.5v-107.5v-140v-140v-107.5v-41.5v0v0v0h-48.5h-125.5h-164h-165.5h-130h-56.5v0v0v0v0v0v0v0v40.5v39.5v0v0h44h113.5h147.5h147.5h113.5h44v0v0v0v0v0v0v0v0v0v0
v50.5v124.5v148v124.5v50.5h80zM630 1172v0v0v0v0v0v0v0v0h48.5h124.5h162h162h124.5h48.5v0v0v-88.5v-97v-100v-99v-92.5v-81h-80v234v141v72v26.5v4.5v0v0v0v0v0v0v0v0h-39h-105h-147.5h-166.5v0v0v0l-12 -18t-30 -44l-36 -52t-30 -44l-12 -18h-6h-6q-3 24 -4.5 49.5
t-1.5 52t0.5 53t2 52t3.5 49.5zM534 80v0v0v0v0v0v0v0v0l-7 -9l-14 -18l-7 -9v0v0v0l-12.5 9l-25 18l-12.5 9v0v0v0v0v0v0v0l-7.5 35t-19.5 90.5t-26 117.5t-26 117.5t-19.5 90.5l-7.5 35v0v0v0l18.5 4.5l37 9l18.5 4.5v0v0v0v0v0v0l8 -36.5t20.5 -94t26.5 -121.5
t26.5 -121.5t20.5 -94zM728 80l8 36.5t20.5 94t26.5 121.5t26.5 121.5t20.5 94l8 36.5v0v0v0v0v0v0l18.5 -4.5l37 -9l18.5 -4.5v0v0v0l-7.5 -35t-19.5 -90.5t-26 -117.5t-26 -117.5t-19.5 -90.5l-7.5 -35v0v0v0v0v0v0v0l-12.5 -9l-25 -18l-12.5 -9v0v0v0l-7 9l-14 18l-7 9v0
v0v0v0v0v0v0v0z" />
    <glyph glyph-name="N" unicode="N" 
d="M1100 396h-80v31.5v73.5v73.5v31.5v0v0v0v0v31.5v73.5v73.5v31.5h80v-420zM-40 396v420h80v-31.5v-73.5v-73.5v-31.5v0v0v0v0v-31.5v-73.5v-73.5v-31.5h-80zM1100 558v-40.5v-104v-134.5v-134.5v-104v-40.5v0v0v0v0h-42h-108.5h-141.5h-141.5h-108.5h-42v0v0v0v0v0v40.5
v39.5h36.5h94h121.5h121.5h94h36.5v0v0v0v0v0v0v0v0v0v0v0v0v0v34.5v89v115.5v115.5v89v34.5h80zM-40 558h80v-34.5v-89v-115.5v-115.5v-89v-34.5v0v0v0v0v0v0v0v0v0v0v0v0v0h36.5h94h121.5h121.5h94h36.5v-39.5v-40.5v0v0v0v0v0h-42h-108.5h-141.5h-141.5h-108.5h-42v0v0v0
v0v40.5v104v134.5v134.5v104v40.5zM1100 614h-80v34.5v89v115.5v115.5v89v34.5v0v0v0v0v0v0v0v0v0v0v0v0v0h-36.5h-94h-121.5h-121.5h-94h-36.5v40.5v39.5v0v0v0v0v0h42h108.5h141.5h141.5h108.5h42v0v0v0v0v-40.5v-104v-134.5v-134.5v-104v-40.5zM-40 614v40.5v104v134.5
v134.5v104v40.5v0v0v0v0h42h108.5h141.5h141.5h108.5h42v0v0v0v0v0v-39.5v-40.5h-36.5h-94h-121.5h-121.5h-94h-36.5v0v0v0v0v0v0v0v0v0v0v0v0v0v-34.5v-89v-115.5v-115.5v-89v-34.5h-80zM555 78v0v0v0v0v0v0v0v0l-6.5 -9t-13.5 -18l-7 -9v0v0v0l-13 9t-25.5 17.5l-12.5 8.5
v0v0v0v0v0v0v0l-8.5 35t-21.5 90t-27.5 117t-27.5 117t-21.5 90l-8.5 35v0v0v0l18.5 5t37 9.5l18.5 4.5v0v0v0v0v0v0l8.5 -36.5t22 -93.5t29 -121t29 -121t22 -93.5zM507 1096v0v0v0v0v0v0v0v0l7 9t13.5 18l6.5 9v0v0v0l12.5 -8.5t25.5 -17.5l13 -9v0v0v0v0v0v0v0l8.5 -35
t21.5 -90t27.5 -117t27.5 -117t21.5 -90l8.5 -35v0v0v0l-18.5 -4.5t-37 -9.5l-18.5 -5v0v0v0v0v0v0l-8.5 36.5t-22 93.5t-29 121t-29 121t-22 93.5z" />
    <glyph glyph-name="O" unicode="O" 
d="M-40 558h80v-318q0 -3 15.5 -20t38.5 -40.5t47 -46.5t41 -38t20 -15v0v0v0h34.5h85.5h102h85.5h34.5v-39.5v-40.5v0v0v0v0v0h-52h-111.5h-139h-136.5h-104.5h-40.5v0v0v0v0v40.5v104v134.5v134.5v104v40.5zM1100 558v-40.5v-104v-134.5v-134.5v-104v-40.5v0v0v0v0h-40.5
h-104.5h-136.5h-139h-111.5h-52v0v0v0v0v0v40.5v39.5h34.5h85.5h102h85.5h34.5v0v0v0q3 0 20 15t41 38t47 46.5t38.5 40.5t15.5 20v318h80zM-40 614v40.5v104v134.5v134.5v104v40.5v0v0v0v0h40.5h104.5h136.5h139h111.5h52v0v0v0v0v0v-39.5v-40.5h-34.5h-85.5h-102h-85.5
h-34.5v0v0v0q-3 0 -20 -15t-41 -38t-47 -46.5t-38.5 -40.5t-15.5 -20v-318h-80zM1100 614h-80v318q0 3 -15.5 20t-38.5 40.5t-47 46.5t-41 38t-20 15v0v0v0h-34.5h-85.5h-102h-85.5h-34.5v40.5v39.5v0v0v0v0v0h52h111.5h139h136.5h104.5h40.5v0v0v0v0v-40.5v-104v-134.5
v-134.5v-104v-40.5zM1100 376h-80v31.5v73.5v73.5v31.5v0v0v0v0v31.5v73.5v73.5v31.5h80v-420zM-40 376v420h80v-31.5v-73.5v-73.5v-31.5v0v0v0v0v-31.5v-73.5v-73.5v-31.5h-80zM490 576v24v59v70v59v24v0v0q0 4 0.5 5.5t2 2t5.5 0.5h21.5h21h21.5q4 0 5.5 -0.5t2 -2
t0.5 -5.5v0v0v-24v-59v-70v-59v-24v-15.5v-39.5v-51v-51v-39.5v-15.5v0v0q0 -4 -0.5 -5.5t-2 -2t-5.5 -0.5h-31.5h-32.5q-4 0 -5.5 0.5t-2 2t-0.5 5.5v0v0v15.5v39.5v51v51v39.5v15.5z" />
    <glyph glyph-name="P" unicode="P" 
d="M-40 376v420h80v-31.5v-73.5v-73.5v-31.5v0v0v0v0v-31.5v-73.5v-73.5v-31.5h-80zM1100 488h-80v31.5v73.5v73.5v31.5v0v0v0v0v31.5v73.5v73.5v31.5h80v-420zM-40 580h80v-500v0v0h35.5h81.5h81.5h35.5h32.5h75.5h75.5h32.5v0v0v202v0v0v0v0h22h58.5h79h84h75h49.5v0v0v0
q4 0 21.5 15t41 38t46.5 46.5t38 40.5t15 20v0v0v156h80v-598h-30.5h-81h-110.5h-120h-110.5h-81h-30.5v0v0v0v0v0v0v0v0v0v0v0v0v0v0v0v0v0v0v0v0v0v0v0v0v0v0v0v0v0h-41.5h-107h-139.5h-139.5h-107h-41.5v580zM-40 614v40.5v104v134.5v134.5v104v40.5v0v0v0v0h42h108.5
h141.5h141.5h108.5h42v0v0v0v0v0v-39.5v-40.5h-36.5h-94h-121.5h-121.5h-94h-36.5v0v0v0v0v0v0v0v0v0v0v0v0v0v-34.5v-89v-115.5v-115.5v-89v-34.5h-80zM1100 614h-80v318q0 3 -15.5 20t-38.5 40.5t-47 46.5t-41 38t-20 15v0v0v0h-34.5h-85.5h-102h-85.5h-34.5v40.5v39.5v0
v0v0v0v0h52h111.5h139h136.5h104.5h40.5v0v0v0v0v-40.5v-104v-134.5v-134.5v-104v-40.5zM486 572v37.5v86.5v86.5v37.5v0v0q0 6 1 7t7 1h21.5h21h21.5q6 0 7 -1t1 -7v0v0v-37.5v-86.5v-86.5v-37.5v0v0v0v0v0v0v0q0 -6 -1 -7t-7 -1h-31.5h-32.5q-6 0 -7 1t-1 7v0v0v0v0v0v0v0
z" />
    <glyph glyph-name="Q" unicode="Q" 
d="M-40 614v40.5v104v134.5v134.5v104v40.5v0v0v0v0h40.5h104.5h136.5h139h111.5h52v0v0v0v0v0v-39.5v-40.5h-34.5h-85.5h-102h-85.5h-34.5v0v0v0q-3 0 -20 -15t-41 -38t-47 -46.5t-38.5 -40.5t-15.5 -20v-318h-80zM-40 394v420h80v-31.5v-73.5v-73.5v-31.5v0v0v0v0v-31.5
v-73.5v-73.5v-31.5h-80zM1100 614h-80v318q0 3 -15.5 20t-38.5 40.5t-47 46.5t-41 38t-20 15v0v0v0h-34.5h-85.5h-102h-85.5h-34.5v40.5v39.5v0v0v0v0v0h52h111.5h139h136.5h104.5h40.5v0v0v0v0v-40.5v-104v-134.5v-134.5v-104v-40.5zM548 -114h34t88 0.5t114 0.5t114 0.5
t88 0.5h34h0.5h0.5h0.5h0.5l-2 906h80v-996v0v0v0v0v0v0h-45.5h-117.5h-153h-153h-117.5h-45.5v0v0v0v0v0v30.5v70.5v70.5v30.5h-36.5h-94.5h-123h-123h-94.5h-36.5v0v0v0v0v558h80v-318q0 -3 15.5 -20t38.5 -40.5t47 -46.5t41 -38t20 -15h35h86.5h103h86.5h35v-113v-57
v-20.5v-3.5v0v0v0zM1068 130h-33.5h-82.5h-98h-82.5h-33.5v19.5v39v19.5v0v0v0v0v0v0v0v0h33.5h82.5h98h82.5h33.5v0v0v0v0v0v0v-4v-10v-12v-10v-4v-5.5v-13.5v-13.5v-5.5v0v0v0v0v0zM490 576v24v59v70v59v24v0v0q0 4 0.5 5.5t2 2t5.5 0.5h21.5h21h21.5q4 0 5.5 -0.5t2 -2
t0.5 -5.5v0v0v-24v-59v-70v-59v-24v-15.5v-39.5v-51v-51v-39.5v-15.5v0v0q0 -4 -0.5 -5.5t-2 -2t-5.5 -0.5h-31.5h-32.5q-4 0 -5.5 0.5t-2 2t-0.5 5.5v0v0v15.5v39.5v51v51v39.5v15.5zM1100 414h-80v31.5v73.5v73.5v31.5v0v0v0v0v31.5v73.5v73.5v31.5h80v-420z" />
    <glyph glyph-name="R" unicode="R" 
d="M-40 376v420h80v-31.5v-73.5v-73.5v-31.5v0v0v0v0v-31.5v-73.5v-73.5v-31.5h-80zM880 558v0v0l21 17t49 40t49 40l21 17v100h38h42v-43v-107v-128v-107v-43h-42h-38v100l-21 17t-49 40t-49 40l-21 17v0v0zM-40 558h80v-34.5v-89v-115.5v-115.5v-89v-34.5v0v0v0v0v0v0v0v0
v0v0v0v0v0h36.5h94h121.5h121.5h94h36.5v-39.5v-40.5v0v0v0v0v0h-42h-108.5h-141.5h-141.5h-108.5h-42v0v0v0v0v40.5v104v134.5v134.5v104v40.5zM-40 614v40.5v104v134.5v134.5v104v40.5v0v0v0v0h42h108.5h141.5h141.5h108.5h42v0v0v0v0v0v-39.5v-40.5h-36.5h-94h-121.5
h-121.5h-94h-36.5v0v0v0v0v0v0v0v0v0v0v0v0v0v-34.5v-89v-115.5v-115.5v-89v-34.5h-80zM1100 614h-80v318q0 3 -15.5 20t-38.5 40.5t-47 46.5t-41 38t-20 15v0v0v0h-34.5h-85.5h-102h-85.5h-34.5v40.5v39.5v0v0v0v0v0h52h111.5h139h136.5h104.5h40.5v0v0v0v0v-40.5v-104
v-134.5v-134.5v-104v-40.5zM490 592v37.5v86.5v86.5v37.5v0v0q0 6 1 7t7 1h21.5h21h21.5q6 0 7 -1t1 -7v0v0v-37.5v-86.5v-86.5v-37.5v0v0v0v0v0v0v0q0 -6 -1 -7t-7 -1h-31.5h-32.5q-6 0 -7 1t-1 7v0v0v0v0v0v0v0zM490 426h6h15h19h20.5h15.5h6v-55.5v-88.5v-95.5v-76.5v-30
v0v0v0h32.5h83.5h108h108h83.5h32.5v0v0v0v31.5v68v50.5v21.5v26v39.5v61v0v0v0v21v49v49v21h80v-108.5v-126v-138v-145.5v0v0v0v0v0v0v0v0h-43h-111h-145h-146.5h-115h-49.5v0v0v0v0v0v0v0v12v28v28v12v0v0v0v79.5v77v71.5v64v54z" />
    <glyph glyph-name="S" unicode="S" horiz-adv-x="984" 
d="M1024 558v-104v-121.5v-121.5v-107v-76v-28v0v0v0v0h-39.5h-101h-131.5h-131.5h-101h-39.5v0v0v0v0v0v40.5v39.5h33h68.5h82h74h44.5v0v0v0v0q3 0 20 15t41 38t47 46.5t38.5 40.5t15.5 20v318h80zM-40 614v104v121v122v107v76v28v0v0v0v0h39.5h101h131.5h131.5h101h39.5
v0v0v0v0v0v-39.5v-40.5h-33h-68.5h-82h-74h-44.5v0v0v0v0q-3 0 -20 -15t-41 -38t-47 -46.5t-38.5 -40.5t-15.5 -20v-318h-80zM-40 498h80v-42v-104.5v-125v-104.5v-42v0v0v0v0v0v0v0v0v0v0v0h47h116h138h116h47v-39.5v-40.5v0v0v0v0v0h-39.5h-101h-131.5h-131.5h-101h-39.5
v0v0v0v0v36v92.5v120.5v120.5v92.5v36zM1024 674h-80v42v104.5v125v104.5v42v0v0v0v0v0v0v0v0v0v0v0h-47h-116h-138h-116h-47v40.5v39.5v0v0v0v0v0h39.5h101h131.5h131.5h101h39.5v0v0v0v0v-36v-92.5v-120.5v-120.5v-92.5v-36zM1024 974v-740h-80v92v288v5v5v5v5v261v79h80z
M-40 196v740h80v-91.5v-288.5v-5v-5v-5v-5v-260.5v-79.5h-80zM2 458v146h38v-9.5v-19v-9.5l41.5 -6t103 -15l123 -18t103 -15l41.5 -6l-0.5 -4.5t-2 -13.5t-3.5 -22t-3.5 -21.5t-2 -12.5l-0.5 -4l-40.5 6t-100 14.5l-119 17t-100 14.5l-40.5 6v-7v-14v-7h-38zM982 728v-146
h-38v9.5v19v9.5l-41.5 6t-103 15l-123 18t-103 15l-41.5 6l0.5 4.5t2 13.5t3.5 22t3.5 21.5t2 12.5l0.5 4l40.5 -6t100 -14.5l119 -17t100 -14.5l40.5 -6v7v14v7h38z" />
    <glyph glyph-name="T" unicode="T" 
d="M1100 614h-80v34.5v89v115.5v115.5v89v34.5v0v0v0v0v0v0v0v0v0v0v0v0v0h-36.5h-94h-121.5h-121.5h-94h-36.5v40.5v39.5v0v0v0v0v0h42h108.5h141.5h141.5h108.5h42v0v0v0v0v-40.5v-104v-134.5v-134.5v-104v-40.5zM-40 614v40.5v104v134.5v134.5v104v40.5v0v0v0v0h42h108.5
h141.5h141.5h108.5h42v0v0v0v0v0v-39.5v-40.5h-36.5h-94h-121.5h-121.5h-94h-36.5v0v0v0v0v0v0v0v0v0v0v0v0v0v-34.5v-89v-115.5v-115.5v-89v-34.5h-80zM1100 0v0v0h-160.5h-148.5h-141.5h-139.5v0v0v0v0v0v40.5v39.5h36.5h84.5h84.5h36.5v0v0v0v0v0v0v0v0v0v0v0v0l-8 116
t-7.5 116.5t-7.5 116.5t-7.5 116.5t-7.5 116.5l-8 116h9.5h19h9.5v0v0h9.5h19h9.5l2 -21.5t6 -56.5t8 -77t9 -83t9 -74h21.5h24.5h27h29h29h27h24.5h21.5v79.5v78.5v78.5v79.5h80v-782zM-40 0v782h80v-79.5v-78.5v-78.5v-79.5h21.5h24.5h27h29h29h27h24.5h21.5q4 33 9 74
t9 83t8 77t6 56.5l2 21.5h9.5h19h9.5v0v0h9.5h19h9.5l-8 -116t-7.5 -116.5t-7.5 -116.5t-7.5 -116.5t-7.5 -116.5l-8 -116v0v0v0v0v0v0v0v0v0v0v0v0h36.5h84.5h84.5h36.5v-39.5v-40.5v0v0v0v0v0h-139.5h-141.5h-148.5h-160.5v0v0z" />
    <glyph glyph-name="U" unicode="U" 
d="M-40 558h80v-318q0 -3 15.5 -20t38.5 -40.5t47 -46.5t41 -38t20 -15v0v0v0h34.5h85.5h102h85.5h34.5v-39.5v-40.5v0v0v0v0v0h-52h-111.5h-139h-136.5h-104.5h-40.5v0v0v0v0v40.5v104v134.5v134.5v104v40.5zM1100 558v-40.5v-104v-134.5v-134.5v-104v-40.5v0v0v0v0h-40.5
h-104.5h-136.5h-139h-111.5h-52v0v0v0v0v0v40.5v39.5h34.5h85.5h102h85.5h34.5v0v0v0q3 0 20 15t41 38t47 46.5t38.5 40.5t15.5 20v318h80zM1100 796v-420h-80v31.5v73.5v73.5v31.5v0v0v0v0v31.5v73.5v73.5v31.5h80zM-40 796h80v-31.5v-73.5v-73.5v-31.5v0v0v0v0v-31.5
v-73.5v-73.5v-31.5h-80v420zM1100 614h-80v34.5v89v115.5v115.5v89v34.5v0v0v0v0v0v0v0v0v0v0v0v0v0h-36.5h-94h-121.5h-121.5h-94h-36.5v40.5v39.5v0v0v0v0v0h42h108.5h141.5h141.5h108.5h42v0v0v0v0v-40.5v-104v-134.5v-134.5v-104v-40.5zM-40 614v40.5v104v134.5v134.5
v104v40.5v0v0v0v0h42h108.5h141.5h141.5h108.5h42v0v0v0v0v0v-39.5v-40.5h-36.5h-94h-121.5h-121.5h-94h-36.5v0v0v0v0v0v0v0v0v0v0v0v0v0v-34.5v-89v-115.5v-115.5v-89v-34.5h-80zM498 1100h16h32h16h4.5t2.5 -1t1 -2.5v-4.5v0v0v0v0v0v0v-52.5v-135.5v-176v-176v-135.5
v-52.5q0 -4 -0.5 -5.5t-2 -2t-5.5 -0.5h-16h-32h-16q-4 0 -5.5 0.5t-2 2t-0.5 5.5v52.5v135.5v176v176v135.5v52.5v0v0v0v0v0v0v4.5t1 2.5t2.5 1h4.5z" />
    <glyph glyph-name="V" unicode="V" 
d="M-40 806h80v-31.5v-73.5v-73.5v-31.5v0v0v0v0v-31.5v-73.5v-73.5v-31.5h-80v420zM1100 416l-2 -416v0v0v0v0h-59h-58.5h-54.5h-47h-36h-23h-11h-28h-43.5h-58.5h-74h-89v0v0v0v40.5v39.5h33.5h77.5h77.5h33.5v0v0v0v0q1 0 30 28.5t71 71t83.5 85.5t69.5 72.5t28 30.5v0v0
v0v0v48h80zM-40 416h80v-48v0v0v0v0q0 -1 28 -30.5t69.5 -72.5t83.5 -85.5t71 -71t30 -28.5v0v0v0v0h33.5h77.5h77.5h33.5v-39.5v-40.5v0v0v0h-89h-74h-58.5h-43.5h-27.5h-11.5h-22.5h-36.5h-47h-54.5h-58h-59.5v0v0v0v0zM1100 806v-420h-80v31.5v73.5v73.5v31.5v0v0v0v0
v31.5v73.5v73.5v31.5h80zM1100 614h-80v34.5v89v115.5v115.5v89v34.5v0v0v0v0v0v0v0v0v0v0v0v0v0h-36.5h-94h-121.5h-121.5h-94h-36.5v40.5v39.5v0v0v0v0v0h42h108.5h141.5h141.5h108.5h42v0v0v0v0v-40.5v-104v-134.5v-134.5v-104v-40.5zM-40 614v40.5v104v134.5v134.5v104
v40.5v0v0v0v0h42h108.5h141.5h141.5h108.5h42v0v0v0v0v0v-39.5v-40.5h-36.5h-94h-121.5h-121.5h-94h-36.5v0v0v0v0v0v0v0v0v0v0v0v0v0v-34.5v-89v-115.5v-115.5v-89v-34.5h-80zM498 1100h16h32h16h4.5t2.5 -1t1 -2.5v-4.5v0v0v0v0v0v0v-52.5v-135.5v-176v-176v-135.5v-52.5
q0 -4 -0.5 -5.5t-2 -2t-5.5 -0.5h-16h-32h-16q-4 0 -5.5 0.5t-2 2t-0.5 5.5v52.5v135.5v176v176v135.5v52.5v0v0v0v0v0v0v4.5t1 2.5t2.5 1h4.5z" />
    <glyph glyph-name="W" unicode="W" horiz-adv-x="1260" 
d="M-40 796h80v-31.5v-73.5v-73.5v-31.5v0v0v0v0v-31.5v-73.5v-73.5v-31.5h-80v420zM1300 796v-420h-80v31.5v73.5v73.5v31.5v0v0v0v0v31.5v73.5v73.5v31.5h80zM-40 594v41.5v107.5v140v140v107.5v41.5v0v0v0h48.5h125.5h164h165.5h130.5h56v0v0v0v0v0v0v0v-39.5v-40.5v0v0
h-44h-113.5h-147.5h-147.5h-113.5h-44v0v0v0v0v0v0v0v0v0v0v-50.5v-124.5v-148v-124.5v-50.5h-80zM1300 594h-80v50.5v124.5v148v124.5v50.5v0v0v0v0v0v0v0v0v0v0h-44h-113.5h-147.5h-147.5h-113.5h-44v0v0v40.5v39.5v0v0v0v0v0v0v0h56.5h130h165.5h164h125.5h48.5v0v0v0
v-41.5v-107.5v-140v-140v-107.5v-41.5zM630 0q-13 40 -17.5 84t0 88t17.5 84h6h6l12 -18t30 -44l36 -52t30 -44l12 -18v0v0v0h30h74h88h74h30v0v0v0q3 0 20 15t41 38t47 46.5t38.5 40.5t15.5 20v318h80v-158.5v-177v-222.5v0v0h-48.5h-124.5h-162h-162h-124.5h-48.5v0v0v0v0
v0v0v0v0v0zM630 0v0v0v0v0v0v0v0v0v0h-48.5h-124.5h-162h-162h-124.5h-48.5v0v0v222.5v177v158.5h80v-318q0 -3 15.5 -20t38.5 -40.5t47 -46.5t41 -38t20 -15v0v0v0h30h74h88h74h30v0v0v0l12 18t30 44l36 52t30 44l12 18h6h6q13 -40 17.5 -84t0 -88t-17.5 -84zM534 1092
l-8 -36.5t-20.5 -94t-26.5 -121.5t-26.5 -121.5t-20.5 -94l-8 -36.5v0v0v0v0v0v0l-18.5 4.5l-37 9l-18.5 4.5v0v0v0l7.5 35t19.5 90.5t26 117.5t26 117.5t19.5 90.5l7.5 35v0v0v0v0v0v0v0l12.5 9l25 18l12.5 9v0v0v0l7 -9l14 -18l7 -9v0v0v0v0v0v0v0v0zM728 1092v0v0v0v0v0
v0v0v0l7 9l14 18l7 9v0v0v0l12.5 -9l25 -18l12.5 -9v0v0v0v0v0v0v0l7.5 -35t19.5 -90.5t26 -117.5t26 -117.5t19.5 -90.5l7.5 -35v0v0v0l-18.5 -4.5l-37 -9l-18.5 -4.5v0v0v0v0v0v0l-8 36.5t-20.5 94t-26.5 121.5t-26.5 121.5t-20.5 94z" />
    <glyph glyph-name="X" unicode="X" 
d="M1100 954v-740h-80v92v288v5v5v5v5v261v79h80zM-40 954h80v-79v-261v-5v-5v-5v-5v-288v-92h-80v740zM-40 558h80v-34.5v-89v-115.5v-115.5v-89v-34.5v0v0v0v0v0v0v0v0v0v0v0v0v0h36.5h94h121.5h121.5h94h36.5v-39.5v-40.5v0v0v0v0v0h-42h-108.5h-141.5h-141.5h-108.5h-42
v0v0v0v0v40.5v104v134.5v134.5v104v40.5zM1100 558v-40.5v-104v-134.5v-134.5v-104v-40.5v0v0v0v0h-42h-108.5h-141.5h-141.5h-108.5h-42v0v0v0v0v0v40.5v39.5h36.5h94h121.5h121.5h94h36.5v0v0v0v0v0v0v0v0v0v0v0v0v0v34.5v89v115.5v115.5v89v34.5h80zM40 480
q-7 36 -11 63.5t-4 51t4 49t11 56.5v0l21.5 -11.5t53.5 -28l64 -33t53.5 -28l21.5 -11.5v0v0v0v0l-21.5 -11t-53.5 -27l-64 -32t-53.5 -27l-21.5 -11v0zM1020 480v0l-21.5 11t-53.5 27l-64 32t-53.5 27l-21.5 11v0v0v0v0l21.5 11.5t53.5 28l64 33t53.5 28l21.5 11.5v0
q8 -31 11.5 -56.5t3.5 -49t-3.5 -51t-11.5 -63.5zM1100 614h-80v34.5v89v115.5v115.5v89v34.5v0v0v0v0v0v0v0v0v0v0v0v0v0h-36.5h-94h-121.5h-121.5h-94h-36.5v40.5v39.5v0v0v0v0v0h42h108.5h141.5h141.5h108.5h42v0v0v0v0v-40.5v-104v-134.5v-134.5v-104v-40.5zM-40 614
v40.5v104v134.5v134.5v104v40.5v0v0v0v0h42h108.5h141.5h141.5h108.5h42v0v0v0v0v0v-39.5v-40.5h-36.5h-94h-121.5h-121.5h-94h-36.5v0v0v0v0v0v0v0v0v0v0v0v0v0v-34.5v-89v-115.5v-115.5v-89v-34.5h-80zM498 498h16h32h16q4 0 5.5 -0.5t2 -2t0.5 -5.5v-41v-102v-122v-102
v-41v0v0v0v0v0q0 -6 -1 -7t-7 -1h-9.5h-22.5h-22.5h-9.5q-4 0 -5.5 0.5t-2 2t-0.5 5.5v0v0v0v0v0v41v102v122v102v41q0 4 0.5 5.5t2 2t5.5 0.5zM564 674h-16h-32h-16q-4 0 -5.5 0.5t-2 2t-0.5 5.5v41v102v122v102v41v0v0v0v0v0q0 6 1 7t7 1h9.5h22.5h22.5h9.5q4 0 5.5 -0.5
t2 -2t0.5 -5.5v0v0v0v0v0v-41v-102v-122v-102v-41q0 -4 -0.5 -5.5t-2 -2t-5.5 -0.5z" />
    <glyph glyph-name="Y" unicode="Y" 
d="M1100 558v-40.5v-104v-134.5v-134.5v-104v-40.5v0v0v0v0h-40.5h-104.5h-136.5h-139h-111.5h-52v0v0v0v0v0v40.5v39.5h34.5h85.5h102h85.5h34.5v0v0v0q3 0 20 15t41 38t47 46.5t38.5 40.5t15.5 20v318h80zM1100 796v-420h-80v31.5v73.5v73.5v31.5v0v0v0v0v31.5v73.5v73.5
v31.5h80zM1100 614h-80v34.5v89v115.5v115.5v89v34.5v0v0v0v0v0v0v0v0v0v0v0v0h-36.5h-94h-121.5h-121.5h-94h-36.5v40.5v39.5v0v0v0v0v0h42h108.5h141.5h141.5h108.5h42v0v0v0v0v-40.5v-104v-134.5v-134.5v-104v-40.5zM-40 614v40.5v104v134.5v134.5v104v40.5v0v0v0v0h42
h108.5h141.5h141.5h108.5h42v0v0v0v0v0v-39.5v-40.5h-36.5h-94h-121.5h-121.5h-94h-36.5v0v0v0v0v0v0v0v0v0v0v0v0v-34.5v-89v-115.5v-115.5v-89v-34.5h-80zM196 422h27h69h90h90h69h27v-10.5v-21v-10.5v-9.5v-19v-9.5h-67.5h-95h-108h-108h-95.5h-70v0v0v0v53.5v87.5v97v82
v42h16v-35v-48v-59q0 -3 15 -18t37 -35.5t45 -40.5t39.5 -33t19.5 -13zM-40 558h80v-34.5v-89v-115.5v-115.5v-89v-34.5v0v0v0v0v0v0v0v0v0v0v0v0h36.5h94h121.5h121.5h94h36.5v-39.5v-40.5v0v0v0v0v0h-42h-108.5h-141.5h-141.5h-108.5h-42v0v0v0v0v40.5v104v134.5v134.5
v104v40.5zM-40 378v420h80v-31.5v-73.5v-73.5v-31.5v0v0v0v0v-31.5v-73.5v-73.5v-31.5h-80zM500 1108h16h32h16h4.5t2.5 -1t1 -2.5v-4.5v0v0v0v0v0v-31v-79.5v-103.5v-103.5v-79.5v-31q0 -4 -0.5 -5.5t-2 -2t-5.5 -0.5h-16h-32h-16q-4 0 -5.5 0.5t-2 2t-0.5 5.5v31v79.5
v103.5v103.5v79.5v31v0v0v0v0v0v4.5t1 2.5t2.5 1h4.5z" />
    <glyph glyph-name="Z" unicode="Z" horiz-adv-x="984" 
d="M-40 498h80v-42v-104.5v-125v-104.5v-42v0v0v0v0v0v0v0v0v0v0v0h47h116h138h116h47v-39.5v-40.5v0v0v0v0v0h-39.5h-101h-131.5h-131.5h-101h-39.5v0v0v0v0v36v92.5v120.5v120.5v92.5v36zM1024 674h-80v42v104.5v125v104.5v42v0v0v0v0v0v0v0v0v0v0v0h-47h-116h-138h-116
h-47v40.5v39.5v0v0v0v0v0h39.5h101h131.5h131.5h101h39.5v0v0v0v0v-36v-92.5v-120.5v-120.5v-92.5v-36zM1024 498v-36v-92.5v-120.5v-120.5v-92.5v-36v0v0v0v0h-39.5h-101h-131.5h-131.5h-101h-39.5v0v0v0v0v0v40.5v39.5h47h116h138h116h47v0v0v0v0v0v0v0v0v0v0v0v42v104.5
v125v104.5v42h80zM-40 674v36v92.5v120.5v120.5v92.5v36v0v0v0v0h39.5h101h131.5h131.5h101h39.5v0v0v0v0v0v-39.5v-40.5h-47h-116h-138h-116h-47v0v0v0v0v0v0v0v0v0v0v0v-42v-104.5v-125v-104.5v-42h-80zM1024 196h-80v79.5v260.5v5v5v5v5v288.5v91.5h80v-740zM-40 196v740
h80v-91.5v-288.5v-5v-5v-5v-5v-260.5v-79.5h-80zM0 742h38v-7v-14v-7l40.5 6t100 14.5l119 17t100 14.5l40.5 6l0.5 -4t2 -12.5t3.5 -21.5t3.5 -22t2 -13.5l0.5 -4.5l-41.5 -6t-103 -15l-123 -18t-103 -15l-41.5 -6v-9.5v-19v-9.5h-38v146zM982 418h-38v7v14v7l-40.5 -6
t-100 -14.5l-119 -17t-100 -14.5l-40.5 -6l-0.5 4t-2 12.5t-3.5 21.5t-3.5 22t-2 13.5l-0.5 4.5l41.5 6t103 15l123 18t103 15l41.5 6v9.5v19v9.5h38v-146z" />
    <glyph glyph-name="bracketleft" unicode="[" horiz-adv-x="542" 
d="M-40 516v100v151v176v176v152.5v102.5v0v0v0v0h32.5h80.5h97h83.5h38.5v0v0v0v-20v-40v-20h-38h-88h-88h-38v0v0v-328v-219.5v-133v-68v-25v-4.5v0v0v0v0h-80zM582 516h-80v79.5v123.5v131.5v104.5v41v0v0v0v2v11v27.5v51v83.5v123v0v0h-35h-81h-81h-35v20v40v20v0v0v0
h35.5h78.5h91.5h76h30.5v0v0v0v0v-53v-138.5v-186.5v-198v-172.5v-109.5zM384 1028h26h60h60h26l-2 -512h-170v38.5v107.5v162.5v203.5v0v0zM582 656v-109.5v-172.5v-198v-186.5v-138.5v-53v0v0v0v0h-30.5h-76h-91.5h-78.5h-35.5v0v0v0v20v40v20h35h81h81h35v0v0v123.5v83
v51v27.5v11v2v0v0v0v41v104.5v131.5v123.5v79.5h80zM384 144v0v0v203.5v162.5v107.5v38.5h170l2 -512h-26h-60h-60h-26zM-40 656h80v0v0v0v0v-4.5v-25v-68v-133v-219v-328.5v0v0h38h88h88h38v-20v-40v-20v0v0v0h-38.5h-83.5h-97h-80.5h-32.5v0v0v0v0v103v152v176v176v151
v100z" />
    <glyph glyph-name="backslash" unicode="\" horiz-adv-x="542" 
d="M582 1374v-1576v0v0h-32h-79h-94h-79h-32v0v0v0v0v0v20v40v20h74.5h59.5h51h49v0v0l-4.5 59.5t-12.5 161t-17.5 227.5t-19.5 260t-19.5 260t-17.5 227.5t-12.5 161l-4.5 59.5v0v0h-47.5h-46.5h-39.5h-28.5v20v40v20v0v0v0v0v0h35.5h88h105h88h35.5v0v0v0zM-40 -202v1576
v0v0h32h79h94h79h32v0v0v0v0v0v-20v-40v-20h-74.5h-59.5h-51h-49v0v0l4.5 -59.5t12.5 -161t17.5 -227.5t19.5 -260t19.5 -260t17.5 -227.5t12.5 -161l4.5 -59.5v0v0h47.5h46.5h40h28v-20v-40v-20v0v0v0v0v0h-35.5h-88h-105h-88h-35.5v0v0v0z" />
    <glyph glyph-name="bracketright" unicode="]" horiz-adv-x="542" 
d="M582 516h-80v0v0v0v0v4.5v25v68v133v219.5v328v0v0h-38h-88h-88h-38v20v40v20v0v0v0h38.5h83.5h97h80.5h32.5v0v0v0v0v-102.5v-152.5v-176v-176v-151v-100zM-40 516v109.5v172.5v198v186.5v138.5v53v0v0v0v0h30.5h76h91.5h78.5h35.5v0v0v0v-20v-40v-20h-35h-81h-81h-35v0
v0v-123v-83.5v-51v-27.5v-11v-2v0v0v0v-41v-104.5v-131.5v-123.5v-79.5h-80zM158 1028v0v0v-203.5v-162.5v-107.5v-38.5h-170l-2 512h26h60h60h26zM-40 656h80v-79.5v-123.5v-131.5v-104.5v-41v0v0v0v-2v-11v-27.5v-51v-83v-123.5v0v0h35h81h81h35v-20v-40v-20v0v0v0h-35.5
h-78.5h-91.5h-76h-30.5v0v0v0v0v53v138.5v186.5v198v172.5v109.5zM158 144h-26h-60h-60h-26l2 512h170v-38.5v-107.5v-162.5v-203.5v0v0zM582 656v-100v-151v-176v-176v-152v-103v0v0v0v0h-32.5h-80.5h-97h-83.5h-38.5v0v0v0v20v40v20h38h88h88h38v0v0v328.5v219v133v68v25
v4.5v0v0v0v0h80z" />
    <glyph glyph-name="asciicircum" unicode="^" horiz-adv-x="1018" 
d="M478 584v0v0v0h64v0v0v0v-67v-65v-65v-66.5v-68.5v0v0v0h262v0v0v0v0l-134 576v0v0h-322v0v0l-132 -576v0v0v0v0h262v0v0v0v68.5v66.5v65v65v67zM-40 -2v0v0v0v0v0v0v0v0v63.5v168.5v230v250v230v168.5v63.5v0v0v0v0v0v0v0v0h110.5h123.5h121h104.5h73.5h27v0v0v0v0v0v0
h26h70h100h116.5h119h106.5v0v0v0v0v0v0v0v0v-63.5v-168.5v-230v-250v-230v-168.5v-63.5v0v0v0v0v0v0v0v0h-106h-118.5h-116.5h-100.5h-70.5h-26v0v0v0v0v0v0h-27h-73h-103.5h-120.5h-124h-112z" />
    <glyph glyph-name="underscore" unicode="_" horiz-adv-x="764" 
d="M724 -98v108v108v0v0v0v0h-168.5h-103h-57h-31.5h-28.5h-49h-91h-155.5v0v0v0v0v-57v-159h-80v296h140h137.5h91.5h35v0v0v0v0v0h38.5h103.5h158h140v-296h-80zM724 94h80v-296h-140h-158h-103.5h-38.5v0v0v0v0v0h-35h-91.5h-137.5h-140v296h80v-159v-57v0v0v0v0h155.5
h91h49h28.5h31.5h57h103h168.5v0v0v0v0v108v108zM-40 120h80v-24v-96v0v0v0v0v-89.5v-27v-17.5h-80v254zM804 120v-254h-80v17.5v27v89.5v0v0v0v0v96v24h80z" />
    <glyph glyph-name="grave" unicode="`" horiz-adv-x="988" 
d="M860 928h-80v33.5v32.5v48v0v0l-41.5 4t-106.5 9.5t-138 12.5t-138 12.5t-106.5 9.5l-41.5 4v0v0v-68v-42.5v-29v-26.5h-80v20v30.5v47v69.5v99v0v0l53 -6t136 -15.5t177 -19.5t177 -19.5t136 -15.5l53 -6v0v0v-92v-53.5v-26.5v-12z" />
    <glyph glyph-name="a" unicode="a" horiz-adv-x="984" 
d="M-40 558h80v-318q0 -3 15.5 -20t38.5 -40.5t47 -46.5t41 -38t20 -15v0v0v0v0h44.5h74h82h68.5h33v-39.5v-40.5v0v0v0v0v0h-39.5h-101h-131.5h-131.5h-101h-39.5v0v0v0v0v28v76v107v121.5v121.5v104zM-40 470v36v92.5v120.5v120.5v92.5v36v0v0v0v0h39.5h101h131.5h131.5
h101h39.5v0v0v0v0v0v-39.5v-40.5h-47h-116h-138h-116h-47v0v0v0v0v0v0v0v0v0v0v0v-42v-104.5v-125v-104.5v-42h-80zM1024 410h-80v318q0 3 -15.5 20t-38.5 40.5t-47 46.5t-41 38t-20 15v0v0v0v0h-44.5h-74h-82h-68.5h-33v40.5v39.5v0v0v0v0v0h39.5h101h131.5h131.5h101h39.5
v0v0v0v0v-28v-76v-107v-122v-121v-104zM1024 498v-36v-92.5v-120.5v-120.5v-92.5v-36v0v0v0v0h-39.5h-101h-131.5h-131.5h-101h-39.5v0v0v0v0v0v40.5v39.5h47h116h138h116h47v0v0v0v0v0v0v0v0v0v0v0v42v104.5v125v104.5v42h80zM1024 256h-80v88v63.5v78.5v0v0v0v0v76v43.5
v41v69.5h80v-460zM370 314v0v0v0v0v0v0v0q-6 0 -7 1t-1 7v21.5v21v21.5q0 6 1 7t7 1v0v0v0v0v0v0v0h37.5h86.5h86.5h37.5v0v0q6 0 7 -1t1 -7v-21.5v-21v-21.5q0 -6 -1 -7t-7 -1v0v0h-37.5h-86.5h-86.5h-37.5zM2 628h38v-7v-14v-7l40.5 6t100 14.5l119 17t100 14.5l40.5 6
l0.5 -4t2 -12.5t3.5 -21.5t3.5 -22t2 -13.5l0.5 -4.5l-41.5 -6t-103 -15l-123 -18t-103 -15l-41.5 -6v-9.5v-19v-9.5h-38v146z" />
    <glyph glyph-name="b" unicode="b" 
d="M1100 716v-460h-80v69.5v41v43.5v76v0v0v0v0v78.5v63.5v88h80zM1100 558v-40.5v-104v-134.5v-134.5v-104v-40.5v0v0v0v0h-40.5h-104.5h-136.5h-139h-111.5h-52v0v0v0v0v0v40.5v39.5h34.5h85.5h102h85.5h34.5v0v0v0q3 0 20 15t41 38t47 46.5t38.5 40.5t15.5 20v318h80z
M-40 592v580h31.5h78h93.5h80h35v0v0v0v0v0v0v0v0v0v0h33.5h76.5h89.5h74.5h30v-204h25h46.5h58.5h76h80.5h99.5h132v0v-394h-80v154v0v0q0 3 -15 20t-38 40.5t-46.5 46.5t-41 38t-21.5 15v0v0v0h-61.5h-92h-96.5h-76h-30v0v0v0v0v204v0v0h-34h-78h-78h-34h-36h-83h-83h-36
v0v0v-500h-80zM-40 558h80v-34.5v-89v-115.5v-115.5v-89v-34.5v0v0v0v0v0v0v0v0v0v0v0v0v0h36.5h94h121.5h121.5h94h36.5v-39.5v-40.5v0v0v0v0v0h-42h-108.5h-141.5h-141.5h-108.5h-42v0v0v0v0v40.5v104v134.5v134.5v104v40.5zM-40 716h80v-88v-63.5v-78.5v0v0v0v0v-76
v-43.5v-41v-69.5h-80v460zM490 362v37.5v86.5v86.5v37.5v0v0q0 6 1 7t7 1h21.5h21h21.5q6 0 7 -1t1 -7v0v0v-37.5v-86.5v-86.5v-37.5v0v0v0v0v0v0v0q0 -6 -1 -7t-7 -1h-31.5h-32.5q-6 0 -7 1t-1 7v0v0v0v0v0v0v0z" />
    <glyph glyph-name="c" unicode="c" horiz-adv-x="984" 
d="M-40 558h80v-318q0 -3 15.5 -20t38.5 -40.5t47 -46.5t41 -38t20 -15v0v0v0v0h44.5h74h82h68.5h33v-39.5v-40.5v0v0v0v0v0h-39.5h-101h-131.5h-131.5h-101h-39.5v0v0v0v0v28v76v107v121.5v121.5v104zM-40 410v104v121v122v107v76v28v0v0v0v0h39.5h101h131.5h131.5h101
h39.5v0v0v0v0v0v-39.5v-40.5h-33h-68.5h-82h-74h-44.5v0v0v0v0q-3 0 -20 -15t-41 -38t-47 -46.5t-38.5 -40.5t-15.5 -20v-318h-80zM-40 256v460h80v-69.5v-41v-43.5v-76v0v0v0v0v-78.5v-63.5v-88h-80zM558 518q0 4 0.5 5.5t2 2t5.5 0.5h41h102h122h102h41v0v0v0v0v0
q4 0 5.5 -0.5t2 -2t0.5 -5.5v-6.5v-16v-19v-16v-6.5q0 -6 -1 -7t-7 -1v0v0v0v0v0h-41h-102h-122h-102h-41q-4 0 -5.5 0.5t-2 2t-0.5 5.5v16v32v16zM1024 498v-36v-92.5v-120.5v-120.5v-92.5v-36v0v0v0v0h-39.5h-101h-131.5h-131.5h-101h-39.5v0v0v0v0v0v40.5v39.5h47h116
h138h116h47v0v0v0v0v0v0v0v0v0v0v0v42v104.5v125v104.5v42h80zM1024 470h-80v42v104.5v125v104.5v42v0v0v0v0v0v0v0v0v0v0v0h-47h-116h-138h-116h-47v40.5v39.5v0v0v0v0v0h39.5h101h131.5h131.5h101h39.5v0v0v0v0v-36v-92.5v-120.5v-120.5v-92.5v-36z" />
    <glyph glyph-name="d" unicode="d" 
d="M-40 716h80v-88v-63.5v-78.5v0v0v0v0v-76v-43.5v-41v-69.5h-80v460zM1100 716v-460h-80v69.5v41v43.5v76v0v0v0v0v78.5v63.5v88h80zM-40 558h80v-318q0 -3 15.5 -20t38.5 -40.5t47 -46.5t41 -38t20 -15v0v0v0h34.5h85.5h102h85.5h34.5v-39.5v-40.5v0v0v0v0v0h-52h-111.5
h-139h-136.5h-104.5h-40.5v0v0v0v0v40.5v104v134.5v134.5v104v40.5zM1100 592h-80v500v0v0h-36h-83h-83h-36h-34h-78h-78h-34v0v0v-204v0v0v0v0h-30h-76h-96.5h-92h-61.5v0v0v0q-4 0 -21.5 -15t-41 -38t-46.5 -46.5t-38 -40.5t-15 -20v0v0v-154h-80v394v0h132.5h99h80.5h76
h58.5h46.5h25v204h30h74.5h89.5h76.5h33.5v0v0v0v0v0v0v0v0v0v0h35h80h93.5h78h31.5v-580zM1100 558v-40.5v-104v-134.5v-134.5v-104v-40.5v0v0v0v0h-42h-108.5h-141.5h-141.5h-108.5h-42v0v0v0v0v0v40.5v39.5h36.5h94h121.5h121.5h94h36.5v0v0v0v0v0v0v0v0v0v0v0v0v0v34.5
v89v115.5v115.5v89v34.5h80zM490 362v37.5v86.5v86.5v37.5v0v0q0 6 1 7t7 1h21.5h21h21.5q6 0 7 -1t1 -7v0v0v-37.5v-86.5v-86.5v-37.5v0v0v0v0v0v0v0q0 -6 -1 -7t-7 -1h-31.5h-32.5q-6 0 -7 1t-1 7v0v0v0v0v0v0v0z" />
    <glyph glyph-name="e" unicode="e" horiz-adv-x="984" 
d="M-40 410v104v121v122v107v76v28v0v0v0v0h39.5h101h131.5h131.5h101h39.5v0v0v0v0v0v-39.5v-40.5h-33h-68.5h-82h-74h-44.5v0v0v0v0q-3 0 -20 -15t-41 -38t-47 -46.5t-38.5 -40.5t-15.5 -20v-318h-80zM-40 714h80v-88v-63.5v-78.5v0v0v0v0v-76v-43.5v-41v-69.5h-80v460z
M-40 558h80v-318q0 -3 15.5 -20t38.5 -40.5t47 -46.5t41 -38t20 -15v0v0v0v0h44.5h74h82h68.5h33v-39.5v-40.5v0v0v0v0v0h-39.5h-101h-131.5h-131.5h-101h-39.5v0v0v0v0v28v76v107v121.5v121.5v104zM1024 410h-80v318q0 3 -15.5 20t-38.5 40.5t-47 46.5t-41 38t-20 15v0v0v0
v0h-44.5h-74h-82h-68.5h-33v40.5v39.5v0v0v0v0v0h39.5h101h131.5h131.5h101h39.5v0v0v0v0v-28v-76v-107v-122v-121v-104zM1024 498v-36v-92.5v-120.5v-120.5v-92.5v-36v0v0v0v0h-39.5h-101h-131.5h-131.5h-101h-39.5v0v0v0v0v0v40.5v39.5h47h116h138h116h47v0v0v0v0v0v0v0v0
v0v0v0v42v104.5v125v104.5v42h80zM620 642v0v0v0v0v0v0v0q6 0 7 -1t1 -7v-21.5v-21v-21.5q0 -6 -1 -7t-7 -1v0v0v0v0v0v0v0h-37.5h-86.5h-86.5h-37.5v0v0q-6 0 -7 1t-1 7v21.5v21v21.5q0 6 1 7t7 1v0v0h37.5h86.5h86.5h37.5zM982 326h-38v7v14v7l-40.5 -6t-100 -14.5
l-119 -17t-100 -14.5l-40.5 -6l-0.5 4t-2 12.5t-3.5 21.5t-3.5 22t-2 13.5l-0.5 4.5l41.5 6t103 15l123 18t103 15l41.5 6v9.5v19v9.5h38v-146z" />
    <glyph glyph-name="f" unicode="f" horiz-adv-x="764" 
d="M480 770q0 4 0.5 5.5t2 2t5.5 0.5h31h77h92h77h31v0v0v0v0v0q6 0 7 -1t1 -7v-6.5v-16v-19v-16v-6.5q0 -6 -1 -7t-7 -1v0v0v0v0v0h-31h-77h-92h-77h-31q-4 0 -5.5 0.5t-2 2t-0.5 5.5v16v32v16zM-40 614v91.5v91.5v92.5v93v94v95.5v0v0h44h109h130h109h44v0v0v0v0v0v-39.5
v-40.5h-20h-41h-50.5h-48.5h-34v0v0v0q-3 0 -20 -15t-41 -38t-47 -46.5t-38.5 -40.5t-15.5 -20v-318h-80zM804 614h-80v48.5v119.5v142v119.5v48.5v0v0v0v0v0v0v0v0v0v0v0h-36h-89h-106h-89h-36v40.5v39.5v0v0v0v0v0h44h109h130h109h44v0v0v0v-40.5v-104v-134.5v-134.5v-104
v-40.5zM368 0v0v0v0v0v0h-44h-102.5h-120.5h-100.5h-40.5v0v0v0v149v145.5v132v109.5h80v-456v0v0v0v0v0v0h33.5h77.5h77.5h33.5h34.5h79.5h79.5h34.5v0v0v0v0v28.5v70.5v84v70.5v28.5v0v0v0v0v0h35.5h81.5h81.5h35.5v0v0v0v26v64v76v64v26v0v0h80v-73v-96.5v-166.5v-282v0
v0h-43.5h-107.5h-128.5h-109.5h-47v0v0v0v0v0zM-40 716h80v-88v-63.5v-78.5v0v0v0v0v-76v-43.5v-41v-69.5h-80v460z" />
    <glyph glyph-name="g" unicode="g" 
d="M1100 410h-80v318q0 3 -15.5 20t-38.5 40.5t-47 46.5t-41 38t-20 15v0v0v0h-34.5h-85.5h-102h-85.5h-34.5v40.5v39.5v0v0v0v0v0h52h111.5h139h136.5h104.5h40.5v0v0v0v0v-40.5v-104v-134.5v-134.5v-104v-40.5zM-40 410v40.5v104v134.5v134.5v104v40.5v0v0v0v0h40.5h104.5
h136.5h139h111.5h52v0v0v0v0v0v-39.5v-40.5h-34.5h-85.5h-102h-85.5h-34.5v0v0v0q-3 0 -20 -15t-41 -38t-47 -46.5t-38.5 -40.5t-15.5 -20v-318h-80zM492 424v37.5v86.5v86.5v37.5v0v0q0 6 1 7t7 1h21.5h21h21.5q6 0 7 -1t1 -7v0v0v-37.5v-86.5v-86.5v-37.5v0v0v0v0v0v0v0
q0 -6 -1 -7t-7 -1h-31.5h-32.5q-6 0 -7 1t-1 7v0v0v0v0v0v0v0zM1100 354v-40.5v-104v-134.5v-134.5v-104v-40.5v0v0v0v0h-40.5h-104.5h-136.5h-139h-111.5h-52v0v0v0v0v0v40.5v39.5h34.5h85.5h102h85.5h34.5v0v0v0q3 0 20 15t41 38t47 46.5t38.5 40.5t15.5 20v318h80z
M1100 154h-80v88v63.5v78.5v0v0v0v0v76v43.5v41v69.5h80v-460zM196 210h27h69h90h90h69h27v-10.5v-21v-10.5v-9.5v-19v-9.5h-67.5h-95h-108h-108h-95.5h-70v0v0v0v53.5v87.5v97v82v42h16v-35v-48v-59q0 -3 15 -18t37 -35.5t45 -40.5t39.5 -33t19.5 -13zM-40 354h80v-34.5
v-89v-115.5v-115.5v-89v-34.5v0v0v0v0v0v0v0v0v0v0v0v0h36.5h94h121.5h121.5h94h36.5v-39.5v-40.5v0v0v0v0v0h-42h-108.5h-141.5h-141.5h-108.5h-42v0v0v0v0v40.5v104v134.5v134.5v104v40.5zM-40 152v460h80v-69.5v-41v-43.5v-76v0v0v0v0v-78.5v-63.5v-88h-80z" />
    <glyph glyph-name="h" unicode="h" 
d="M1100 558v-40.5v-104v-134.5v-134.5v-104v-40.5v0v0v0v0h-42h-108.5h-141.5h-141.5h-108.5h-42v0v0v0v0v0v40.5v39.5h36.5h94h121.5h121.5h94h36.5v0v0v0v0v0v0v0v0v0v0v0v0v0v34.5v89v115.5v115.5v89v34.5h80zM-40 558h80v-34.5v-89v-115.5v-115.5v-89v-34.5v0v0v0v0v0
v0v0v0v0v0v0v0v0h36.5h94h121.5h121.5h94h36.5v-39.5v-40.5v0v0v0v0v0h-42h-108.5h-141.5h-141.5h-108.5h-42v0v0v0v0v40.5v104v134.5v134.5v104v40.5zM-40 592v580h31.5h78h93.5h80h35v0v0v0v0v0v0v0v0v0v0h33.5h76.5h89.5h74.5h30v-204h25h46.5h58.5h76h80.5h99.5h132v0
v-394h-80v154v0v0q0 3 -15 20t-38 40.5t-46.5 46.5t-41 38t-21.5 15v0v0v0h-61.5h-92h-96.5h-76h-30v0v0v0v0v204v0v0h-34h-78h-78h-34h-36h-83h-83h-36v0v0v-500h-80zM-40 716h80v-88v-63.5v-78.5v0v0v0v0v-76v-43.5v-41v-69.5h-80v460zM1100 256h-80v88v63.5v78.5v0v0v0v0
v76v43.5v41v69.5h80v-460zM498 66h-4.5t-2.5 1t-1 2.5v4.5v0v0v0v0v0v31v79.5v103.5v103.5v79.5v31q0 4 0.5 5.5t2 2t5.5 0.5h16h32h16q4 0 5.5 -0.5t2 -2t0.5 -5.5v-31v-79.5v-103.5v-103.5v-79.5v-31v0v0v0v0v0v-4.5t-1 -2.5t-2.5 -1h-4.5h-16h-32h-16z" />
    <glyph glyph-name="i" unicode="i" horiz-adv-x="542" 
d="M582 498v-89.5v-101v-106v-104.5v-97h-31.5h-78h-93h-78h-31.5v0v0v0v0q-7 15 -7 40t7 40h47h55.5h62.5h67v0v0v0v0v0v0v0v0v42v104.5v125v104.5v42h80zM-40 498h80v-42v-104.5v-125v-104.5v-42v0v0v0v0v0v0v0v0h67.5h62h55.5h47q8 -15 8 -40t-8 -40v0v0v0v0h-31.5h-78
h-93h-78h-31.5v97v104.5v106v101v89.5zM-40 716h80v-88v-63.5v-78.5v0v0v0v0v-76v-43.5v-41v-69.5h-80v460zM582 716v-460h-80v69.5v41v43.5v76v0v0v0v0v78.5v63.5v88h80zM582 674h-80v42v104.5v125v104.5v42v0v0v0v0v0v0v0v0h-67h-62.5h-55.5h-47q-7 15 -7 40t7 40v0v0v0v0
h31.5h78h93h78h31.5v-97v-104.5v-106v-101v-89.5zM-40 674v89.5v101v106v104.5v97h31.5h78h93h78h31.5v0v0v0v0q8 -15 8 -40t-8 -40h-47h-55.5h-62h-67.5v0v0v0v0v0v0v0v0v-42v-104.5v-125v-104.5v-42h-80zM582 614h-80v61.5v58.5v43.5v16.5v0v0v3v12.5v30v54.5v0v0h-34.5
h-80.5h-80.5h-34.5v11.5v26.5v26.5v11.5h31h42.5h61.5h87h21h27h18h7.5h7h7.5v-79v-101v-100v-76zM-40 614v76v100v101v79h7.5h7h7.5h18h27h21h61.5h49h39h31h24h19.5v-11.5v-26.5v-26.5v-11.5h-23.5h-58h-69h-58h-23.5v0v0v-54.5v-30v-12.5v-3v0v0v-16.5v-43.5v-58.5v-61.5
h-80z" />
    <glyph glyph-name="j" unicode="j" horiz-adv-x="542" 
d="M-40 716h80v-88v-63.5v-78.5v0v0v0v0v-76v-43.5v-41v-69.5h-80v460zM582 716v-460h-80v69.5v41v43.5v76v0v0v0v0v78.5v63.5v88h80zM582 614h-80v61.5v58.5v43.5v16.5v0v0v3v12.5v30v54.5v0v0h-34.5h-80.5h-80.5h-34.5v11.5v26.5v26.5v11.5h31h42.5h61.5h87h21h27h18h7.5
h7h7.5v-79v-101v-100v-76zM-40 614v76v100v101v79h7.5h7h7.5h18h27h21h61.5h49h39h31h24h19.5v-11.5v-26.5v-26.5v-11.5h-23.5h-58h-69h-58h-23.5v0v0v-54.5v-30v-12.5v-3v0v0v-16.5v-43.5v-58.5v-61.5h-80zM582 674h-80v42v104.5v125v104.5v42v0v0v0v0v0v0v0v0h-67h-62.5
h-55.5h-47q-7 15 -7 40t7 40v0v0v0v0h31.5h78h93h78h31.5v-97v-104.5v-106v-101v-89.5zM-40 674v89.5v101v106v104.5v97h31.5h78h93h78h31.5v0v0v0v0q8 -15 8 -40t-8 -40h-47h-55.5h-62h-67.5v0v0v0v0v0v0v0v0v-42v-104.5v-125v-104.5v-42h-80zM582 274v-236v-24.5v-60.5
v-72v-60.5v-24.5h-30.5h-76h-91.5h-78.5h-35.5v0v0v0v0v0v0v0v0v0v0v0h-35h-78h-91h-75.5h-30.5v478h80v-398v0v0v0h30.5h75h89h75h30.5q3 0 20 15t41 38t47 46.5t38.5 40.5t15.5 20v238h80z" />
    <glyph glyph-name="k" unicode="k" 
d="M490 426h6h15h19h20.5h15.5h6v-55.5v-88.5v-95.5v-76.5v-30v0v0v0h32.5h83.5h108h108h83.5h32.5v0v0v0v31.5v68v50.5v21.5v26v39.5v61v0v0v0v21v49v49v21h80v-108.5v-126v-138v-145.5v0v0v0v0v0v0v0v0h-43h-111h-145h-146.5h-115h-49.5v0v0v0v0v0v0v0v12v28v28v12v0v0v0
v79.5v77v71.5v64v54zM-40 558h80v-34.5v-89v-115.5v-115.5v-89v-34.5v0v0v0v0v0v0v0v0v0v0v0v0v0h36.5h94h121.5h121.5h94h36.5v-39.5v-40.5v0v0v0v0v0h-42h-108.5h-141.5h-141.5h-108.5h-42v0v0v0v0v40.5v104v134.5v134.5v104v40.5zM-40 576v596h31h77.5h93.5h80h36v0v0v0
v0v0v0v0v0v0v0h33h73.5h86h71h28.5v-204h84h84h84h28h69.5h83h69.5h28v0v0v0v0v-394h-80v314v0v0v0v0v0v0v0h-32.5h-83.5h-108.5h-109h-84h-32.5v0v0v0v-25.5v-63.5v-76v-63.5v-25.5h-20h-20h-20h-20v46.5v114.5v136v114.5v46.5v0v0v0h-32h-74h-74h-32h-36h-83h-83h-36v0v0
v-516h-80zM880 504v0v0l21 17t49 40t49 40l21 17v100h38h42v-43v-107v-128v-107v-43h-42h-38v100l-21 17t-49 40t-49 40l-21 17v0v0zM-40 716h80v-88v-63.5v-78.5v0v0v0v0v-76v-43.5v-41v-69.5h-80v460z" />
    <glyph glyph-name="l" unicode="l" horiz-adv-x="542" 
d="M582 718v-460h-80v69.5v41v43.5v76v0v0v0v0v78.5v63.5v88h80zM-40 656v516h31.5h78.5h94.5h81h36.5v0v0v0v0v0v0v0v0v0h34.5h75.5h87.5h73h29.5v-516h-80v436v0v0h-114.5h-66h-39.5h-36.5h-84.5h-84.5h-36.5v0v0v-436h-80zM-40 884h80v-79v-261v-5v-5v-5v-5v-288v-92h-80
v740zM-40 538h80v-298q0 -3 15.5 -20t38.5 -40.5t47 -46.5t41 -38t20 -15h30.5h75h89h75h30.5v0v0v0v84.5v84.5v84.5v84.5v120h80v-538h-31h-76.5h-92h-79h-35.5v0v0v0v0v0v0v0v0v0v0h-35h-77.5h-90h-75h-30.5v538z" />
    <glyph glyph-name="m" unicode="m" horiz-adv-x="1260" 
d="M630 968v0v0v0v0v0v0v0v0v0h48.5h124.5h162h162h124.5h48.5v0v0v-222.5v-177v-158.5h-80v318q0 3 -15.5 20t-38.5 40.5t-47 46.5t-41 38t-20 15v0v0v0h-30h-74h-88h-74h-30v0v0v0l-12 -18t-30 -44l-36 -52t-30 -44l-12 -18h-6h-6q-13 40 -17.5 84t0 88t17.5 84zM1300 256
h-80v88v63.5v78.5v0v0v0v0v76v43.5v41v69.5h80v-460zM-40 256v460h80v-69.5v-41v-43.5v-76v0v0v0v0v-78.5v-63.5v-88h-80zM1300 578v-41.5v-107.5v-140v-140v-107.5v-41.5v0v0v0h-48.5h-125.5h-164h-165.5h-130h-56.5v0v0v0v0v0v0v0v40.5v39.5v0v0h44h113.5h147.5h147.5
h113.5h44v0v0v0v0v0v0v0v0v0v0v50.5v124.5v148v124.5v50.5h80zM-40 578h80v-50.5v-124.5v-148v-124.5v-50.5v0v0v0v0v0v0v0v0v0v0h44h113.5h147.5h147.5h113.5h44v0v0v-39.5v-40.5v0v0v0v0v0v0v0h-56h-130.5h-165.5h-164h-125.5h-48.5v0v0v0v41.5v107.5v140v140v107.5v41.5z
M630 968q2 -24 3.5 -49.5t2 -52t0.5 -53t-1.5 -52t-4.5 -49.5h-6h-6l-12 18t-30 44l-36 52t-30 44l-12 18v0v0v0h-166.5h-147.5h-105h-39v0v0v0v0v0v0v0v0v-4.5v-26.5v-72v-141v-234h-80v81v92.5v99v100v97v88.5v0v0h48.5h124.5h162h162h124.5h48.5v0v0v0v0v0v0v0v0zM396 66
h-4.5t-2.5 1t-1 2.5v4.5v0v0v0v0v0v31v79.5v103.5v103.5v79.5v31q0 4 0.5 5.5t2 2t5.5 0.5h16h32h16q4 0 5.5 -0.5t2 -2t0.5 -5.5v-31v-79.5v-103.5v-103.5v-79.5v-31v0v0v0v0v0v-4.5t-1 -2.5t-2.5 -1h-4.5h-16h-32h-16zM844 66h-16h-32h-16h-4.5t-2.5 1t-1 2.5v4.5v0v0v0v0
v0v31v79.5v103.5v103.5v79.5v31q0 4 0.5 5.5t2 2t5.5 0.5h16h32h16q4 0 5.5 -0.5t2 -2t0.5 -5.5v-31v-79.5v-103.5v-103.5v-79.5v-31v0v0v0v0v0v-4.5t-1 -2.5t-2.5 -1h-4.5z" />
    <glyph glyph-name="n" unicode="n" 
d="M1100 256h-80v88v63.5v78.5v0v0v0v0v76v43.5v41v69.5h80v-460zM-40 256v460h80v-69.5v-41v-43.5v-76v0v0v0v0v-78.5v-63.5v-88h-80zM1100 410h-80v318q0 3 -15.5 20t-38.5 40.5t-47 46.5t-41 38t-20 15v0v0v0h-34.5h-85.5h-102h-85.5h-34.5v40.5v39.5v0v0v0v0v0h52h111.5
h139h136.5h104.5h40.5v0v0v0v0v-40.5v-104v-134.5v-134.5v-104v-40.5zM1100 558v-40.5v-104v-134.5v-134.5v-104v-40.5v0v0v0v0h-42h-108.5h-141.5h-141.5h-108.5h-42v0v0v0v0v0v40.5v39.5h36.5h94h121.5h121.5h94h36.5v0v0v0v0v0v0v0v0v0v0v0v0v0v34.5v89v115.5v115.5v89
v34.5h80zM-40 558h80v-34.5v-89v-115.5v-115.5v-89v-34.5v0v0v0v0v0v0v0v0v0v0v0v0v0h36.5h94h121.5h121.5h94h36.5v-39.5v-40.5v0v0v0v0v0h-42h-108.5h-141.5h-141.5h-108.5h-42v0v0v0v0v40.5v104v134.5v134.5v104v40.5zM-40 410v40.5v104v134.5v134.5v104v40.5v0v0v0v0h42
h108.5h141.5h141.5h108.5h42v0v0v0v0v0v-39.5v-40.5h-36.5h-94h-121.5h-121.5h-94h-36.5v0v0v0v0v0v0v0v0v0v0v0v0v0v-34.5v-89v-115.5v-115.5v-89v-34.5h-80zM498 66h-4.5t-2.5 1t-1 2.5v4.5v0v0v0v0v0v31v79.5v103.5v103.5v79.5v31q0 4 0.5 5.5t2 2t5.5 0.5h16h32h16
q4 0 5.5 -0.5t2 -2t0.5 -5.5v-31v-79.5v-103.5v-103.5v-79.5v-31v0v0v0v0v0v-4.5t-1 -2.5t-2.5 -1h-4.5h-16h-32h-16z" />
    <glyph glyph-name="o" unicode="o" 
d="M1100 256h-80v88v63.5v78.5v0v0v0v0v76v43.5v41v69.5h80v-460zM1100 558v-40.5v-104v-134.5v-134.5v-104v-40.5v0v0v0v0h-40.5h-104.5h-136.5h-139h-111.5h-52v0v0v0v0v0v40.5v39.5h34.5h85.5h102h85.5h34.5v0v0v0q3 0 20 15t41 38t47 46.5t38.5 40.5t15.5 20v318h80z
M1100 410h-80v318q0 3 -15.5 20t-38.5 40.5t-47 46.5t-41 38t-20 15v0v0v0h-34.5h-85.5h-102h-85.5h-34.5v40.5v39.5v0v0v0v0v0h52h111.5h139h136.5h104.5h40.5v0v0v0v0v-40.5v-104v-134.5v-134.5v-104v-40.5zM490 362v37.5v86.5v86.5v37.5v0v0q0 6 1 7t7 1h21.5h21h21.5
q6 0 7 -1t1 -7v0v0v-37.5v-86.5v-86.5v-37.5v0v0v0v0v0v0v0q0 -6 -1 -7t-7 -1h-31.5h-32.5q-6 0 -7 1t-1 7v0v0v0v0v0v0v0zM-40 256v460h80v-69.5v-41v-43.5v-76v0v0v0v0v-78.5v-63.5v-88h-80zM-40 558h80v-318q0 -3 15.5 -20t38.5 -40.5t47 -46.5t41 -38t20 -15v0v0v0h34.5
h85.5h102h85.5h34.5v-39.5v-40.5v0v0v0v0v0h-52h-111.5h-139h-136.5h-104.5h-40.5v0v0v0v0v40.5v104v134.5v134.5v104v40.5zM-40 410v40.5v104v134.5v134.5v104v40.5v0v0v0v0h40.5h104.5h136.5h139h111.5h52v0v0v0v0v0v-39.5v-40.5h-34.5h-85.5h-102h-85.5h-34.5v0v0v0
q-3 0 -20 -15t-41 -38t-47 -46.5t-38.5 -40.5t-15.5 -20v-318h-80z" />
    <glyph glyph-name="p" unicode="p" 
d="M1100 254h-80v88v63.5v78.5v0v0v0v0v76v43.5v41v69.5h80v-460zM1100 410h-80v318q0 3 -15.5 20t-38.5 40.5t-47 46.5t-41 38t-20 15v0v0v0h-34.5h-85.5h-102h-85.5h-34.5v40.5v39.5v0v0v0v0v0h52h111.5h139h136.5h104.5h40.5v0v0v0v0v-40.5v-104v-134.5v-134.5v-104
v-40.5zM-40 376h80v-500v0v0h36h83h83h36h34h78h78h34v0v0v204v0v0v0v0h30h76h96.5h92h61.5v0v0v0q4 0 21.5 15t41 38t46.5 46.5t38 40.5t15 20v0v0v154h80v-394v0h-132h-99.5h-80.5h-76h-58.5h-46.5h-25v-204h-30h-74.5h-89.5h-76.5h-33.5v0v0v0v0v0v0v0v0v0v0h-35h-80
h-93.5h-78h-31.5v580zM-40 410v40.5v104v134.5v134.5v104v40.5v0v0v0v0h42h108.5h141.5h141.5h108.5h42v0v0v0v0v0v-39.5v-40.5h-36.5h-94h-121.5h-121.5h-94h-36.5v0v0v0v0v0v0v0v0v0v0v0v0v0v-34.5v-89v-115.5v-115.5v-89v-34.5h-80zM490 360v37.5v86.5v86.5v37.5v0v0
q0 6 1 7t7 1h21.5h21h21.5q6 0 7 -1t1 -7v0v0v-37.5v-86.5v-86.5v-37.5v0v0v0v0v0v0v0q0 -6 -1 -7t-7 -1h-31.5h-32.5q-6 0 -7 1t-1 7v0v0v0v0v0v0v0zM-40 714h80v-88v-63.5v-78.5v0v0v0v0v-76v-43.5v-41v-69.5h-80v460z" />
    <glyph glyph-name="q" unicode="q" 
d="M-40 254v460h80v-69.5v-41v-43.5v-76v0v0v0v0v-78.5v-63.5v-88h-80zM-40 410v40.5v104v134.5v134.5v104v40.5v0v0v0v0h40.5h104.5h136.5h139h111.5h52v0v0v0v0v0v-39.5v-40.5h-34.5h-85.5h-102h-85.5h-34.5v0v0v0q-3 0 -20 -15t-41 -38t-47 -46.5t-38.5 -40.5t-15.5 -20
v-318h-80zM1100 410h-80v34.5v89v115.5v115.5v89v34.5v0v0v0v0v0v0v0v0v0v0v0v0v0h-36.5h-94h-121.5h-121.5h-94h-36.5v40.5v39.5v0v0v0v0v0h42h108.5h141.5h141.5h108.5h42v0v0v0v0v-40.5v-104v-134.5v-134.5v-104v-40.5zM490 360v37.5v86.5v86.5v37.5v0v0q0 6 1 7t7 1
h21.5h21h21.5q6 0 7 -1t1 -7v0v0v-37.5v-86.5v-86.5v-37.5v0v0v0v0v0v0v0q0 -6 -1 -7t-7 -1h-31.5h-32.5q-6 0 -7 1t-1 7v0v0v0v0v0v0v0zM1100 714v-460h-80v69.5v41v43.5v76v0v0v0v0v78.5v63.5v88h80zM1100 376v-580h-31.5h-78h-93.5h-80h-35v0v0v0v0v0v0v0v0v0v0h-33.5
h-76.5h-89.5h-74.5h-30v204h-25h-46.5h-58.5h-76h-80.5h-99h-132.5v0v394h80v-154v0v0q0 -3 15 -20t38 -40.5t46.5 -46.5t41 -38t21.5 -15v0v0v0h61.5h92h96.5h76h30v0v0v0v0v-204v0v0h34h78h78h34h36h83h83h36v0v0v500h80z" />
    <glyph glyph-name="r" unicode="r" horiz-adv-x="984" 
d="M532 0v0v0v0v0v0v0h-47h-108h-137h-136h-104h-40v0v0v0v516h80v-436v0v0v0h35h81h81h35v0v0v0v0v0h35h81h81h35v0v0v5v30v83v164v0v0v0v0v0h44.5h110h131h110h44.5v0v0v0v0v0v32v79v94v79v32v0v0v0v0v0h80v-678h-34.5h-89.5h-117.5h-118.5h-92.5h-39.5v0v0v0v0zM-40 470
v36v92.5v120.5v120.5v92.5v36v0v0v0h39.5h102.5h133h133h102.5h39.5v0v0v0v0v0v0v0v0v0v-38v-62v-72v-69.5v-52.5l-16.5 32.5t-37.5 74.5t-37.5 74.5l-16.5 32.5h-36.5h-90.5h-108h-90.5h-36.5v0v0v0v0v0v0v0v0v0v0v0v-42v-104.5v-125v-104.5v-42h-80zM1024 566h-80v0v0v0v0
v3v17.5v48.5v95v158v0v0v0v0h-23.5h-60h-77.5h-77.5h-60h-23.5l-17 -32.5t-39 -74.5t-39 -74.5l-17 -32.5v0v0v0l-4.5 32.5t-10 74.5t-10 74.5l-4.5 32.5v8v20v24v20v8v0v0v0v0h39h101h131.5h131.5h101h39v0v0v0v0v0v0v0v0v0v0v0v0v-29v-75v-97v-97v-75v-29z" />
    <glyph glyph-name="s" unicode="s" horiz-adv-x="984" 
d="M1024 558v-104v-121.5v-121.5v-107v-76v-28v0v0v0v0h-39.5h-101h-131.5h-131.5h-101h-39.5v0v0v0v0v0v40.5v39.5h33h68.5h82h74h44.5v0v0v0v0q3 0 20 15t41 38t47 46.5t38.5 40.5t15.5 20v318h80zM-40 410v104v121v122v107v76v28v0v0v0v0h39.5h101h131.5h131.5h101h39.5
v0v0v0v0v0v-39.5v-40.5h-33h-68.5h-82h-74h-44.5v0v0v0v0q-3 0 -20 -15t-41 -38t-47 -46.5t-38.5 -40.5t-15.5 -20v-318h-80zM1024 470h-80v42v104.5v125v104.5v42v0v0v0v0v0v0v0v0v0v0v0h-47h-116h-138h-116h-47v40.5v39.5v0v0v0v0v0h39.5h101h131.5h131.5h101h39.5v0v0v0
v0v-36v-92.5v-120.5v-120.5v-92.5v-36zM-40 498h80v-42v-104.5v-125v-104.5v-42v0v0v0v0v0v0v0v0v0v0v0h47h116h138h116h47v-39.5v-40.5v0v0v0v0v0h-39.5h-101h-131.5h-131.5h-101h-39.5v0v0v0v0v36v92.5v120.5v120.5v92.5v36zM0 340v146h38v-9.5v-19v-9.5l41.5 -6t103 -15
l123 -18t103 -15l41.5 -6l-0.5 -4.5t-2 -13.5t-3.5 -22t-3.5 -21.5t-2 -12.5l-0.5 -4l-40.5 6t-100 14.5l-119 17t-100 14.5l-40.5 6v-7v-14v-7h-38zM986 610v-146h-38v9.5v19v9.5l-41.5 6t-103 15l-123 18t-103 15l-41.5 6l0.5 4.5t2 13.5t3.5 22t3.5 21.5t2 12.5l0.5 4
l40.5 -6t100 -14.5l119 -17t100 -14.5l40.5 -6v7v14v7h38z" />
    <glyph glyph-name="t" unicode="t" horiz-adv-x="764" 
d="M-40 354v460h80v-69.5v-41v-43.5v-76v0v0v0v0v-78.5v-63.5v-88h-80zM-40 558h80v-318q0 -3 15.5 -20t38.5 -40.5t47 -46.5t41 -38t20 -15v0v0v0h34h48.5h50.5h41h20v-39.5v-40.5v0v0v0v0v0h-44h-109h-130h-109h-44v0v0v95.5v94v93v92.5v92v91zM804 558v-40.5v-104v-134.5
v-134.5v-104v-40.5v0v0v0h-44h-109h-130h-109h-44v0v0v0v0v0v40.5v39.5h36h89h106h89h36v0v0v0v0v0v0v0v0v0v0v0v48.5v119.5v142v119.5v48.5h80zM478 536q0 4 0.5 5.5t2 2t5.5 0.5h31h77h92h77h31v0v0v0v0v0q6 0 7 -1t1 -7v-6.5v-16v-19v-16v-6.5q0 -6 -1 -7t-7 -1v0v0v0v0
v0h-31h-77h-92h-77h-31q-4 0 -5.5 0.5t-2 2t-0.5 5.5v16v32v16zM-40 576v596v0v0h32.5h81h97h81h32.5v0v0v0v0v0v0v0v0v0v0h30h74.5h89h74.5h30v0v0v-204q3 0 1 0t17 0h36.5h62h97.5q6 0 7 -1t1 -9v-404h-80v0v0v0v0v0v0v33.5v83.5v100v83.5v33.5v0v0v0v0v0h-98h-69.5h-41
h-13.5v0v0v0v12v12v180v0v0v0h-33h-77h-77h-33h-36.5h-84.5h-84.5h-36.5v0v0v-516h-80z" />
    <glyph glyph-name="u" unicode="u" 
d="M-40 714h80v-88v-63.5v-78.5v0v0v0v0v-76v-43.5v-41v-69.5h-80v460zM1100 714v-460h-80v69.5v41v43.5v76v0v0v0v0v78.5v63.5v88h80zM-40 558h80v-318q0 -3 15.5 -20t38.5 -40.5t47 -46.5t41 -38t20 -15v0v0v0h34.5h85.5h102h85.5h34.5v-39.5v-40.5v0v0v0v0v0h-52h-111.5
h-139h-136.5h-104.5h-40.5v0v0v0v0v40.5v104v134.5v134.5v104v40.5zM-40 410v40.5v104v134.5v134.5v104v40.5v0v0v0v0h42h108.5h141.5h141.5h108.5h42v0v0v0v0v0v-39.5v-40.5h-36.5h-94h-121.5h-121.5h-94h-36.5v0v0v0v0v0v0v0v0v0v0v0v0v0v-34.5v-89v-115.5v-115.5v-89
v-34.5h-80zM1100 410h-80v34.5v89v115.5v115.5v89v34.5v0v0v0v0v0v0v0v0v0v0v0v0v0h-36.5h-94h-121.5h-121.5h-94h-36.5v40.5v39.5v0v0v0v0v0h42h108.5h141.5h141.5h108.5h42v0v0v0v0v-40.5v-104v-134.5v-134.5v-104v-40.5zM1100 558v-40.5v-104v-134.5v-134.5v-104v-40.5v0
v0v0v0h-42h-108.5h-141.5h-141.5h-108.5h-42v0v0v0v0v0v40.5v39.5h36.5h94h121.5h121.5h94h36.5v0v0v0v0v0v0v0v0v0v0v0v0v0v34.5v89v115.5v115.5v89v34.5h80zM498 892h16h32h16h4.5t2.5 -1t1 -2.5v-4.5v0v0v0v0v0v-31v-79.5v-103.5v-103.5v-79.5v-31q0 -4 -0.5 -5.5t-2 -2
t-5.5 -0.5h-16h-32h-16q-4 0 -5.5 0.5t-2 2t-0.5 5.5v31v79.5v103.5v103.5v79.5v31v0v0v0v0v0v4.5t1 2.5t2.5 1h4.5z" />
    <glyph glyph-name="v" unicode="v" horiz-adv-x="1064" 
d="M-40 416h80v-48v0v0v0v0q0 -1 28 -30.5t69.5 -72.5t83.5 -85.5t71 -71t30 -28.5v0v0v0v0h33.5h77.5h77.5h33.5v-39.5v-40.5v0v0v0h-89h-74h-58.5h-43.5h-27.5h-11.5h-22.5h-36.5h-47h-54.5h-58h-59.5v0v0v0v0zM1104 416l-2 -416v0v0v0v0h-59h-58.5h-54.5h-47h-36h-23h-11
h-28h-43.5h-58.5h-74h-89v0v0v0v40.5v39.5h33.5h77.5h77.5h33.5v0v0v0v0q1 0 30 28.5t71 71t83.5 85.5t69.5 72.5t28 30.5v0v0v0v0v48h80zM1104 316h-80v88v63.5v78.5v0v0v0v0v76v43.5v41v69.5h80v-460zM-40 316v460h80v-69.5v-41v-43.5v-76v0v0v0v0v-78.5v-63.5v-88h-80z
M-40 410v40.5v104v134.5v134.5v104v40.5v0v0v0v0h42h108.5h141.5h141.5h108.5h42v0v0v0v0v0v-39.5v-40.5h-36.5h-94h-121.5h-121.5h-94h-36.5v0v0v0v0v0v0v0v0v0v0v0v0v0v-34.5v-89v-115.5v-115.5v-89v-34.5h-80zM1104 410h-80v34.5v89v115.5v115.5v89v34.5v0v0v0v0v0v0v0v0
v0v0v0v0v0h-36.5h-94h-121.5h-121.5h-94h-36.5v40.5v39.5v0v0v0v0v0h42h108.5h141.5h141.5h108.5h42v0v0v0v0v-40.5v-104v-134.5v-134.5v-104v-40.5zM500 892h16h32h16h4.5t2.5 -1t1 -2.5v-4.5v0v0v0v0v0v-31v-79.5v-103.5v-103.5v-79.5v-31q0 -4 -0.5 -5.5t-2 -2t-5.5 -0.5
h-16h-32h-16q-4 0 -5.5 0.5t-2 2t-0.5 5.5v31v79.5v103.5v103.5v79.5v31v0v0v0v0v0v4.5t1 2.5t2.5 1h4.5z" />
    <glyph glyph-name="w" unicode="w" horiz-adv-x="1260" 
d="M-40 712h80v-88v-63.5v-78.5v0v0v0v0v-76v-43.5v-41v-69.5h-80v460zM630 0q-13 40 -17.5 84t0 88t17.5 84h6h6l12 -18t30 -44l36 -52t30 -44l12 -18v0v0v0h30h74h88h74h30v0v0v0q3 0 20 15t41 38t47 46.5t38.5 40.5t15.5 20v318h80v-158.5v-177v-222.5v0v0h-48.5h-124.5
h-162h-162h-124.5h-48.5v0v0v0v0v0v0v0v0v0zM1300 714v-460h-80v69.5v41v43.5v76v0v0v0v0v78.5v63.5v88h80zM1300 390h-80v50.5v124.5v148v124.5v50.5v0v0v0v0v0v0v0v0v0v0h-44h-113.5h-147.5h-147.5h-113.5h-44v0v0v40.5v39.5v0v0v0v0v0v0v0h56.5h130h165.5h164h125.5h48.5
v0v0v0v-41.5v-107.5v-140v-140v-107.5v-41.5zM-40 390v41.5v107.5v140v140v107.5v41.5v0v0v0h48.5h125.5h164h165.5h130.5h56v0v0v0v0v0v0v0v-39.5v-40.5v0v0h-44h-113.5h-147.5h-147.5h-113.5h-44v0v0v0v0v0v0v0v0v0v0v-50.5v-124.5v-148v-124.5v-50.5h-80zM630 0v0v0v0v0
v0v0v0v0v0h-48.5h-124.5h-162h-162h-124.5h-48.5v0v0v222.5v177v158.5h80v-318q0 -3 15.5 -20t38.5 -40.5t47 -46.5t41 -38t20 -15v0v0v0h30h74h88h74h30v0v0v0l12 18t30 44l36 52t30 44l12 18h6h6q13 -40 17.5 -84t0 -88t-17.5 -84zM396 908h16h32h16h4.5t2.5 -1t1 -2.5
v-4.5v0v0v0v0v0v-31v-79.5v-103.5v-103.5v-79.5v-31q0 -4 -0.5 -5.5t-2 -2t-5.5 -0.5h-16h-32h-16q-4 0 -5.5 0.5t-2 2t-0.5 5.5v31v79.5v103.5v103.5v79.5v31v0v0v0v0v0v4.5t1 2.5t2.5 1h4.5zM844 908h4.5t2.5 -1t1 -2.5v-4.5v0v0v0v0v0v-31v-79.5v-103.5v-103.5v-79.5v-31
q0 -4 -0.5 -5.5t-2 -2t-5.5 -0.5h-16h-32h-16q-4 0 -5.5 0.5t-2 2t-0.5 5.5v31v79.5v103.5v103.5v79.5v31v0v0v0v0v0v4.5t1 2.5t2.5 1h4.5h16h32h16z" />
    <glyph glyph-name="x" unicode="x" 
d="M1098 410h-80v34.5v89v115.5v115.5v89v34.5v0v0v0v0v0v0v0v0v0v0v0v0h-36.5h-94h-121.5h-121.5h-94h-36.5v40.5v39.5v0v0v0v0v0h42h108.5h141.5h141.5h108.5h42v0v0v0v0v-40.5v-104v-134.5v-134.5v-104v-40.5zM-40 410v40.5v104v134.5v134.5v104v40.5v0v0v0v0h42h108.5
h141.5h141.5h108.5h42v0v0v0v0v0v-39.5v-40.5h-36.5h-94h-121.5h-121.5h-94h-36.5v0v0v0v0v0v0v0v0v0v0v0v0v-34.5v-89v-115.5v-115.5v-89v-34.5h-80zM-40 558h80v-34.5v-89v-115.5v-115.5v-89v-34.5v0v0v0v0v0v0v0v0v0v0v0v0h36.5h94h121.5h121.5h94h36.5v-39.5v-40.5v0v0
v0v0v0h-42h-108.5h-141.5h-141.5h-108.5h-42v0v0v0v0v40.5v104v134.5v134.5v104v40.5zM1100 558v-40.5v-104v-134.5v-134.5v-104v-40.5v0v0v0v0h-42h-108.5h-141.5h-141.5h-108.5h-42v0v0v0v0v0v40.5v39.5h36.5h94h121.5h121.5h94h36.5v0v0v0v0v0v0v0v0v0v0v0v0v34.5v89
v115.5v115.5v89v34.5h80zM562 354v-27v-67v-80v-67v-27v0v0v0v0v0v-4.5t-1 -2.5t-2.5 -1h-4.5h-16h-32h-16h-4.5t-2.5 1t-1 2.5v4.5v0v0v0v0v0v27v67v80v67v27q0 4 0.5 5.5t2 2t5.5 0.5h16h32h16q4 0 5.5 -0.5t2 -2t0.5 -5.5zM562 626q0 -4 -0.5 -5.5t-2 -2t-5.5 -0.5h-16
h-32h-16q-4 0 -5.5 0.5t-2 2t-0.5 5.5v27v67v80v67v27v0v0v0v0v0v4.5t1 2.5t2.5 1h4.5h16h32h16h4.5t2.5 -1t1 -2.5v-4.5v0v0v0v0v0v-27v-67v-80v-67v-27zM38 386q-7 36 -11 63.5t-4 51t4 49t11 56.5v0l21.5 -11.5t53.5 -28l64 -33t53.5 -28l21.5 -11.5v0v0v0v0l-21.5 -11
t-53.5 -27l-64 -32t-53.5 -27l-21.5 -11v0zM1020 386v0l-21.5 11t-53.5 27l-64 32t-53.5 27l-21.5 11v0v0v0v0l21.5 11.5t53.5 28l64 33t53.5 28l21.5 11.5v0q8 -31 11.5 -56.5t3.5 -49t-3.5 -51t-11.5 -63.5z" />
    <glyph glyph-name="y" unicode="y" 
d="M1100 354v-40.5v-104v-134.5v-134.5v-104v-40.5v0v0v0v0h-40.5h-104.5h-136.5h-139h-111.5h-52v0v0v0v0v0v40.5v39.5h34.5h85.5h102h85.5h34.5v0v0v0q3 0 20 15t41 38t47 46.5t38.5 40.5t15.5 20v318h80zM1100 154h-80v88v63.5v78.5v0v0v0v0v76v43.5v41v69.5h80v-460z
M1100 410h-80v34.5v89v115.5v115.5v89v34.5v0v0v0v0v0v0v0v0v0v0v0v0h-36.5h-94h-121.5h-121.5h-94h-36.5v40.5v39.5v0v0v0v0v0h42h108.5h141.5h141.5h108.5h42v0v0v0v0v-40.5v-104v-134.5v-134.5v-104v-40.5zM-40 410v40.5v104v134.5v134.5v104v40.5v0v0v0v0h42h108.5
h141.5h141.5h108.5h42v0v0v0v0v0v-39.5v-40.5h-36.5h-94h-121.5h-121.5h-94h-36.5v0v0v0v0v0v0v0v0v0v0v0v0v-34.5v-89v-115.5v-115.5v-89v-34.5h-80zM196 220h27h69h90h90h69h27v-10.5v-21v-10.5v-9.5v-19v-9.5h-67.5h-95h-108h-108h-95.5h-70v0v0v0v53.5v87.5v97v82v42h16
v-35v-48v-59q0 -3 15 -18t37 -35.5t45 -40.5t39.5 -33t19.5 -13zM-40 354h80v-34.5v-89v-115.5v-115.5v-89v-34.5v0v0v0v0v0v0v0v0v0v0v0v0h36.5h94h121.5h121.5h94h36.5v-39.5v-40.5v0v0v0v0v0h-42h-108.5h-141.5h-141.5h-108.5h-42v0v0v0v0v40.5v104v134.5v134.5v104v40.5
zM-40 152v460h80v-69.5v-41v-43.5v-76v0v0v0v0v-78.5v-63.5v-88h-80zM498 892h16h32h16h4.5t2.5 -1t1 -2.5v-4.5v0v0v0v0v0v-31v-79.5v-103.5v-103.5v-79.5v-31q0 -4 -0.5 -5.5t-2 -2t-5.5 -0.5h-16h-32h-16q-4 0 -5.5 0.5t-2 2t-0.5 5.5v31v79.5v103.5v103.5v79.5v31v0v0v0
v0v0v4.5t1 2.5t2.5 1h4.5z" />
    <glyph glyph-name="z" unicode="z" horiz-adv-x="984" 
d="M-40 470v36v92.5v120.5v120.5v92.5v36v0v0v0v0h39.5h101h131.5h131.5h101h39.5v0v0v0v0v0v-39.5v-40.5h-47h-116h-138h-116h-47v0v0v0v0v0v0v0v0v0v0v0v-42v-104.5v-125v-104.5v-42h-80zM1024 470h-80v42v104.5v125v104.5v42v0v0v0v0v0v0v0v0v0v0v0h-47h-116h-138h-116
h-47v40.5v39.5v0v0v0v0v0h39.5h101h131.5h131.5h101h39.5v0v0v0v0v-36v-92.5v-120.5v-120.5v-92.5v-36zM-40 498h80v-42v-104.5v-125v-104.5v-42v0v0v0v0v0v0v0v0v0v0v0h47h116h138h116h47v-39.5v-40.5v0v0v0v0v0h-39.5h-101h-131.5h-131.5h-101h-39.5v0v0v0v0v36v92.5
v120.5v120.5v92.5v36zM1024 498v-36v-92.5v-120.5v-120.5v-92.5v-36v0v0v0v0h-39.5h-101h-131.5h-131.5h-101h-39.5v0v0v0v0v0v40.5v39.5h47h116h138h116h47v0v0v0v0v0v0v0v0v0v0v0v42v104.5v125v104.5v42h80zM0 612h38v-7v-14v-7l40.5 6t100 14.5l119 17t100 14.5l40.5 6
l0.5 -4t2 -12.5t3.5 -21.5t3.5 -22t2 -13.5l0.5 -4.5l-41.5 -6t-103 -15l-123 -18t-103 -15l-41.5 -6v-9.5v-19v-9.5h-38v146zM1002 366h-38v7v14v7l-40.5 -6t-100 -14.5l-119 -17t-100 -14.5l-40.5 -6l-0.5 4t-2 12.5t-3.5 21.5t-3.5 22t-2 13.5l-0.5 4.5l41.5 6t103 15
l123 18t103 15l41.5 6v9.5v19v9.5h38v-146z" />
    <glyph glyph-name="braceleft" unicode="{" horiz-adv-x="542" 
d="M244 586v0v0l21 17t49 40t49 40l21 17v100h38h42v-43v-107v-128v-107v-43h-42h-38v100l-21 17t-49 40t-49 40l-21 17v0v0zM-40 516v100v151v176v176v152.5v102.5v0v0v0v0h32.5h80.5h97h83.5h38.5v0v0v0v-20v-40v-20h-38h-88h-88h-38v0v0v-328v-219.5v-133v-68v-25v-4.5v0
v0v0v0h-80zM582 516h-80v79.5v123.5v131.5v104.5v41v0v0v0v2v11v27.5v51v83.5v123v0v0h-35h-81h-81h-35v20v40v20v0v0v0h35.5h78.5h91.5h76h30.5v0v0v0v0v-53v-138.5v-186.5v-198v-172.5v-109.5zM384 1028h26h60h60h26l-2 -512h-170v38.5v107.5v162.5v203.5v0v0zM582 656
v-109.5v-172.5v-198v-186.5v-138.5v-53v0v0v0v0h-30.5h-76h-91.5h-78.5h-35.5v0v0v0v20v40v20h35h81h81h35v0v0v123.5v83v51v27.5v11v2v0v0v0v41v104.5v131.5v123.5v79.5h80zM384 144v0v0v203.5v162.5v107.5v38.5h170l2 -512h-26h-60h-60h-26zM-40 656h80v0v0v0v0v-4.5v-25
v-68v-133v-219v-328.5v0v0h38h88h88h38v-20v-40v-20v0v0v0h-38.5h-83.5h-97h-80.5h-32.5v0v0v0v0v103v152v176v176v151v100z" />
    <glyph glyph-name="bar" unicode="|" horiz-adv-x="422" 
d="M-40 296h80v-418v0v0h26h60h60h26q5 -15 5 -40t-5 -40v0v0v0h-28.5h-63.5h-74h-61.5h-24.5v0v0v0v0v38v98v128.5v130.5v103zM462 296v-103v-130.5v-128.5v-98v-38v0v0v0v0h-24.5h-61.5h-74h-63.5h-28.5v0v0v0q-4 15 -4 40t4 40h26h60h60h26v0v0v418h80zM-40 876v103
v130.5v128.5v98v38v0v0v0v0h24.5h61.5h74h63.5h28.5v0v0v0q5 -15 5 -40t-5 -40h-26h-60h-60h-26v0v0v-418h-80zM462 876h-80v418v0v0h-26h-60h-60h-26q-4 15 -4 40t4 40v0v0v0h28.5h63.5h74h61.5h24.5v0v0v0v0v-38v-98v-128.5v-130.5v-103zM-40 214v740h80v-91.5v-288.5v-5
v-5v-5v-5v-260.5v-79.5h-80zM382 214v740h80v-91.5v-288.5v-5v-5v-5v-5v-260.5v-79.5h-80z" />
    <glyph glyph-name="braceright" unicode="}" horiz-adv-x="542" 
d="M298 586v0v0l-21 -17t-49 -40t-49 -40l-21 -17v-100h-38h-42v43v107v128v107v43h42h38v-100l21 -17t49 -40t49 -40l21 -17v0v0zM582 516h-80v0v0v0v0v4.5v25v68v133v219.5v328v0v0h-38h-88h-88h-38v20v40v20v0v0v0h38.5h83.5h97h80.5h32.5v0v0v0v0v-102.5v-152.5v-176
v-176v-151v-100zM-40 516v109.5v172.5v198v186.5v138.5v53v0v0v0v0h30.5h76h91.5h78.5h35.5v0v0v0v-20v-40v-20h-35h-81h-81h-35v0v0v-123v-83.5v-51v-27.5v-11v-2v0v0v0v-41v-104.5v-131.5v-123.5v-79.5h-80zM158 1028v0v0v-203.5v-162.5v-107.5v-38.5h-170l-2 512h26h60
h60h26zM-40 656h80v-79.5v-123.5v-131.5v-104.5v-41v0v0v0v-2v-11v-27.5v-51v-83v-123.5v0v0h35h81h81h35v-20v-40v-20v0v0v0h-35.5h-78.5h-91.5h-76h-30.5v0v0v0v0v53v138.5v186.5v198v172.5v109.5zM158 144h-26h-60h-60h-26l2 512h170v-38.5v-107.5v-162.5v-203.5v0v0z
M582 656v-100v-151v-176v-176v-152v-103v0v0v0v0h-32.5h-80.5h-97h-83.5h-38.5v0v0v0v20v40v20h38h88h88h38v0v0v328.5v219v133v68v25v4.5v0v0v0v0h80z" />
    <glyph glyph-name="asciitilde" unicode="~" horiz-adv-x="1018" 
d="M722 404q4 0 24 12.5t44 29.5t42 31.5t18 18.5v72v100.5v75.5v0v0h-220v0v0v-44.5v-26.5v-9l-33.5 8t-83 20l-99 24t-83 20l-33.5 8q-4 0 -24 -12.5t-44 -29.5t-42 -31.5t-18 -18.5v-147v-101v0v0h220v0v0v45v26.5v8.5l33.5 -8t83 -20l99 -24t83 -20zM-40 -2v0v0v0v0v0v0
v0v0v63.5v168.5v230v250v230v168.5v63.5v0v0v0v0v0v0v0v0h110.5h123.5h121h104.5h73.5h27v0v0v0v0v0v0h26h70h100h116.5h119h106.5v0v0v0v0v0v0v0v0v-63.5v-168.5v-230v-250v-230v-168.5v-63.5v0v0v0v0v0v0v0v0h-106h-118.5h-116.5h-100.5h-70.5h-26v0v0v0v0v0v0h-27h-73
h-103.5h-120.5h-124h-112z" />
    <glyph glyph-name="uni00A0" unicode="&#xa0;" horiz-adv-x="560" 
 />
    <glyph glyph-name="exclamdown" unicode="&#xa1;" horiz-adv-x="422" 
d="M462 294v-103v-130.5v-128.5v-98v-38v0v0v0v0h-24.5h-61.5h-74h-63.5h-28.5v0v0v0q-4 15 -4 40t4 40h26h60h60h26v0v0v418h80zM-40 294h80v-418v0v0h26h60h60h26q5 -15 5 -40t-5 -40v0v0v0h-28.5h-63.5h-74h-61.5h-24.5v0v0v0v0v38v98v128.5v130.5v103zM462 470h-80v418
v0v0h-26h-60h-60h-26q-4 15 -4 40t4 40v0v0v0h28.5h63.5h74h61.5h24.5v0v0v0v0v-38v-98v-128.5v-130.5v-103zM-40 470v103v130.5v128.5v98v38v0v0v0v0h24.5h61.5h74h63.5h28.5v0v0v0q5 -15 5 -40t-5 -40h-26h-60h-60h-26v0v0v-418h-80zM462 210h-80v12v28v28v12v0v0l-5 26.5
t-12.5 65l-15 77t-12.5 65l-5 26.5v0v0h-30h-60h-30v11.5v26.5v26.5v11.5h28.5h38h95.5h14.5h20h19h12.5h22v-67v-92.5v-101v-91.5v-64zM-40 210v64v91.5v101v92.5v67h22h12.5h19h20h14.5h43h37.5h32.5h27.5h23.5v-11.5v-26.5v-26.5v-11.5h-18.5h-42.5h-42.5h-18.5v0v0
l-5 -26.5t-12.5 -65l-15 -77t-12.5 -65l-5 -26.5v0v0v0v-12v-28v-28v-12h-80z" />
    <glyph glyph-name="cent" unicode="&#xa2;" horiz-adv-x="1018" 
d="M225 724v-368q0 -2 16 -19t37 -38t38.5 -37t20.5 -16h48h48v-104h32.5h57.5v0h70h40v104h85.5h76.5v0v0v97v43v39v81v0v0h-109.5h-110h-66.5v0v0v9v25v25.5v8.5v0v0h66.5h110h109.5v0v0v85.5v38.5v43v93v0v0h-75.5h-86.5v104h-40h-70v0h-57.5h-32.5v-104h-47.5h-48.5
q-3 0 -20.5 -16t-38.5 -37t-37 -38t-16 -19zM-40 -2v0v0v0v0v0v0v0v0v63.5v168.5v230v250v230v168.5v63.5v0v0v0v0v0v0v0v0h110.5h123.5h121h104.5h73.5h27v0v0v0v0v0v0h26h70h100h116.5h119h106.5v0v0v0v0v0v0v0v0v-63.5v-168.5v-230v-250v-230v-168.5v-63.5v0v0v0v0v0v0v0
v0h-106h-118.5h-116.5h-100.5h-70.5h-26v0v0v0v0v0v0h-27h-73h-103.5h-120.5h-124h-112z" />
    <glyph glyph-name="sterling" unicode="&#xa3;" horiz-adv-x="1018" 
d="M331 486v-64l-10.5 -18.5t-23.5 -43.5t-23.5 -43.5l-10.5 -18.5v0v0v-75.5v-80.5h176h158h168v8.5v29.5v24.5v27.5v37v35v31.5v8.5h-118h-82h-30v0v0l9.5 19.5l19 39l9.5 19.5v64h174v20v48v0v44.5v21.5h-174v112v0v0h48.5h129.5v0v0v78v40v31v57v0v0h-145h-163
q-3 0 -20.5 -16t-38.5 -37t-37 -38t-16 -19v-208h-76v-20v-46v0v-48v-20h76zM-40 -2v0v0v0v0v0v0v0v0v63.5v168.5v230v250v230v168.5v63.5v0v0v0v0v0v0v0v0h110.5h123.5h121h104.5h73.5h27v0v0v0v0v0v0h26h70h100h116.5h119h106.5v0v0v0v0v0v0v0v0v-63.5v-168.5v-230v-250
v-230v-168.5v-63.5v0v0v0v0v0v0v0v0h-106h-118.5h-116.5h-100.5h-70.5h-26v0v0v0v0v0v0h-27h-73h-103.5h-120.5h-124h-112z" />
    <glyph glyph-name="currency" unicode="&#xa4;" horiz-adv-x="1018" 
d="M510 838h-16h-48v0l-46 98v0v0h-26.5h-73.5h-65.5h-26.5v0v0l62 -128v0v0v0q-12 -11 -25 -24.5t-25 -27t-19 -23t-7 -13.5v-360q0 -4 7 -13.5t19 -23t25 -27t25 -24.5v0v0v0l-62 -128v0v0h26.5h65.5h73.5h26.5v0v0l46 98v0h48h16h16.5h47.5v0l46 -98v0v0h27h73h65.5h26.5
v0v0l-62 128v0v0v0q12 11 25 24.5t25 27t19 23t7 13.5v360q0 4 -7 13.5t-19 23t-25 27t-25 24.5v0v0v0l62 128v0v0h-26.5h-65.5h-73h-27v0v0l-46 -98v0h-47.5h-16.5zM510 634h44.5h17.5v0v0v-196v0v0h-17.5h-44.5h-44.5h-17.5v0v0v196v0v0h17.5h44.5zM-40 -2v0v0v0v0v0v0v0
v0v63.5v168.5v230v250v230v168.5v63.5v0v0v0v0v0v0v0v0h110.5h123.5h121h104.5h73.5h27v0v0v0v0v0v0h26h70h100h116.5h119h106.5v0v0v0v0v0v0v0v0v-63.5v-168.5v-230v-250v-230v-168.5v-63.5v0v0v0v0v0v0v0v0h-106h-118.5h-116.5h-100.5h-70.5h-26v0v0v0v0v0v0h-27h-73
h-103.5h-120.5h-124h-112z" />
    <glyph glyph-name="yen" unicode="&#xa5;" horiz-adv-x="1018" 
d="M351 508h-96v-18.5v-41.5v0v-42.5v-17.5h128v-50h-128v-18.5v-41.5v0v-42.5v-17.5h128v-78h45h81v0h51h51h22v78h128v17.5v42.5v0v40.5v19.5h-128v50h128v17.5v42.5v0v40.5v19.5h-92l136 432h-32h-76v0v0v0h-82h-36q-16 -70 -34 -142l-36 -144v0q-16 75 -34 146t-36 140
h-35h-83v0h-74h-32v0v0zM-40 -2v0v0v0v0v0v0v0v0v63.5v168.5v230v250v230v168.5v63.5v0v0v0v0v0v0v0v0h110.5h123.5h121h104.5h73.5h27v0v0v0v0v0v0h26h70h100h116.5h119h106.5v0v0v0v0v0v0v0v0v-63.5v-168.5v-230v-250v-230v-168.5v-63.5v0v0v0v0v0v0v0v0h-106h-118.5
h-116.5h-100.5h-70.5h-26v0v0v0v0v0v0h-27h-73h-103.5h-120.5h-124h-112z" />
    <glyph glyph-name="brokenbar" unicode="&#xa6;" horiz-adv-x="422" 
d="M-40 296h80v-418v0v0h26h60h60h26q5 -15 5 -40t-5 -40v0v0v0h-28.5h-63.5h-74h-61.5h-24.5v0v0v0v0v38v98v128.5v130.5v103zM462 296v-103v-130.5v-128.5v-98v-38v0v0v0v0h-24.5h-61.5h-74h-63.5h-28.5v0v0v0q-4 15 -4 40t4 40h26h60h60h26v0v0v418h80zM-40 876v103
v130.5v128.5v98v38v0v0v0v0h24.5h61.5h74h63.5h28.5v0v0v0q5 -15 5 -40t-5 -40h-26h-60h-60h-26v0v0v-418h-80zM462 876h-80v418v0v0h-26h-60h-60h-26q-4 15 -4 40t4 40v0v0v0h28.5h63.5h74h61.5h24.5v0v0v0v0v-38v-98v-128.5v-130.5v-103zM-40 214v740h80v-91.5v-288.5v-5
v-5v-5v-5v-260.5v-79.5h-80zM382 214v740h80v-91.5v-288.5v-5v-5v-5v-5v-260.5v-79.5h-80zM462 992v-64v-91.5v-101v-92.5v-67h-22h-12.5h-19h-20h-14.5h-95.5h-38h-28.5v11.5v26.5v26.5v11.5h30h60h30v0v0l5 26.5t12.5 65l15 77t12.5 65l5 26.5v0v0v12v28v28v12h80z
M-40 992h80v-12v-28v-28v-12v0v0v0l5 -26.5t12.5 -65l15 -77t12.5 -65l5 -26.5v0v0h18.5h42.5h42.5h18.5v-11.5v-26.5v-26.5v-11.5h-23.5h-27.5h-32.5h-37.5h-43h-14.5h-20h-19h-12.5h-22v67v92.5v101v91.5v64zM462 236h-80v12v28v28v12v0v0l-5 26.5t-12.5 65l-15 77
t-12.5 65l-5 26.5v0v0h-30h-60h-30v11.5v26.5v26.5v11.5h28.5h38h95.5h14.5h20h19h12.5h22v-67v-92.5v-101v-91.5v-64zM-40 236v64v91.5v101v92.5v67h22h12.5h19h20h14.5h43h37.5h32.5h27.5h23.5v-11.5v-26.5v-26.5v-11.5h-18.5h-42.5h-42.5h-18.5v0v0l-5 -26.5t-12.5 -65
l-15 -77t-12.5 -65l-5 -26.5v0v0v0v-12v-28v-28v-12h-80z" />
    <glyph glyph-name="section" unicode="&#xa7;" horiz-adv-x="1018" 
d="M574 513h-128v52h128v-52zM692 453l13 12.5t26 25.5t13 16v114q0 3 -21 25.5t-43 43.5t-26 21h-96h-96v6.5v19.5v20v6h141.5h140.5v0v0v160v0v0h-372q-4 0 -18.5 -13t-32 -30t-30.5 -31t-13 -16v-158q0 -3 16 -17t34 -31l-13 -12t-26 -25.5t-13 -16.5v-114q0 -3 20.5 -25
t42.5 -43.5t27 -21.5h96h96v-6v-20v-19.5v-6.5h-140.5h-141.5v0v0v-160v0v0h372q4 0 18.5 13t32 30t30.5 31t13 16v156q0 5 -19 22.5t-31 27.5zM-40 -2v0v0v0v0v0v0v0v0v63.5v168.5v230v250v230v168.5v63.5v0v0v0v0v0v0v0v0h110.5h123.5h121h104.5h73.5h27v0v0v0v0v0v0h26
h70h100h116.5h119h106.5v0v0v0v0v0v0v0v0v-63.5v-168.5v-230v-250v-230v-168.5v-63.5v0v0v0v0v0v0v0v0h-106h-118.5h-116.5h-100.5h-70.5h-26v0v0v0v0v0v0h-27h-73h-103.5h-120.5h-124h-112z" />
    <glyph glyph-name="dieresis" unicode="&#xa8;" horiz-adv-x="988" 
d="M454 926v41.5v46.5v37.5v40.5v0v0h-60h-60h-62.5h-63.5v0v0v-40.5v-37.5v-46.5v-41.5h-80v46.5v76v123.5v0v0h386v0v0v0v-128v-75v-43h-60zM534 926h-60v43v75v128v0v0v0h386v0v0v-123.5v-76v-46.5h-80v41.5v46.5v37.5v40.5v0v0h-62.5h-63.5h-60h-60v0v0v-40.5v-37.5
v-46.5v-41.5z" />
    <glyph glyph-name="copyright" unicode="&#xa9;" horiz-adv-x="1018" 
d="M224 724v-368q0 -2 16 -19t37 -38t38.5 -37t20.5 -16h52.5h106.5h125.5h111.5h62v0v0v97v43v39v81v0v0h-109.5h-110h-66.5v0v0v9v25v25.5v8.5v0v0h66.5h110h109.5v0v0v85.5v38.5v43v93v0v0h-62.5h-112h-125.5h-106h-52q-3 0 -20.5 -16t-38.5 -37t-37 -38t-16 -19zM-40 -2
v0v0v0v0v0v0v0v0v63.5v168.5v230v250v230v168.5v63.5v0v0v0v0v0v0v0v0h110.5h123.5h121h104.5h73.5h27v0v0v0v0v0v0h26h70h100h116.5h119h106.5v0v0v0v0v0v0v0v0v-63.5v-168.5v-230v-250v-230v-168.5v-63.5v0v0v0v0v0v0v0v0h-106h-118.5h-116.5h-100.5h-70.5h-26v0v0v0v0v0
v0h-27h-73h-103.5h-120.5h-124h-112z" />
    <glyph glyph-name="ordfeminine" unicode="&#xaa;" horiz-adv-x="579" 
d="M323 596h72h37h37v0v0v442v0v0h-135.5h-87.5h-73q-2 0 -12.5 -10t-23 -23t-21.5 -24t-9 -13v-302q0 -1 9 -12t21.5 -24.5t23 -23.5t12.5 -10h87h33l3 16.5l6 33l3 16.5h1h5l3 -16.5l6 -33l3 -16.5v0v0zM311 912v0v0v-82.5v-91.5v0v0h-4.5h-33.5v0v0v91.5v82.5v0v0h33.5
h4.5zM-40 467v0v0v0v0v0v0v0v0v38v101v138v150v138v101v38v0v0v0v0v0v0v0v0h66.5h74h72.5h62.5h44h16.5v0v0v0v0v0v0h15.5h42h60h70h71.5h64v0v0v0v0v0v0v0v0v-38v-101v-138v-150v-138v-101v-38v0v0v0v0v0v0v0v0h-63.5h-71h-70h-60.5h-42.5h-15.5v0v0v0v0v0v0h-16h-43.5
h-62.5h-72.5h-74h-67.5z" />
    <glyph glyph-name="guillemotleft" unicode="&#xab;" horiz-adv-x="898" 
d="M788 484q2 14 8.5 51t16 92.5t21 122t24.5 138.5v0v0v0v0v0h-66h-75.5h-104.5l2.5 20l5 40l2.5 20v0v0v0h38h71h119h15h22.5h25.5h25v-504zM788 484l150 20v-504h-25h-25.5h-22.5h-15h-119h-71h-38v0v0v0l-2.5 20l-5 40l-2.5 20h104.5h75.5h66v0v0v0v0v0
q-13 72 -24.5 138.5t-21 122t-16 93t-8.5 50.5zM-40 506l80 -20v0v0v0l36 -207t25 -145.5l9 -53.5v0v0h59h52.5h44.5h34l2.5 -20l5 -40l2.5 -20v0v0v0h-47h-84h-131h-15h-22.5h-25.5h-25v506zM-40 462v506h25h25.5h22.5h15h131h84h47v0v0v0l-2.5 -20l-5 -40l-2.5 -20h-34
h-44.5h-52.5h-59v0v0l-9 -53.5t-25 -145.5l-36 -207v0v0v0zM484 968l-14 -80h-13h-13v0v0h-49h-52h-63h-82l2.5 20l5 40l2.5 20h23h36.5h55.5h32.5h37.5h43h21h27h18q2 0 -1.5 0h-8.5h-8t0 0zM374 484q11 68 22.5 135.5t23.5 134.5l24 134q2 11 3.5 21l3 20t3.5 19.5t4 19.5
h8.5h12.5h12.5h8.5h17.5h27.5h21h39h33h41h28h17l-2.5 -20l-5 -40l-2.5 -20h-34h-44.5h-52.5h-59v0v0l-10 -58t-26 -151.5t-34 -200.5v0v0v0zM484 0q-3 0 0 0h8h8.5t1.5 0h-18h-27h-21h-43h-37.5h-32.5h-55.5h-36.5h-23l-2.5 20l-5 40l-2.5 20h82h63h52h49v0v0h13h13z
M374 484l80 6v0v0v0q18 -107 34 -200.5t26 -151.5l10 -58v0v0h59h52.5h44.5h34l2.5 -20l5 -40l2.5 -20h-17h-28h-41h-33h-39h-21h-27.5h-17.5h-8.5h-12.5h-12.5h-8.5q-2 10 -4 19.5t-3.5 19.5t-3 20.5t-3.5 20.5l-24 134t-23.5 134.5t-22.5 135.5z" />
    <glyph glyph-name="logicalnot" unicode="&#xac;" horiz-adv-x="1018" 
d="M830 696l-19.5 14t-44.5 32t-44.5 32l-19.5 14h-512v0v0v-266v0v0h62.5h98.5h110h95v0v0v-30v-41v-91v0v0v0h274v0v0v0v336zM-40 -2v0v0v0v0v0v0v0v0v63.5v168.5v230v250v230v168.5v63.5v0v0v0v0v0v0v0v0h110.5h123.5h121h104.5h73.5h27v0v0v0v0v0v0h26h70h100h116.5h119
h106.5v0v0v0v0v0v0v0v0v-63.5v-168.5v-230v-250v-230v-168.5v-63.5v0v0v0v0v0v0v0v0h-106h-118.5h-116.5h-100.5h-70.5h-26v0v0v0v0v0v0h-27h-73h-103.5h-120.5h-124h-112z" />
    <glyph glyph-name="registered" unicode="&#xae;" horiz-adv-x="1018" 
d="M513 698h9.5h16.5v0v0v-77.5v-78.5v0v0h-16.5h-9.5h-10.5h-19.5v78.5v77.5v0v0h20h10zM714 445v0v0l11 11t26 25.5t26 26.5t11 15v223q0 3 -12.5 17t-29.5 31t-31 29.5t-18 12.5h-109.5h-133.5h-129h-98v0v0v-592h22h52h54v0h57.5h56.5h24v168q9 -25 20 -53.5t22 -57.5
t21 -57h26h62h64v0v0v0h51.5h50h21.5v0v0l-17.5 30.5t-41 70t-41 70zM-40 -2v0v0v0v0v0v0v0v0v63.5v168.5v230v250v230v168.5v63.5v0v0v0v0v0v0v0v0h110.5h123.5h121h104.5h73.5h27v0v0v0v0v0v0h26h70h100h116.5h119h106.5v0v0v0v0v0v0v0v0v-63.5v-168.5v-230v-250v-230
v-168.5v-63.5v0v0v0v0v0v0v0v0h-106h-118.5h-116.5h-100.5h-70.5h-26v0v0v0v0v0v0h-27h-73h-103.5h-120.5h-124h-112z" />
    <glyph glyph-name="macron" unicode="&#xaf;" horiz-adv-x="988" 
d="M780 926v63.5v82.5v0v0v0h-285.5h-286.5v0v0v0v-82.5v-63.5h-80v41v64v121v0v0v0h366h366v0v0v0v-125.5v-63v-37.5h-80z" />
    <glyph glyph-name="degree" unicode="&#xb0;" horiz-adv-x="484" 
d="M524 964v-85v-85.5v-75v-53v-19.5v0v0v0v0h-27.5h-68.5h-82.5h-71h-32.5v0v0v0v0q-4 14 -4 36t4 34q98 0 150 45t52 157v8v18.5v19.5h80zM-38 964h80v-19.5v-18.5v-8q0 -112 52.5 -157t149.5 -45q5 -12 5 -34t-5 -36v0v0v0v0h-32.5h-71h-82.5h-68.5h-27.5v0v0v0v0v19.5
v53v75v85.5v85zM524 854h-80v20v18.5v7.5q0 113 -52 157.5t-150 44.5q-4 12 -4 34.5t4 35.5v0v0v0v0h32.5h71h82.5h68.5h27.5v0v0v0v0v-19.5v-53v-75v-85.5v-85zM-40 854v85v85.5v75v53v19.5v0v0v0v0h27.5h68.5h82.5h71h32.5v0v0v0v0q5 -13 5 -35.5t-5 -34.5
q-97 0 -149.5 -44.5t-52.5 -157.5v-7.5v-18.5v-20h-80z" />
    <glyph glyph-name="plusminus" unicode="&#xb1;" horiz-adv-x="1018" 
d="M624 827v41v117v0v0h-228v0v0v0v-118.5v-39.5v0h-40h-118v0v0v-220v0v0h118h40v0v-17.5v-52v-84.5v0v0h228v0v0v115.5v38.5v0h40h118v0v0v220v0v0h-114h-44v0zM238 383v0v0v-220v0v0h544v0v0v220v0v0h-544zM-40 -2v0v0v0v0v0v0v0v0v63.5v168.5v230v250v230v168.5v63.5v0
v0v0v0v0v0v0v0h110.5h123.5h121h104.5h73.5h27v0v0v0v0v0v0h26h70h100h116.5h119h106.5v0v0v0v0v0v0v0v0v-63.5v-168.5v-230v-250v-230v-168.5v-63.5v0v0v0v0v0v0v0v0h-106h-118.5h-116.5h-100.5h-70.5h-26v0v0v0v0v0v0h-27h-73h-103.5h-120.5h-124h-112z" />
    <glyph glyph-name="acute" unicode="&#xb4;" horiz-adv-x="988" 
d="M128 928v12v26.5v53.5v92v0v0l53 6t136 15.5t177 19.5t177 19.5t136 15.5l53 6v0v0v-99v-69.5v-47v-30.5v-20h-80v26.5v29v42.5v68v0v0l-41.5 -4t-106.5 -9.5t-138 -12.5t-138 -12.5t-106.5 -9.5l-41.5 -4v0v0v-48v-32.5v-33.5h-80z" />
    <glyph glyph-name="paragraph" unicode="&#xb6;" horiz-adv-x="1018" 
d="M291 844v-226q0 -5 13.5 -21.5t32 -35t33.5 -32t19 -13.5h21.5h28.5h26h34v-376h21h48.5h48.5v0h72h40v800v0v0h-73.5h-104h-100.5h-62q-4 0 -19 -13.5t-33.5 -31.5t-32 -33t-13.5 -18zM-40 -2v0v0v0v0v0v0v0v0v63.5v168.5v230v250v230v168.5v63.5v0v0v0v0v0v0v0v0h110.5
h123.5h121h104.5h73.5h27v0v0v0v0v0v0h26h70h100h116.5h119h106.5v0v0v0v0v0v0v0v0v-63.5v-168.5v-230v-250v-230v-168.5v-63.5v0v0v0v0v0v0v0v0h-106h-118.5h-116.5h-100.5h-70.5h-26v0v0v0v0v0v0h-27h-73h-103.5h-120.5h-124h-112z" />
    <glyph glyph-name="periodcentered" unicode="&#xb7;" horiz-adv-x="422" 
d="M462 734v-103v-130.5v-128.5v-98v-38v0v0v0v0h-24.5h-61.5h-74h-63.5h-28.5v0v0v0q-4 15 -4 40t4 40h26h60h60h26v0v0v418h80zM-40 734h80v-418v0v0h26h60h60h26q5 -15 5 -40t-5 -40v0v0v0h-28.5h-63.5h-74h-61.5h-24.5v0v0v0v0v38v98v128.5v130.5v103zM462 264h-80v418
v0v0h-26h-60h-60h-26q-4 15 -4 40t4 40v0v0v0h28.5h63.5h74h61.5h24.5v0v0v0v0v-38v-98v-128.5v-130.5v-103zM-40 264v103v130.5v128.5v98v38v0v0v0v0h24.5h61.5h74h63.5h28.5v0v0v0q5 -15 5 -40t-5 -40h-26h-60h-60h-26v0v0v-418h-80zM-40 642h80v-24v-96v0v0v0v0v-89.5
v-27v-17.5h-80v254zM462 642v-254h-80v17.5v27v89.5v0v0v0v0v96v24h80z" />
    <glyph glyph-name="cedilla" unicode="&#xb8;" horiz-adv-x="780" 
d="M652 20l-32 -342v0v0v0h-35.5h-91.5h-119h-119h-91.5h-35.5v0v0l140 342h88l-98 -262v0v0h28h69h82h69h28v0v0l34 262h84z" />
    <glyph glyph-name="ordmasculine" unicode="&#xba;" horiz-adv-x="579" 
d="M107 666q0 -1 9 -12t21.5 -24.5t23 -23.5t12.5 -10h115h115q2 0 12.5 10t23 23.5t21.5 24.5t9 12v302q0 2 -9 13t-21.5 24t-23 23t-12.5 10h-115.5h-114.5q-2 0 -12.5 -10t-23 -23t-21.5 -24t-9 -13v-302zM305 906v0v0v-85.5v-90.5v0v0h-19h-19v0v0v90.5v85.5v0v0h19h19z
M-40 467v0v0v0v0v0v0v0v0v38v101v138v150v138v101v38v0v0v0v0v0v0v0v0h66.5h74h72.5h62.5h44h16.5v0v0v0v0v0v0h15.5h42h60h70h71.5h64v0v0v0v0v0v0v0v0v-38v-101v-138v-150v-138v-101v-38v0v0v0v0v0v0v0v0h-63.5h-71h-70h-60.5h-42.5h-15.5v0v0v0v0v0v0h-16h-43.5h-62.5
h-72.5h-74h-67.5z" />
    <glyph glyph-name="guillemotright" unicode="&#xbb;" horiz-adv-x="898" 
d="M110 484l-150 -20v504h25h25.5h22.5h15h119.5h71h37.5v0v0v0l2.5 -20l5 -40l2.5 -20h-104.5h-75.5h-66v0v0v0v0v0q13 -72 24.5 -138.5t21 -122t16 -92.5t8.5 -51zM110 484q-2 -13 -8.5 -50.5t-16 -93t-21 -122t-24.5 -138.5v0v0v0v0v0h66h75.5h104.5l-2.5 -20l-5 -40
l-2.5 -20v0v0v0h-37.5h-71h-119.5h-15h-22.5h-25.5h-25v504zM938 506v-506h-25h-25.5h-22.5h-15h-131h-84h-47v0v0v0l2.5 20l5 40l2.5 20h34h44.5h52.5h59v0v0l9 53.5t25 145.5l36 207v0v0v0zM938 462l-80 20v0v0v0l-36 207t-25 145.5l-9 53.5v0v0h-59h-52.5h-44.5h-34
l-2.5 20l-5 40l-2.5 20v0v0v0h47h84h131h15h22.5h25.5h25v-506zM414 968q3 0 0 0h-8h-8.5t-1.5 0h18h27h21h43h37.5h32.5h56h36.5h22.5l2.5 -20l5 -40l2.5 -20h-81.5h-63.5h-52h-49v0v0h-13h-13zM524 484l-80 -6v0v0v0q-18 107 -34 200.5t-26 151.5l-10 58v0v0h-59h-52.5
h-44.5h-34l-2.5 20l-5 40l-2.5 20h17.5h27.5h41h33h39h21.5h27.5h17h8.5h12.5h12.5h8.5q2 -10 4 -19.5t3.5 -19.5t3.5 -20t3 -21l24 -134t23.5 -134.5t22.5 -135.5zM414 0l14 80h13h13v0v0h49h52h63.5h81.5l-2.5 -20l-5 -40l-2.5 -20h-22.5h-36.5h-56h-32.5h-37.5h-43h-21
h-27h-18q-2 0 1.5 0h8.5h8t0 0zM524 484q-11 -68 -22.5 -135.5t-23.5 -134.5l-24 -134q-1 -10 -3 -20.5t-3.5 -20.5t-3.5 -19.5t-4 -19.5h-8.5h-12.5h-12.5h-8.5h-17h-27.5h-21.5h-39h-33h-41h-27.5h-17.5l2.5 20l5 40l2.5 20h34h44.5h52.5h59v0v0l10 58t26 151.5t34 200.5
v0v0v0z" />
    <glyph glyph-name="questiondown" unicode="&#xbf;" horiz-adv-x="764" 
d="M-40 510h80v-88v-63.5v-78.5v0v0v0v0v-76v-43.5v-41v-69.5h-80v460zM804 242h-80v10.5v23.5v23.5v10.5v0v0q0 27 -0.5 66.5t-0.5 78.5t-0.5 65l-0.5 26v0v0h-135.5h-91.5h-55.5h-27.5h-8v0v0v0h-11h-29.5h-40h-43h-39.5h-29q-4 0 -30.5 -25t-60 -58.5t-58.5 -60.5
t-25 -32v0v0l0.5 -28.5t0.5 -65.5t0.5 -65.5l0.5 -28.5h-80v57v146.5v189.5v189.5v146.5v57v0v0v0h41h102h122h102h41v0v0v0v0v0v0v0v0v0v0h44h109h130h109h44v0v0v0v-48v-125v-165.5v-171v-141.5v-75zM724 888h-34.5h-86h-103h-86h-34.5v0v0v0v-264v0v0v0v0h34.5h86h103h86
h34.5v0v0v0v0v264v0v0zM400 186v16v32v16q0 4 0.5 5.5t2 2t5.5 0.5h39h97h116h97h39v0v0v0v0v0q6 0 7 -1t1 -7v-6.5v-16v-19v-16v-6.5q0 -6 -1 -7t-7 -1v0v0v0v0v0h-39h-97h-116h-97h-39q-4 0 -5.5 0.5t-2 2t-0.5 5.5zM-40 354h80v-318q0 -3 15.5 -20t38.5 -40.5t47 -46.5
t41 -38t20 -15v0v0v0h34h48.5h50.5h41h20v-39.5v-40.5v0v0v0v0v0h-44h-109h-130h-109h-44v0v0v95.5v94v93v92.5v92v91zM804 354v-40.5v-104v-134.5v-134.5v-104v-40.5v0v0v0h-44h-109h-130h-109h-44v0v0v0v0v0v40.5v39.5h36h89h106h89h36v0v0v0v0v0v0v0v0v0v0v0v48.5v119.5
v142v119.5v48.5h80z" />
    <glyph glyph-name="Agrave" unicode="&#xc0;" 
d="M-40 558h80v-34.5v-89v-115.5v-115.5v-89v-34.5v0v0v0v0v0v0v0v0v0v0v0v0v0h36.5h94h121.5h121.5h94h36.5v-39.5v-40.5v0v0v0v0v0h-42h-108.5h-141.5h-141.5h-108.5h-42v0v0v0v0v40.5v104v134.5v134.5v104v40.5zM1100 558v-40.5v-104v-134.5v-134.5v-104v-40.5v0v0v0v0
h-42h-108.5h-141.5h-141.5h-108.5h-42v0v0v0v0v0v40.5v39.5h36.5h94h121.5h121.5h94h36.5v0v0v0v0v0v0v0v0v0v0v0v0v0v34.5v89v115.5v115.5v89v34.5h80zM-40 614v40.5v104v134.5v134.5v104v40.5v0v0v0v0h40.5h104.5h136.5h139h111.5h52v0v0v0v0v0v-39.5v-40.5h-34.5h-85.5
h-102h-85.5h-34.5v0v0v0q-3 0 -20 -15t-41 -38t-47 -46.5t-38.5 -40.5t-15.5 -20v-318h-80zM1100 614h-80v318q0 3 -15.5 20t-38.5 40.5t-47 46.5t-41 38t-20 15v0v0v0h-34.5h-85.5h-102h-85.5h-34.5v40.5v39.5v0v0v0v0v0h52h111.5h139h136.5h104.5h40.5v0v0v0v0v-40.5v-104
v-134.5v-134.5v-104v-40.5zM492 549v37.5v86.5v86.5v37.5v0v0q0 6 1 7t7 1h21.5h21h21.5q6 0 7 -1t1 -7v0v0v-37.5v-86.5v-86.5v-37.5v0v0v0v0v0v0v0q0 -6 -1 -7t-7 -1h-31.5h-32.5q-6 0 -7 1t-1 7v0v0v0v0v0v0v0zM568 356q4 0 5.5 -0.5t2 -2t0.5 -5.5v-27v-67v-80v-67v-27
v0v0v0v0v0v-4.5t-1 -2.5t-2.5 -1h-4.5h-16h-32h-16h-4.5t-2.5 1t-1 2.5v4.5v0v0v0v0v0v27v67v80v67v27q0 4 0.5 5.5t2 2t5.5 0.5h16h32h16zM1100 376h-80v31.5v73.5v73.5v31.5v0v0v0v0v31.5v73.5v73.5v31.5h80v-420zM-40 376v420h80v-31.5v-73.5v-73.5v-31.5v0v0v0v0v-31.5
v-73.5v-73.5v-31.5h-80zM896 1132h-80v33.5v32.5v48v0v0l-41.5 4t-106.5 9.5t-138 12.5t-138 12.5t-106.5 9.5l-41.5 4v0v0v-68v-42.5v-29v-26.5h-80v20v30.5v47v69.5v99v0v0l53 -6t136 -15.5t177 -19.5t177 -19.5t136 -15.5l53 -6v0v0v-92v-53.5v-26.5v-12z" />
    <glyph glyph-name="Aacute" unicode="&#xc1;" 
d="M-40 558h80v-34.5v-89v-115.5v-115.5v-89v-34.5v0v0v0v0v0v0v0v0v0v0v0v0v0h36.5h94h121.5h121.5h94h36.5v-39.5v-40.5v0v0v0v0v0h-42h-108.5h-141.5h-141.5h-108.5h-42v0v0v0v0v40.5v104v134.5v134.5v104v40.5zM1100 558v-40.5v-104v-134.5v-134.5v-104v-40.5v0v0v0v0
h-42h-108.5h-141.5h-141.5h-108.5h-42v0v0v0v0v0v40.5v39.5h36.5h94h121.5h121.5h94h36.5v0v0v0v0v0v0v0v0v0v0v0v0v0v34.5v89v115.5v115.5v89v34.5h80zM-40 614v40.5v104v134.5v134.5v104v40.5v0v0v0v0h40.5h104.5h136.5h139h111.5h52v0v0v0v0v0v-39.5v-40.5h-34.5h-85.5
h-102h-85.5h-34.5v0v0v0q-3 0 -20 -15t-41 -38t-47 -46.5t-38.5 -40.5t-15.5 -20v-318h-80zM1100 614h-80v318q0 3 -15.5 20t-38.5 40.5t-47 46.5t-41 38t-20 15v0v0v0h-34.5h-85.5h-102h-85.5h-34.5v40.5v39.5v0v0v0v0v0h52h111.5h139h136.5h104.5h40.5v0v0v0v0v-40.5v-104
v-134.5v-134.5v-104v-40.5zM492 549v37.5v86.5v86.5v37.5v0v0q0 6 1 7t7 1h21.5h21h21.5q6 0 7 -1t1 -7v0v0v-37.5v-86.5v-86.5v-37.5v0v0v0v0v0v0v0q0 -6 -1 -7t-7 -1h-31.5h-32.5q-6 0 -7 1t-1 7v0v0v0v0v0v0v0zM568 356q4 0 5.5 -0.5t2 -2t0.5 -5.5v-27v-67v-80v-67v-27
v0v0v0v0v0v-4.5t-1 -2.5t-2.5 -1h-4.5h-16h-32h-16h-4.5t-2.5 1t-1 2.5v4.5v0v0v0v0v0v27v67v80v67v27q0 4 0.5 5.5t2 2t5.5 0.5h16h32h16zM1100 376h-80v31.5v73.5v73.5v31.5v0v0v0v0v31.5v73.5v73.5v31.5h80v-420zM-40 376v420h80v-31.5v-73.5v-73.5v-31.5v0v0v0v0v-31.5
v-73.5v-73.5v-31.5h-80zM164 1132v12v26.5v53.5v92v0v0l53 6t136 15.5t177 19.5t177 19.5t136 15.5l53 6v0v0v-99v-69.5v-47v-30.5v-20h-80v26.5v29v42.5v68v0v0l-41.5 -4t-106.5 -9.5t-138 -12.5t-138 -12.5t-106.5 -9.5l-41.5 -4v0v0v-48v-32.5v-33.5h-80z" />
    <glyph glyph-name="Acircumflex" unicode="&#xc2;" 
d="M-40 558h80v-34.5v-89v-115.5v-115.5v-89v-34.5v0v0v0v0v0v0v0v0v0v0v0v0v0h36.5h94h121.5h121.5h94h36.5v-39.5v-40.5v0v0v0v0v0h-42h-108.5h-141.5h-141.5h-108.5h-42v0v0v0v0v40.5v104v134.5v134.5v104v40.5zM1100 558v-40.5v-104v-134.5v-134.5v-104v-40.5v0v0v0v0
h-42h-108.5h-141.5h-141.5h-108.5h-42v0v0v0v0v0v40.5v39.5h36.5h94h121.5h121.5h94h36.5v0v0v0v0v0v0v0v0v0v0v0v0v0v34.5v89v115.5v115.5v89v34.5h80zM-40 614v40.5v104v134.5v134.5v104v40.5v0v0v0v0h40.5h104.5h136.5h139h111.5h52v0v0v0v0v0v-39.5v-40.5h-34.5h-85.5
h-102h-85.5h-34.5v0v0v0q-3 0 -20 -15t-41 -38t-47 -46.5t-38.5 -40.5t-15.5 -20v-318h-80zM1100 614h-80v318q0 3 -15.5 20t-38.5 40.5t-47 46.5t-41 38t-20 15v0v0v0h-34.5h-85.5h-102h-85.5h-34.5v40.5v39.5v0v0v0v0v0h52h111.5h139h136.5h104.5h40.5v0v0v0v0v-40.5v-104
v-134.5v-134.5v-104v-40.5zM492 549v37.5v86.5v86.5v37.5v0v0q0 6 1 7t7 1h21.5h21h21.5q6 0 7 -1t1 -7v0v0v-37.5v-86.5v-86.5v-37.5v0v0v0v0v0v0v0q0 -6 -1 -7t-7 -1h-31.5h-32.5q-6 0 -7 1t-1 7v0v0v0v0v0v0v0zM568 356q4 0 5.5 -0.5t2 -2t0.5 -5.5v-27v-67v-80v-67v-27
v0v0v0v0v0v-4.5t-1 -2.5t-2.5 -1h-4.5h-16h-32h-16h-4.5t-2.5 1t-1 2.5v4.5v0v0v0v0v0v27v67v80v67v27q0 4 0.5 5.5t2 2t5.5 0.5h16h32h16zM1100 376h-80v31.5v73.5v73.5v31.5v0v0v0v0v31.5v73.5v73.5v31.5h80v-420zM-40 376v420h80v-31.5v-73.5v-73.5v-31.5v0v0v0v0v-31.5
v-73.5v-73.5v-31.5h-80zM816 1136v0v0v0v0v0v19.5v39v19.5l-29 8.5t-71.5 20.5l-85 24t-71.5 20.5l-29 8.5v0v0v0v0l-29 -8.5t-71.5 -20.5l-85 -24t-71.5 -20.5l-29 -8.5v-19.5v-39v-19.5v0v0v0v0v0h-20h-40h-20v0v0v0v0v0v20.5v47.5v47.5v20.5l37 12t91.5 29.5l109 35
t91.5 29.5l37 12v0v0v0v0l37 -12t91.5 -29.5l109 -35t91.5 -29.5l37 -12v-20.5v-47.5v-47.5v-20.5v0v0v0v0v0h-20h-40h-20z" />
    <glyph glyph-name="Atilde" unicode="&#xc3;" 
d="M-40 558h80v-34.5v-89v-115.5v-115.5v-89v-34.5v0v0v0v0v0v0v0v0v0v0v0v0v0h36.5h94h121.5h121.5h94h36.5v-39.5v-40.5v0v0v0v0v0h-42h-108.5h-141.5h-141.5h-108.5h-42v0v0v0v0v40.5v104v134.5v134.5v104v40.5zM1100 558v-40.5v-104v-134.5v-134.5v-104v-40.5v0v0v0v0
h-42h-108.5h-141.5h-141.5h-108.5h-42v0v0v0v0v0v40.5v39.5h36.5h94h121.5h121.5h94h36.5v0v0v0v0v0v0v0v0v0v0v0v0v0v34.5v89v115.5v115.5v89v34.5h80zM-40 614v40.5v104v134.5v134.5v104v40.5v0v0v0v0h40.5h104.5h136.5h139h111.5h52v0v0v0v0v0v-39.5v-40.5h-34.5h-85.5
h-102h-85.5h-34.5v0v0v0q-3 0 -20 -15t-41 -38t-47 -46.5t-38.5 -40.5t-15.5 -20v-318h-80zM1100 614h-80v318q0 3 -15.5 20t-38.5 40.5t-47 46.5t-41 38t-20 15v0v0v0h-34.5h-85.5h-102h-85.5h-34.5v40.5v39.5v0v0v0v0v0h52h111.5h139h136.5h104.5h40.5v0v0v0v0v-40.5v-104
v-134.5v-134.5v-104v-40.5zM492 549v37.5v86.5v86.5v37.5v0v0q0 6 1 7t7 1h21.5h21h21.5q6 0 7 -1t1 -7v0v0v-37.5v-86.5v-86.5v-37.5v0v0v0v0v0v0v0q0 -6 -1 -7t-7 -1h-31.5h-32.5q-6 0 -7 1t-1 7v0v0v0v0v0v0v0zM568 356q4 0 5.5 -0.5t2 -2t0.5 -5.5v-27v-67v-80v-67v-27
v0v0v0v0v0v-4.5t-1 -2.5t-2.5 -1h-4.5h-16h-32h-16h-4.5t-2.5 1t-1 2.5v4.5v0v0v0v0v0v27v67v80v67v27q0 4 0.5 5.5t2 2t5.5 0.5h16h32h16zM1100 376h-80v31.5v73.5v73.5v31.5v0v0v0v0v31.5v73.5v73.5v31.5h80v-420zM-40 376v420h80v-31.5v-73.5v-73.5v-31.5v0v0v0v0v-31.5
v-73.5v-73.5v-31.5h-80zM688 1116h-228v0h-302v26.5v65v77v65v26.5v0v0h29.5h73.5h88.5h75.5h33h16.5h40.5h48h40.5h16.5v0v0v0v0h282v0v0v-106.5v-72.5v-81h-32.5h-74.5h-74.5h-32.5zM594 1162h34h79h79h34v0v0v46v45.5v60.5v0v0h-118v0v0v-30v-32v0v0l-20 5t-49 12t-59 14
t-50.5 12t-21.5 5h-43h-91h-89.5h-38.5v0v0v-21v-48v-48v-21h118v0v0v28v15v6v1l24 -5t59 -12.5l70 -15t59 -12.5z" />
    <glyph glyph-name="Adieresis" unicode="&#xc4;" 
d="M-40 558h80v-34.5v-89v-115.5v-115.5v-89v-34.5v0v0v0v0v0v0v0v0v0v0v0v0v0h36.5h94h121.5h121.5h94h36.5v-39.5v-40.5v0v0v0v0v0h-42h-108.5h-141.5h-141.5h-108.5h-42v0v0v0v0v40.5v104v134.5v134.5v104v40.5zM1100 558v-40.5v-104v-134.5v-134.5v-104v-40.5v0v0v0v0
h-42h-108.5h-141.5h-141.5h-108.5h-42v0v0v0v0v0v40.5v39.5h36.5h94h121.5h121.5h94h36.5v0v0v0v0v0v0v0v0v0v0v0v0v0v34.5v89v115.5v115.5v89v34.5h80zM-40 614v40.5v104v134.5v134.5v104v40.5v0v0v0v0h40.5h104.5h136.5h139h111.5h52v0v0v0v0v0v-39.5v-40.5h-34.5h-85.5
h-102h-85.5h-34.5v0v0v0q-3 0 -20 -15t-41 -38t-47 -46.5t-38.5 -40.5t-15.5 -20v-318h-80zM1100 614h-80v318q0 3 -15.5 20t-38.5 40.5t-47 46.5t-41 38t-20 15v0v0v0h-34.5h-85.5h-102h-85.5h-34.5v40.5v39.5v0v0v0v0v0h52h111.5h139h136.5h104.5h40.5v0v0v0v0v-40.5v-104
v-134.5v-134.5v-104v-40.5zM492 549v37.5v86.5v86.5v37.5v0v0q0 6 1 7t7 1h21.5h21h21.5q6 0 7 -1t1 -7v0v0v-37.5v-86.5v-86.5v-37.5v0v0v0v0v0v0v0q0 -6 -1 -7t-7 -1h-31.5h-32.5q-6 0 -7 1t-1 7v0v0v0v0v0v0v0zM568 356q4 0 5.5 -0.5t2 -2t0.5 -5.5v-27v-67v-80v-67v-27
v0v0v0v0v0v-4.5t-1 -2.5t-2.5 -1h-4.5h-16h-32h-16h-4.5t-2.5 1t-1 2.5v4.5v0v0v0v0v0v27v67v80v67v27q0 4 0.5 5.5t2 2t5.5 0.5h16h32h16zM1100 376h-80v31.5v73.5v73.5v31.5v0v0v0v0v31.5v73.5v73.5v31.5h80v-420zM-40 376v420h80v-31.5v-73.5v-73.5v-31.5v0v0v0v0v-31.5
v-73.5v-73.5v-31.5h-80zM490 1130v41.5v46.5v37.5v40.5v0v0h-60h-60h-62.5h-63.5v0v0v-40.5v-37.5v-46.5v-41.5h-80v46.5v76v123.5v0v0h386v0v0v0v-128v-75v-43h-60zM570 1130h-60v43v75v128v0v0v0h386v0v0v-123.5v-76v-46.5h-80v41.5v46.5v37.5v40.5v0v0h-62.5h-63.5h-60
h-60v0v0v-40.5v-37.5v-46.5v-41.5z" />
    <glyph glyph-name="Aring" unicode="&#xc5;" 
d="M-40 558h80v-34.5v-89v-115.5v-115.5v-89v-34.5v0v0v0v0v0v0v0v0v0v0v0v0v0h36.5h94h121.5h121.5h94h36.5v-39.5v-40.5v0v0v0v0v0h-42h-108.5h-141.5h-141.5h-108.5h-42v0v0v0v0v40.5v104v134.5v134.5v104v40.5zM1100 558v-40.5v-104v-134.5v-134.5v-104v-40.5v0v0v0v0
h-42h-108.5h-141.5h-141.5h-108.5h-42v0v0v0v0v0v40.5v39.5h36.5h94h121.5h121.5h94h36.5v0v0v0v0v0v0v0v0v0v0v0v0v0v34.5v89v115.5v115.5v89v34.5h80zM-40 614v40.5v104v134.5v134.5v104v40.5v0v0v0v0h40.5h104.5h136.5h139h111.5h52v0v0v0v0v0v-39.5v-40.5h-34.5h-85.5
h-102h-85.5h-34.5v0v0v0q-3 0 -20 -15t-41 -38t-47 -46.5t-38.5 -40.5t-15.5 -20v-318h-80zM1100 614h-80v318q0 3 -15.5 20t-38.5 40.5t-47 46.5t-41 38t-20 15v0v0v0h-34.5h-85.5h-102h-85.5h-34.5v40.5v39.5v0v0v0v0v0h52h111.5h139h136.5h104.5h40.5v0v0v0v0v-40.5v-104
v-134.5v-134.5v-104v-40.5zM492 549v37.5v86.5v86.5v37.5v0v0q0 6 1 7t7 1h21.5h21h21.5q6 0 7 -1t1 -7v0v0v-37.5v-86.5v-86.5v-37.5v0v0v0v0v0v0v0q0 -6 -1 -7t-7 -1h-31.5h-32.5q-6 0 -7 1t-1 7v0v0v0v0v0v0v0zM568 356q4 0 5.5 -0.5t2 -2t0.5 -5.5v-27v-67v-80v-67v-27
v0v0v0v0v0v-4.5t-1 -2.5t-2.5 -1h-4.5h-16h-32h-16h-4.5t-2.5 1t-1 2.5v4.5v0v0v0v0v0v27v67v80v67v27q0 4 0.5 5.5t2 2t5.5 0.5h16h32h16zM1100 376h-80v31.5v73.5v73.5v31.5v0v0v0v0v31.5v73.5v73.5v31.5h80v-420zM-40 376v420h80v-31.5v-73.5v-73.5v-31.5v0v0v0v0v-31.5
v-73.5v-73.5v-31.5h-80zM332 1280v0q0 72 53.5 126t144.5 54q92 0 145 -54t53 -126v0q0 -55 -24 -92.5t-68.5 -56.5t-105.5 -19t-105.5 19t-68.5 56.5t-24 92.5zM418 1276q0 -54 30.5 -79t81.5 -25t81.5 25t30.5 79v0q0 45 -30.5 74.5t-81.5 29.5t-81.5 -29.5t-30.5 -74.5v0
z" />
    <glyph glyph-name="AE" unicode="&#xc6;" horiz-adv-x="1484" 
d="M-40 376v420h80v-31.5v-73.5v-73.5v-31.5v0v0v0v0v-31.5v-73.5v-73.5v-31.5h-80zM1056 782q0 4 0.5 5.5t2 2t5.5 0.5h41h102h122h102h41v0v0v0v0v0q4 0 5.5 -0.5t2 -2t0.5 -5.5v-6.5v-16v-19v-16v-6.5q0 -6 -1 -7t-7 -1v0v0v0v0v0h-41h-102h-122h-102h-41q-4 0 -5.5 0.5
t-2 2t-0.5 5.5v16v32v16zM1056 370v16v32v16q0 4 0.5 5.5t2 2t5.5 0.5h41h102h122h102h41v0v0v0v0v0q6 0 7 -1t1 -7v-6.5v-16v-19v-16v-6.5q0 -4 -0.5 -5.5t-2 -2t-5.5 -0.5v0v0v0v0v0h-41h-102h-122h-102h-41q-4 0 -5.5 0.5t-2 2t-0.5 5.5zM1524 196h-80v79.5v260.5v5v5v5
v5v288.5v91.5h80v-740zM490 556v37.5v86.5v86.5v37.5v0v0q0 6 1 7t7 1h21.5h21h21.5q6 0 7 -1t1 -7v0v0v-37.5v-86.5v-86.5v-37.5v0v0v0v0v0v0v0q0 -6 -1 -7t-7 -1h-31.5h-32.5q-6 0 -7 1t-1 7v0v0v0v0v0v0v0zM562 356q4 0 5.5 -0.5t2 -2t0.5 -5.5v-27v-67v-80v-67v-27v0v0
v0v0v0v-4.5t-1 -2.5t-2.5 -1h-4.5h-16h-32h-16h-4.5t-2.5 1t-1 2.5v4.5v0v0v0v0v0v27v67v80v67v27q0 4 0.5 5.5t2 2t5.5 0.5h16h32h16zM1048 1172v-20v-40v-20v0v0v0v0v0v0v0v0v0h-46h-121.5h-165.5h-180h-165.5h-121.5h-46v0v0v0v0v0q-3 0 -20 -15t-41 -38t-47 -46.5
t-38.5 -40.5t-15.5 -20v-318h-80v158v174.5v215.5q0 5 0.5 7t2 2.5t5.5 0.5h57.5h152.5h208.5h228h211.5h157.5h64.5v0v0v0v0v0v0v0v0v0zM850 0v0v0v0v0v0v0v0v0h-48h-127.5h-174.5h-190h-174.5h-127.5h-48v0v0v89v96.5v100v99v92.5v81h80v-234v-141v-72v-26.5v-4.5v0v0v0v0
v0v0v0v0h58.5h151h196h195.5h150.5h58.5v0v0v0v0v0v0v0v0v0v-38v-42zM634 0v42v38v0v0v0v0v0v0v0v0v0h58.5h151h196h195.5h150.5h58.5v0v0v0v0v0v0v0v0v4.5v26.5v72v141v234h80v-81v-92.5v-99v-100v-96.5v-89v0v0h-48h-127.5h-174.5h-190h-174.5h-127.5h-48v0v0v0v0v0v0v0v0
zM634 1172v0v0v0v0v0v0v0v0h48h127.5h174.5h190h174.5h127.5h48v0v0v-88.5v-97v-100v-99v-92.5v-81h-80v234v141v72v26.5v4.5v0v0v0v0v0v0v0v0h-58.5h-150.5h-195.5h-196h-151h-58.5v0v0v0v0v0v0v0v0v0v39v41z" />
    <glyph glyph-name="Ccedilla" unicode="&#xc7;" horiz-adv-x="984" 
d="M-40 558h80v-318q0 -3 15.5 -20t38.5 -40.5t47 -46.5t41 -38t20 -15v0v0v0v0h44.5h74h82h68.5h33v-39.5v-40.5v0v0v0v0v0h-39.5h-101h-131.5h-131.5h-101h-39.5v0v0v0v0v28v76v107v121.5v121.5v104zM-40 614v104v121v122v107v76v28v0v0v0v0h39.5h101h131.5h131.5h101
h39.5v0v0v0v0v0v-39.5v-40.5h-33h-68.5h-82h-74h-44.5v0v0v0v0q-3 0 -20 -15t-41 -38t-47 -46.5t-38.5 -40.5t-15.5 -20v-318h-80zM-40 376v420h80v-31.5v-73.5v-73.5v-31.5v0v0v0v0v-31.5v-73.5v-73.5v-31.5h-80zM1024 498v-36v-92.5v-120.5v-120.5v-92.5v-36v0v0v0v0
h-39.5h-101h-131.5h-131.5h-101h-39.5v0v0v0v0v0v40.5v39.5h47h116h138h116h47v0v0v0v0v0v0v0v0v0v0v0v42v104.5v125v104.5v42h80zM1024 674h-80v42v104.5v125v104.5v42v0v0v0v0v0v0v0v0v0v0v0h-47h-116h-138h-116h-47v40.5v39.5v0v0v0v0v0h39.5h101h131.5h131.5h101h39.5v0
v0v0v0v-36v-92.5v-120.5v-120.5v-92.5v-36zM550 622q0 4 0.5 5.5t2 2t5.5 0.5h41h102h122h102h41v0v0v0v0v0q4 0 5.5 -0.5t2 -2t0.5 -5.5v-6.5v-16v-19v-16v-6.5q0 -6 -1 -7t-7 -1v0v0v0v0v0h-41h-102h-122h-102h-41q-4 0 -5.5 0.5t-2 2t-0.5 5.5v16v32v16zM1024 196h-80
v79.5v260.5v5v5v5v5v288.5v91.5h80v-740zM754 20l-32 -342v0v0v0h-35.5h-91.5h-119h-119h-91.5h-35.5v0v0l140 342h88l-98 -262v0v0h28h69h82h69h28v0v0l34 262h84z" />
    <glyph glyph-name="Egrave" unicode="&#xc8;" horiz-adv-x="984" 
d="M-40 376v420h80v-31.5v-73.5v-73.5v-31.5v0v0v0v0v-31.5v-73.5v-73.5v-31.5h-80zM-40 498h80v-42v-104.5v-125v-104.5v-42v0v0v0v0v0v0v0v0v0v0v0h47h116h138h116h47v-39.5v-40.5v0v0v0v0v0h-39.5h-101h-131.5h-131.5h-101h-39.5v0v0v0v0v36v92.5v120.5v120.5v92.5v36z
M-40 674v36v92.5v120.5v120.5v92.5v36v0v0v0v0h39.5h101h131.5h131.5h101h39.5v0v0v0v0v0v-39.5v-40.5h-47h-116h-138h-116h-47v0v0v0v0v0v0v0v0v0v0v0v-42v-104.5v-125v-104.5v-42h-80zM556 782q0 4 0.5 5.5t2 2t5.5 0.5h41h102h122h102h41v0v0v0v0v0q4 0 5.5 -0.5t2 -2
t0.5 -5.5v-6.5v-16v-19v-16v-6.5q0 -6 -1 -7t-7 -1v0v0v0v0v0h-41h-102h-122h-102h-41q-4 0 -5.5 0.5t-2 2t-0.5 5.5v16v32v16zM556 370v16v32v16q0 4 0.5 5.5t2 2t5.5 0.5h41h102h122h102h41v0v0v0v0v0q6 0 7 -1t1 -7v-6.5v-16v-19v-16v-6.5q0 -4 -0.5 -5.5t-2 -2
t-5.5 -0.5v0v0v0v0v0h-41h-102h-122h-102h-41q-4 0 -5.5 0.5t-2 2t-0.5 5.5zM1024 196h-80v79.5v260.5v5v5v5v5v288.5v91.5h80v-740zM1024 498v-36v-92.5v-120.5v-120.5v-92.5v-36v0v0v0v0h-39.5h-101h-131.5h-131.5h-101h-39.5v0v0v0v0v0v40.5v39.5h47h116h138h116h47v0v0
v0v0v0v0v0v0v0v0v0v42v104.5v125v104.5v42h80zM1024 674h-80v42v104.5v125v104.5v42v0v0v0v0v0v0v0v0v0v0v0h-47h-116h-138h-116h-47v40.5v39.5v0v0v0v0v0h39.5h101h131.5h131.5h101h39.5v0v0v0v0v-36v-92.5v-120.5v-120.5v-92.5v-36zM858 1132h-80v33.5v32.5v48v0v0
l-41.5 4t-106.5 9.5t-138 12.5t-138 12.5t-106.5 9.5l-41.5 4v0v0v-68v-42.5v-29v-26.5h-80v20v30.5v47v69.5v99v0v0l53 -6t136 -15.5t177 -19.5t177 -19.5t136 -15.5l53 -6v0v0v-92v-53.5v-26.5v-12z" />
    <glyph glyph-name="Eacute" unicode="&#xc9;" horiz-adv-x="984" 
d="M-40 376v420h80v-31.5v-73.5v-73.5v-31.5v0v0v0v0v-31.5v-73.5v-73.5v-31.5h-80zM-40 498h80v-42v-104.5v-125v-104.5v-42v0v0v0v0v0v0v0v0v0v0v0h47h116h138h116h47v-39.5v-40.5v0v0v0v0v0h-39.5h-101h-131.5h-131.5h-101h-39.5v0v0v0v0v36v92.5v120.5v120.5v92.5v36z
M-40 674v36v92.5v120.5v120.5v92.5v36v0v0v0v0h39.5h101h131.5h131.5h101h39.5v0v0v0v0v0v-39.5v-40.5h-47h-116h-138h-116h-47v0v0v0v0v0v0v0v0v0v0v0v-42v-104.5v-125v-104.5v-42h-80zM556 782q0 4 0.5 5.5t2 2t5.5 0.5h41h102h122h102h41v0v0v0v0v0q4 0 5.5 -0.5t2 -2
t0.5 -5.5v-6.5v-16v-19v-16v-6.5q0 -6 -1 -7t-7 -1v0v0v0v0v0h-41h-102h-122h-102h-41q-4 0 -5.5 0.5t-2 2t-0.5 5.5v16v32v16zM556 370v16v32v16q0 4 0.5 5.5t2 2t5.5 0.5h41h102h122h102h41v0v0v0v0v0q6 0 7 -1t1 -7v-6.5v-16v-19v-16v-6.5q0 -4 -0.5 -5.5t-2 -2
t-5.5 -0.5v0v0v0v0v0h-41h-102h-122h-102h-41q-4 0 -5.5 0.5t-2 2t-0.5 5.5zM1024 196h-80v79.5v260.5v5v5v5v5v288.5v91.5h80v-740zM1024 498v-36v-92.5v-120.5v-120.5v-92.5v-36v0v0v0v0h-39.5h-101h-131.5h-131.5h-101h-39.5v0v0v0v0v0v40.5v39.5h47h116h138h116h47v0v0
v0v0v0v0v0v0v0v0v0v42v104.5v125v104.5v42h80zM1024 674h-80v42v104.5v125v104.5v42v0v0v0v0v0v0v0v0v0v0v0h-47h-116h-138h-116h-47v40.5v39.5v0v0v0v0v0h39.5h101h131.5h131.5h101h39.5v0v0v0v0v-36v-92.5v-120.5v-120.5v-92.5v-36zM126 1132v12v26.5v53.5v92v0v0l53 6
t136 15.5t177 19.5t177 19.5t136 15.5l53 6v0v0v-99v-69.5v-47v-30.5v-20h-80v26.5v29v42.5v68v0v0l-41.5 -4t-106.5 -9.5t-138 -12.5t-138 -12.5t-106.5 -9.5l-41.5 -4v0v0v-48v-32.5v-33.5h-80z" />
    <glyph glyph-name="Ecircumflex" unicode="&#xca;" horiz-adv-x="984" 
d="M-40 376v420h80v-31.5v-73.5v-73.5v-31.5v0v0v0v0v-31.5v-73.5v-73.5v-31.5h-80zM-40 498h80v-42v-104.5v-125v-104.5v-42v0v0v0v0v0v0v0v0v0v0v0h47h116h138h116h47v-39.5v-40.5v0v0v0v0v0h-39.5h-101h-131.5h-131.5h-101h-39.5v0v0v0v0v36v92.5v120.5v120.5v92.5v36z
M-40 674v36v92.5v120.5v120.5v92.5v36v0v0v0v0h39.5h101h131.5h131.5h101h39.5v0v0v0v0v0v-39.5v-40.5h-47h-116h-138h-116h-47v0v0v0v0v0v0v0v0v0v0v0v-42v-104.5v-125v-104.5v-42h-80zM556 782q0 4 0.5 5.5t2 2t5.5 0.5h41h102h122h102h41v0v0v0v0v0q4 0 5.5 -0.5t2 -2
t0.5 -5.5v-6.5v-16v-19v-16v-6.5q0 -6 -1 -7t-7 -1v0v0v0v0v0h-41h-102h-122h-102h-41q-4 0 -5.5 0.5t-2 2t-0.5 5.5v16v32v16zM556 370v16v32v16q0 4 0.5 5.5t2 2t5.5 0.5h41h102h122h102h41v0v0v0v0v0q6 0 7 -1t1 -7v-6.5v-16v-19v-16v-6.5q0 -4 -0.5 -5.5t-2 -2
t-5.5 -0.5v0v0v0v0v0h-41h-102h-122h-102h-41q-4 0 -5.5 0.5t-2 2t-0.5 5.5zM1024 196h-80v79.5v260.5v5v5v5v5v288.5v91.5h80v-740zM1024 498v-36v-92.5v-120.5v-120.5v-92.5v-36v0v0v0v0h-39.5h-101h-131.5h-131.5h-101h-39.5v0v0v0v0v0v40.5v39.5h47h116h138h116h47v0v0
v0v0v0v0v0v0v0v0v0v42v104.5v125v104.5v42h80zM1024 674h-80v42v104.5v125v104.5v42v0v0v0v0v0v0v0v0v0v0v0h-47h-116h-138h-116h-47v40.5v39.5v0v0v0v0v0h39.5h101h131.5h131.5h101h39.5v0v0v0v0v-36v-92.5v-120.5v-120.5v-92.5v-36zM778 1136v0v0v0v0v0v19.5v39v19.5
l-29 8.5t-71.5 20.5l-85 24t-71.5 20.5l-29 8.5v0v0v0v0l-29 -8.5t-71.5 -20.5l-85 -24t-71.5 -20.5l-29 -8.5v-19.5v-39v-19.5v0v0v0v0v0h-20h-40h-20v0v0v0v0v0v20.5v47.5v47.5v20.5l37 12t91.5 29.5l109 35t91.5 29.5l37 12v0v0v0v0l37 -12t91.5 -29.5l109 -35
t91.5 -29.5l37 -12v-20.5v-47.5v-47.5v-20.5v0v0v0v0v0h-20h-40h-20z" />
    <glyph glyph-name="Edieresis" unicode="&#xcb;" horiz-adv-x="984" 
d="M-40 376v420h80v-31.5v-73.5v-73.5v-31.5v0v0v0v0v-31.5v-73.5v-73.5v-31.5h-80zM-40 498h80v-42v-104.5v-125v-104.5v-42v0v0v0v0v0v0v0v0v0v0v0h47h116h138h116h47v-39.5v-40.5v0v0v0v0v0h-39.5h-101h-131.5h-131.5h-101h-39.5v0v0v0v0v36v92.5v120.5v120.5v92.5v36z
M-40 674v36v92.5v120.5v120.5v92.5v36v0v0v0v0h39.5h101h131.5h131.5h101h39.5v0v0v0v0v0v-39.5v-40.5h-47h-116h-138h-116h-47v0v0v0v0v0v0v0v0v0v0v0v-42v-104.5v-125v-104.5v-42h-80zM556 782q0 4 0.5 5.5t2 2t5.5 0.5h41h102h122h102h41v0v0v0v0v0q4 0 5.5 -0.5t2 -2
t0.5 -5.5v-6.5v-16v-19v-16v-6.5q0 -6 -1 -7t-7 -1v0v0v0v0v0h-41h-102h-122h-102h-41q-4 0 -5.5 0.5t-2 2t-0.5 5.5v16v32v16zM556 370v16v32v16q0 4 0.5 5.5t2 2t5.5 0.5h41h102h122h102h41v0v0v0v0v0q6 0 7 -1t1 -7v-6.5v-16v-19v-16v-6.5q0 -4 -0.5 -5.5t-2 -2
t-5.5 -0.5v0v0v0v0v0h-41h-102h-122h-102h-41q-4 0 -5.5 0.5t-2 2t-0.5 5.5zM1024 196h-80v79.5v260.5v5v5v5v5v288.5v91.5h80v-740zM1024 498v-36v-92.5v-120.5v-120.5v-92.5v-36v0v0v0v0h-39.5h-101h-131.5h-131.5h-101h-39.5v0v0v0v0v0v40.5v39.5h47h116h138h116h47v0v0
v0v0v0v0v0v0v0v0v0v42v104.5v125v104.5v42h80zM1024 674h-80v42v104.5v125v104.5v42v0v0v0v0v0v0v0v0v0v0v0h-47h-116h-138h-116h-47v40.5v39.5v0v0v0v0v0h39.5h101h131.5h131.5h101h39.5v0v0v0v0v-36v-92.5v-120.5v-120.5v-92.5v-36zM452 1130v41.5v46.5v37.5v40.5v0v0h-60
h-60h-62.5h-63.5v0v0v-40.5v-37.5v-46.5v-41.5h-80v46.5v76v123.5v0v0h386v0v0v0v-128v-75v-43h-60zM532 1130h-60v43v75v128v0v0v0h386v0v0v-123.5v-76v-46.5h-80v41.5v46.5v37.5v40.5v0v0h-62.5h-63.5h-60h-60v0v0v-40.5v-37.5v-46.5v-41.5z" />
    <glyph glyph-name="Igrave" unicode="&#xcc;" horiz-adv-x="542" 
d="M582 498v-89.5v-101v-106v-104.5v-97h-31.5h-78h-93h-78h-31.5v0v0v0v0q-7 15 -7 40t7 40h47h55.5h62.5h67v0v0v0v0v0v0v0v0v42v104.5v125v104.5v42h80zM-40 498h80v-42v-104.5v-125v-104.5v-42v0v0v0v0v0v0v0v0h67.5h62h55.5h47q8 -15 8 -40t-8 -40v0v0v0v0h-31.5h-78
h-93h-78h-31.5v97v104.5v106v101v89.5zM582 376h-80v31.5v73.5v73.5v31.5v0v0v0v0v31.5v73.5v73.5v31.5h80v-420zM-40 376v420h80v-31.5v-73.5v-73.5v-31.5v0v0v0v0v-31.5v-73.5v-73.5v-31.5h-80zM582 674h-80v42v104.5v125v104.5v42v0v0v0v0v0v0v0v0h-67h-62.5h-55.5h-47
q-7 15 -7 40t7 40v0v0v0v0h31.5h78h93h78h31.5v-97v-104.5v-106v-101v-89.5zM-40 674v89.5v101v106v104.5v97h31.5h78h93h78h31.5v0v0v0v0q8 -15 8 -40t-8 -40h-47h-55.5h-62h-67.5v0v0v0v0v0v0v0v0v-42v-104.5v-125v-104.5v-42h-80zM523 1132h-80v32v30v47v0v0l-34.5 5.5
t-86 13l-103 15t-86 13l-34.5 5.5v0v0v-67.5v-41v-27v-25.5h-80v26v43v74v118v0v0l36.5 -6t94 -15.5t121.5 -19.5t121.5 -19.5t94 -15.5l36.5 -6v0v0v-91v-51.5v-25v-11.5z" />
    <glyph glyph-name="Iacute" unicode="&#xcd;" horiz-adv-x="542" 
d="M582 498v-89.5v-101v-106v-104.5v-97h-31.5h-78h-93h-78h-31.5v0v0v0v0q-7 15 -7 40t7 40h47h55.5h62.5h67v0v0v0v0v0v0v0v0v42v104.5v125v104.5v42h80zM-40 498h80v-42v-104.5v-125v-104.5v-42v0v0v0v0v0v0v0v0h67.5h62h55.5h47q8 -15 8 -40t-8 -40v0v0v0v0h-31.5h-78
h-93h-78h-31.5v97v104.5v106v101v89.5zM582 376h-80v31.5v73.5v73.5v31.5v0v0v0v0v31.5v73.5v73.5v31.5h80v-420zM-40 376v420h80v-31.5v-73.5v-73.5v-31.5v0v0v0v0v-31.5v-73.5v-73.5v-31.5h-80zM582 674h-80v42v104.5v125v104.5v42v0v0v0v0v0v0v0v0h-67h-62.5h-55.5h-47
q-7 15 -7 40t7 40v0v0v0v0h31.5h78h93h78h31.5v-97v-104.5v-106v-101v-89.5zM-40 674v89.5v101v106v104.5v97h31.5h78h93h78h31.5v0v0v0v0q8 -15 8 -40t-8 -40h-47h-55.5h-62h-67.5v0v0v0v0v0v0v0v0v-42v-104.5v-125v-104.5v-42h-80zM19 1132v11.5v25v51.5v91v0v0l36.5 6
t94 15.5t121.5 19.5t121.5 19.5t94 15.5l36.5 6v0v0v-118v-74v-43v-26h-80v25.5v27v41v67.5v0v0l-34.5 -5.5t-86 -13l-103 -15t-86 -13l-34.5 -5.5v0v0v-47v-30v-32h-80z" />
    <glyph glyph-name="Icircumflex" unicode="&#xce;" horiz-adv-x="542" 
d="M582 498v-89.5v-101v-106v-104.5v-97h-31.5h-78h-93h-78h-31.5v0v0v0v0q-7 15 -7 40t7 40h47h55.5h62.5h67v0v0v0v0v0v0v0v0v42v104.5v125v104.5v42h80zM-40 498h80v-42v-104.5v-125v-104.5v-42v0v0v0v0v0v0v0v0h67.5h62h55.5h47q8 -15 8 -40t-8 -40v0v0v0v0h-31.5h-78
h-93h-78h-31.5v97v104.5v106v101v89.5zM582 376h-80v31.5v73.5v73.5v31.5v0v0v0v0v31.5v73.5v73.5v31.5h80v-420zM-40 376v420h80v-31.5v-73.5v-73.5v-31.5v0v0v0v0v-31.5v-73.5v-73.5v-31.5h-80zM582 674h-80v42v104.5v125v104.5v42v0v0v0v0v0v0v0v0h-67h-62.5h-55.5h-47
q-7 15 -7 40t7 40v0v0v0v0h31.5h78h93h78h31.5v-97v-104.5v-106v-101v-89.5zM-40 674v89.5v101v106v104.5v97h31.5h78h93h78h31.5v0v0v0v0q8 -15 8 -40t-8 -40h-47h-55.5h-62h-67.5v0v0v0v0v0v0v0v0v-42v-104.5v-125v-104.5v-42h-80zM503 1136v0v0v0v0v20.5v41v20.5l-35 12
t-81 27t-81 27l-35 12v0v0v0v0l-35 -12t-81 -27t-81 -27l-35 -12v-20.5v-41v-20.5v0v0v0v0h-12h-28h-28h-12v0v0v0v0v0v0v0v0v20.5v47.5v47.5v20.5l31.5 12t78 29.5l93 35t78 29.5l31.5 12v0v0v0v0l31.5 -12t78 -29.5l93 -35t78 -29.5l31.5 -12v-20.5v-47.5v-47.5v-20.5v0v0
v0v0v0v0v0v0h-12h-28h-28h-12z" />
    <glyph glyph-name="Idieresis" unicode="&#xcf;" horiz-adv-x="542" 
d="M582 498v-89.5v-101v-106v-104.5v-97h-31.5h-78h-93h-78h-31.5v0v0v0v0q-7 15 -7 40t7 40h47h55.5h62.5h67v0v0v0v0v0v0v0v0v42v104.5v125v104.5v42h80zM-40 498h80v-42v-104.5v-125v-104.5v-42v0v0v0v0v0v0v0v0h67.5h62h55.5h47q8 -15 8 -40t-8 -40v0v0v0v0h-31.5h-78
h-93h-78h-31.5v97v104.5v106v101v89.5zM582 376h-80v31.5v73.5v73.5v31.5v0v0v0v0v31.5v73.5v73.5v31.5h80v-420zM-40 376v420h80v-31.5v-73.5v-73.5v-31.5v0v0v0v0v-31.5v-73.5v-73.5v-31.5h-80zM582 674h-80v42v104.5v125v104.5v42v0v0v0v0v0v0v0v0h-67h-62.5h-55.5h-47
q-7 15 -7 40t7 40v0v0v0v0h31.5h78h93h78h31.5v-97v-104.5v-106v-101v-89.5zM-40 674v89.5v101v106v104.5v97h31.5h78h93h78h31.5v0v0v0v0q8 -15 8 -40t-8 -40h-47h-55.5h-62h-67.5v0v0v0v0v0v0v0v0v-42v-104.5v-125v-104.5v-42h-80zM232 1130v41.5v46.5v37.5v40.5v0v0
h-49.5h-50.5h-45.5h-46.5v0v0v-40.5v-37.5v-46.5v-41.5h-80v46.5v76v123.5v0v0h332v0v0v0v-128v-75v-43h-60zM310 1130h-60v43v75v128v0v0v0h332v0v0v-123.5v-76v-46.5h-80v41.5v46.5v37.5v40.5v0v0h-45.5h-46.5h-49.5h-50.5v0v0v-40.5v-37.5v-46.5v-41.5z" />
    <glyph glyph-name="Eth" unicode="&#xd0;" 
d="M504 576v24v59v70v59v24v0v0q0 4 0.5 5.5t2 2t5.5 0.5h21.5h21h21.5q4 0 5.5 -0.5t2 -2t0.5 -5.5v0v0v-24v-59v-70v-59v-24v-15.5v-39.5v-51v-51v-39.5v-15.5v0v0q0 -4 -0.5 -5.5t-2 -2t-5.5 -0.5h-31.5h-32.5q-4 0 -5.5 0.5t-2 2t-0.5 5.5v0v0v15.5v39.5v51v51v39.5
v15.5zM1100 196h-80v79.5v260.5v5v5v5v5v288.5v91.5h80v-740zM1100 558v-40.5v-104v-134.5v-134.5v-104v-40.5v0v0v0v0h-42h-108.5h-141.5h-141.5h-108.5h-42v0v0v0v0v0v80h28.5h70.5h84h70.5h28.5v0v0v0q3 0 26.5 30t56 74.5t64.5 89.5t53.5 77t21.5 35v17.5v43v51v43v17.5
h80zM1100 614h-80v17.5v43v51v43v17.5q0 3 -21.5 35t-53.5 77t-64.5 89.5t-56 74.5t-26.5 30v0v0v0h-28.5h-70.5h-84h-70.5h-28.5v80v0v0v0v0v0h42h108.5h141.5h141.5h108.5h42v0v0v0v0v-40.5v-104v-134.5v-134.5v-104v-40.5zM-40 596h80v-43v-57v0v0h17h34h17v-42v-104
v-124v-104v-42h43h107h128h107h43v0v0v0v0v0h1h2h2h2h1v-39.5v-40.5v0v0v0v0v0h-42h-108.5h-141.5h-141.5h-108.5h-42v0v0v0v0v43v111v144v144v111v43zM-40 576v43v111v144v144v111v43v0v0v0v0h42h108.5h141.5h141.5h108.5h42v0v0v0v0v0v-39.5v-40.5h-1h-2h-2h-2h-1v0v0v0v0
v0h-43h-107h-128h-107h-43v-42v-104v-124v-104v-42h-17h-34h-17v0v0v-56.5v-43.5h-80z" />
    <glyph glyph-name="Ntilde" unicode="&#xd1;" 
d="M1100 396h-80v31.5v73.5v73.5v31.5v0v0v0v0v31.5v73.5v73.5v31.5h80v-420zM-40 396v420h80v-31.5v-73.5v-73.5v-31.5v0v0v0v0v-31.5v-73.5v-73.5v-31.5h-80zM1100 558v-40.5v-104v-134.5v-134.5v-104v-40.5v0v0v0v0h-42h-108.5h-141.5h-141.5h-108.5h-42v0v0v0v0v0v40.5
v39.5h36.5h94h121.5h121.5h94h36.5v0v0v0v0v0v0v0v0v0v0v0v0v0v34.5v89v115.5v115.5v89v34.5h80zM-40 558h80v-34.5v-89v-115.5v-115.5v-89v-34.5v0v0v0v0v0v0v0v0v0v0v0v0v0h36.5h94h121.5h121.5h94h36.5v-39.5v-40.5v0v0v0v0v0h-42h-108.5h-141.5h-141.5h-108.5h-42v0v0v0
v0v40.5v104v134.5v134.5v104v40.5zM1100 614h-80v34.5v89v115.5v115.5v89v34.5v0v0v0v0v0v0v0v0v0v0v0v0v0h-36.5h-94h-121.5h-121.5h-94h-36.5v40.5v39.5v0v0v0v0v0h42h108.5h141.5h141.5h108.5h42v0v0v0v0v-40.5v-104v-134.5v-134.5v-104v-40.5zM-40 614v40.5v104v134.5
v134.5v104v40.5v0v0v0v0h42h108.5h141.5h141.5h108.5h42v0v0v0v0v0v-39.5v-40.5h-36.5h-94h-121.5h-121.5h-94h-36.5v0v0v0v0v0v0v0v0v0v0v0v0v0v-34.5v-89v-115.5v-115.5v-89v-34.5h-80zM555 78v0v0v0v0v0v0v0v0l-6.5 -9t-13.5 -18l-7 -9v0v0v0l-13 9t-25.5 17.5l-12.5 8.5
v0v0v0v0v0v0v0l-8.5 35t-21.5 90t-27.5 117t-27.5 117t-21.5 90l-8.5 35v0v0v0l18.5 5t37 9.5l18.5 4.5v0v0v0v0v0v0l8.5 -36.5t22 -93.5t29 -121t29 -121t22 -93.5zM507 1096v0v0v0v0v0v0v0v0l7 9t13.5 18l6.5 9v0v0v0l12.5 -8.5t25.5 -17.5l13 -9v0v0v0v0v0v0v0l8.5 -35
t21.5 -90t27.5 -117t27.5 -117t21.5 -90l8.5 -35v0v0v0l-18.5 -4.5t-37 -9.5l-18.5 -5v0v0v0v0v0v0l-8.5 36.5t-22 93.5t-29 121t-29 121t-22 93.5zM688 1116h-228v0h-302v26.5v65v77v65v26.5v0v0h29.5h73.5h88.5h75.5h33h16.5h40.5h48h40.5h16.5v0v0v0v0h282v0v0v-106.5
v-72.5v-81h-32.5h-74.5h-74.5h-32.5zM594 1162h34h79h79h34v0v0v46v45.5v60.5v0v0h-118v0v0v-30v-32v0v0l-20 5t-49 12t-59 14t-50.5 12t-21.5 5h-43h-91h-89.5h-38.5v0v0v-21v-48v-48v-21h118v0v0v28v15v6v1l24 -5t59 -12.5l70 -15t59 -12.5z" />
    <glyph glyph-name="Ograve" unicode="&#xd2;" 
d="M-40 558h80v-318q0 -3 15.5 -20t38.5 -40.5t47 -46.5t41 -38t20 -15v0v0v0h34.5h85.5h102h85.5h34.5v-39.5v-40.5v0v0v0v0v0h-52h-111.5h-139h-136.5h-104.5h-40.5v0v0v0v0v40.5v104v134.5v134.5v104v40.5zM1100 558v-40.5v-104v-134.5v-134.5v-104v-40.5v0v0v0v0h-40.5
h-104.5h-136.5h-139h-111.5h-52v0v0v0v0v0v40.5v39.5h34.5h85.5h102h85.5h34.5v0v0v0q3 0 20 15t41 38t47 46.5t38.5 40.5t15.5 20v318h80zM-40 614v40.5v104v134.5v134.5v104v40.5v0v0v0v0h40.5h104.5h136.5h139h111.5h52v0v0v0v0v0v-39.5v-40.5h-34.5h-85.5h-102h-85.5
h-34.5v0v0v0q-3 0 -20 -15t-41 -38t-47 -46.5t-38.5 -40.5t-15.5 -20v-318h-80zM1100 614h-80v318q0 3 -15.5 20t-38.5 40.5t-47 46.5t-41 38t-20 15v0v0v0h-34.5h-85.5h-102h-85.5h-34.5v40.5v39.5v0v0v0v0v0h52h111.5h139h136.5h104.5h40.5v0v0v0v0v-40.5v-104v-134.5
v-134.5v-104v-40.5zM1100 376h-80v31.5v73.5v73.5v31.5v0v0v0v0v31.5v73.5v73.5v31.5h80v-420zM-40 376v420h80v-31.5v-73.5v-73.5v-31.5v0v0v0v0v-31.5v-73.5v-73.5v-31.5h-80zM490 576v24v59v70v59v24v0v0q0 4 0.5 5.5t2 2t5.5 0.5h21.5h21h21.5q4 0 5.5 -0.5t2 -2
t0.5 -5.5v0v0v-24v-59v-70v-59v-24v-15.5v-39.5v-51v-51v-39.5v-15.5v0v0q0 -4 -0.5 -5.5t-2 -2t-5.5 -0.5h-31.5h-32.5q-4 0 -5.5 0.5t-2 2t-0.5 5.5v0v0v15.5v39.5v51v51v39.5v15.5zM896 1132h-80v33.5v32.5v48v0v0l-41.5 4t-106.5 9.5t-138 12.5t-138 12.5t-106.5 9.5
l-41.5 4v0v0v-68v-42.5v-29v-26.5h-80v20v30.5v47v69.5v99v0v0l53 -6t136 -15.5t177 -19.5t177 -19.5t136 -15.5l53 -6v0v0v-92v-53.5v-26.5v-12z" />
    <glyph glyph-name="Oacute" unicode="&#xd3;" 
d="M-40 558h80v-318q0 -3 15.5 -20t38.5 -40.5t47 -46.5t41 -38t20 -15v0v0v0h34.5h85.5h102h85.5h34.5v-39.5v-40.5v0v0v0v0v0h-52h-111.5h-139h-136.5h-104.5h-40.5v0v0v0v0v40.5v104v134.5v134.5v104v40.5zM1100 558v-40.5v-104v-134.5v-134.5v-104v-40.5v0v0v0v0h-40.5
h-104.5h-136.5h-139h-111.5h-52v0v0v0v0v0v40.5v39.5h34.5h85.5h102h85.5h34.5v0v0v0q3 0 20 15t41 38t47 46.5t38.5 40.5t15.5 20v318h80zM-40 614v40.5v104v134.5v134.5v104v40.5v0v0v0v0h40.5h104.5h136.5h139h111.5h52v0v0v0v0v0v-39.5v-40.5h-34.5h-85.5h-102h-85.5
h-34.5v0v0v0q-3 0 -20 -15t-41 -38t-47 -46.5t-38.5 -40.5t-15.5 -20v-318h-80zM1100 614h-80v318q0 3 -15.5 20t-38.5 40.5t-47 46.5t-41 38t-20 15v0v0v0h-34.5h-85.5h-102h-85.5h-34.5v40.5v39.5v0v0v0v0v0h52h111.5h139h136.5h104.5h40.5v0v0v0v0v-40.5v-104v-134.5
v-134.5v-104v-40.5zM1100 376h-80v31.5v73.5v73.5v31.5v0v0v0v0v31.5v73.5v73.5v31.5h80v-420zM-40 376v420h80v-31.5v-73.5v-73.5v-31.5v0v0v0v0v-31.5v-73.5v-73.5v-31.5h-80zM490 576v24v59v70v59v24v0v0q0 4 0.5 5.5t2 2t5.5 0.5h21.5h21h21.5q4 0 5.5 -0.5t2 -2
t0.5 -5.5v0v0v-24v-59v-70v-59v-24v-15.5v-39.5v-51v-51v-39.5v-15.5v0v0q0 -4 -0.5 -5.5t-2 -2t-5.5 -0.5h-31.5h-32.5q-4 0 -5.5 0.5t-2 2t-0.5 5.5v0v0v15.5v39.5v51v51v39.5v15.5zM164 1132v12v26.5v53.5v92v0v0l53 6t136 15.5t177 19.5t177 19.5t136 15.5l53 6v0v0v-99
v-69.5v-47v-30.5v-20h-80v26.5v29v42.5v68v0v0l-41.5 -4t-106.5 -9.5t-138 -12.5t-138 -12.5t-106.5 -9.5l-41.5 -4v0v0v-48v-32.5v-33.5h-80z" />
    <glyph glyph-name="Ocircumflex" unicode="&#xd4;" 
d="M-40 558h80v-318q0 -3 15.5 -20t38.5 -40.5t47 -46.5t41 -38t20 -15v0v0v0h34.5h85.5h102h85.5h34.5v-39.5v-40.5v0v0v0v0v0h-52h-111.5h-139h-136.5h-104.5h-40.5v0v0v0v0v40.5v104v134.5v134.5v104v40.5zM1100 558v-40.5v-104v-134.5v-134.5v-104v-40.5v0v0v0v0h-40.5
h-104.5h-136.5h-139h-111.5h-52v0v0v0v0v0v40.5v39.5h34.5h85.5h102h85.5h34.5v0v0v0q3 0 20 15t41 38t47 46.5t38.5 40.5t15.5 20v318h80zM-40 614v40.5v104v134.5v134.5v104v40.5v0v0v0v0h40.5h104.5h136.5h139h111.5h52v0v0v0v0v0v-39.5v-40.5h-34.5h-85.5h-102h-85.5
h-34.5v0v0v0q-3 0 -20 -15t-41 -38t-47 -46.5t-38.5 -40.5t-15.5 -20v-318h-80zM1100 614h-80v318q0 3 -15.5 20t-38.5 40.5t-47 46.5t-41 38t-20 15v0v0v0h-34.5h-85.5h-102h-85.5h-34.5v40.5v39.5v0v0v0v0v0h52h111.5h139h136.5h104.5h40.5v0v0v0v0v-40.5v-104v-134.5
v-134.5v-104v-40.5zM1100 376h-80v31.5v73.5v73.5v31.5v0v0v0v0v31.5v73.5v73.5v31.5h80v-420zM-40 376v420h80v-31.5v-73.5v-73.5v-31.5v0v0v0v0v-31.5v-73.5v-73.5v-31.5h-80zM490 576v24v59v70v59v24v0v0q0 4 0.5 5.5t2 2t5.5 0.5h21.5h21h21.5q4 0 5.5 -0.5t2 -2
t0.5 -5.5v0v0v-24v-59v-70v-59v-24v-15.5v-39.5v-51v-51v-39.5v-15.5v0v0q0 -4 -0.5 -5.5t-2 -2t-5.5 -0.5h-31.5h-32.5q-4 0 -5.5 0.5t-2 2t-0.5 5.5v0v0v15.5v39.5v51v51v39.5v15.5zM816 1136v0v0v0v0v0v19.5v39v19.5l-29 8.5t-71.5 20.5l-85 24t-71.5 20.5l-29 8.5v0v0v0
v0l-29 -8.5t-71.5 -20.5l-85 -24t-71.5 -20.5l-29 -8.5v-19.5v-39v-19.5v0v0v0v0v0h-20h-40h-20v0v0v0v0v0v20.5v47.5v47.5v20.5l37 12t91.5 29.5l109 35t91.5 29.5l37 12v0v0v0v0l37 -12t91.5 -29.5l109 -35t91.5 -29.5l37 -12v-20.5v-47.5v-47.5v-20.5v0v0v0v0v0h-20h-40
h-20z" />
    <glyph glyph-name="Otilde" unicode="&#xd5;" 
d="M-40 558h80v-318q0 -3 15.5 -20t38.5 -40.5t47 -46.5t41 -38t20 -15v0v0v0h34.5h85.5h102h85.5h34.5v-39.5v-40.5v0v0v0v0v0h-52h-111.5h-139h-136.5h-104.5h-40.5v0v0v0v0v40.5v104v134.5v134.5v104v40.5zM1100 558v-40.5v-104v-134.5v-134.5v-104v-40.5v0v0v0v0h-40.5
h-104.5h-136.5h-139h-111.5h-52v0v0v0v0v0v40.5v39.5h34.5h85.5h102h85.5h34.5v0v0v0q3 0 20 15t41 38t47 46.5t38.5 40.5t15.5 20v318h80zM-40 614v40.5v104v134.5v134.5v104v40.5v0v0v0v0h40.5h104.5h136.5h139h111.5h52v0v0v0v0v0v-39.5v-40.5h-34.5h-85.5h-102h-85.5
h-34.5v0v0v0q-3 0 -20 -15t-41 -38t-47 -46.5t-38.5 -40.5t-15.5 -20v-318h-80zM1100 614h-80v318q0 3 -15.5 20t-38.5 40.5t-47 46.5t-41 38t-20 15v0v0v0h-34.5h-85.5h-102h-85.5h-34.5v40.5v39.5v0v0v0v0v0h52h111.5h139h136.5h104.5h40.5v0v0v0v0v-40.5v-104v-134.5
v-134.5v-104v-40.5zM1100 376h-80v31.5v73.5v73.5v31.5v0v0v0v0v31.5v73.5v73.5v31.5h80v-420zM-40 376v420h80v-31.5v-73.5v-73.5v-31.5v0v0v0v0v-31.5v-73.5v-73.5v-31.5h-80zM490 576v24v59v70v59v24v0v0q0 4 0.5 5.5t2 2t5.5 0.5h21.5h21h21.5q4 0 5.5 -0.5t2 -2
t0.5 -5.5v0v0v-24v-59v-70v-59v-24v-15.5v-39.5v-51v-51v-39.5v-15.5v0v0q0 -4 -0.5 -5.5t-2 -2t-5.5 -0.5h-31.5h-32.5q-4 0 -5.5 0.5t-2 2t-0.5 5.5v0v0v15.5v39.5v51v51v39.5v15.5zM688 1116h-228v0h-302v26.5v65v77v65v26.5v0v0h29.5h73.5h88.5h75.5h33h16.5h40.5h48
h40.5h16.5v0v0v0v0h282v0v0v-106.5v-72.5v-81h-32.5h-74.5h-74.5h-32.5zM594 1162h34h79h79h34v0v0v46v45.5v60.5v0v0h-118v0v0v-30v-32v0v0l-20 5t-49 12t-59 14t-50.5 12t-21.5 5h-43h-91h-89.5h-38.5v0v0v-21v-48v-48v-21h118v0v0v28v15v6v1l24 -5t59 -12.5l70 -15
t59 -12.5z" />
    <glyph glyph-name="Odieresis" unicode="&#xd6;" 
d="M-40 558h80v-318q0 -3 15.5 -20t38.5 -40.5t47 -46.5t41 -38t20 -15v0v0v0h34.5h85.5h102h85.5h34.5v-39.5v-40.5v0v0v0v0v0h-52h-111.5h-139h-136.5h-104.5h-40.5v0v0v0v0v40.5v104v134.5v134.5v104v40.5zM1100 558v-40.5v-104v-134.5v-134.5v-104v-40.5v0v0v0v0h-40.5
h-104.5h-136.5h-139h-111.5h-52v0v0v0v0v0v40.5v39.5h34.5h85.5h102h85.5h34.5v0v0v0q3 0 20 15t41 38t47 46.5t38.5 40.5t15.5 20v318h80zM-40 614v40.5v104v134.5v134.5v104v40.5v0v0v0v0h40.5h104.5h136.5h139h111.5h52v0v0v0v0v0v-39.5v-40.5h-34.5h-85.5h-102h-85.5
h-34.5v0v0v0q-3 0 -20 -15t-41 -38t-47 -46.5t-38.5 -40.5t-15.5 -20v-318h-80zM1100 614h-80v318q0 3 -15.5 20t-38.5 40.5t-47 46.5t-41 38t-20 15v0v0v0h-34.5h-85.5h-102h-85.5h-34.5v40.5v39.5v0v0v0v0v0h52h111.5h139h136.5h104.5h40.5v0v0v0v0v-40.5v-104v-134.5
v-134.5v-104v-40.5zM1100 376h-80v31.5v73.5v73.5v31.5v0v0v0v0v31.5v73.5v73.5v31.5h80v-420zM-40 376v420h80v-31.5v-73.5v-73.5v-31.5v0v0v0v0v-31.5v-73.5v-73.5v-31.5h-80zM490 576v24v59v70v59v24v0v0q0 4 0.5 5.5t2 2t5.5 0.5h21.5h21h21.5q4 0 5.5 -0.5t2 -2
t0.5 -5.5v0v0v-24v-59v-70v-59v-24v-15.5v-39.5v-51v-51v-39.5v-15.5v0v0q0 -4 -0.5 -5.5t-2 -2t-5.5 -0.5h-31.5h-32.5q-4 0 -5.5 0.5t-2 2t-0.5 5.5v0v0v15.5v39.5v51v51v39.5v15.5zM490 1130v41.5v46.5v37.5v40.5v0v0h-60h-60h-62.5h-63.5v0v0v-40.5v-37.5v-46.5v-41.5
h-80v46.5v76v123.5v0v0h386v0v0v0v-128v-75v-43h-60zM570 1130h-60v43v75v128v0v0v0h386v0v0v-123.5v-76v-46.5h-80v41.5v46.5v37.5v40.5v0v0h-62.5h-63.5h-60h-60v0v0v-40.5v-37.5v-46.5v-41.5z" />
    <glyph glyph-name="multiply" unicode="&#xd7;" horiz-adv-x="1018" 
d="M517 760l-16 16.5t-47 48t-75 75.5v0v0v0l-194 -194v0v0v0l76 -76t46.5 -47.5l15.5 -16.5v0l-14.5 -14.5l-43.5 -43.5l-72 -72v0v0l188 -188v0v0l97.5 97.5l32.5 32.5v0l34.5 -33t95.5 -95v0v0v0l194 194v0v0v0q-42 42 -71 70.5t-44 43l-15 14.5v0l15 15l44 44l71 71v0v0
l-188 188v0v0v0q-39 -38 -68 -67.5t-45.5 -46l-16.5 -16.5v0zM-40 -2v0v0v0v0v0v0v0v0v63.5v168.5v230v250v230v168.5v63.5v0v0v0v0v0v0v0v0h110.5h123.5h121h104.5h73.5h27v0v0v0v0v0v0h26h70h100h116.5h119h106.5v0v0v0v0v0v0v0v0v-63.5v-168.5v-230v-250v-230v-168.5
v-63.5v0v0v0v0v0v0v0v0h-106h-118.5h-116.5h-100.5h-70.5h-26v0v0v0v0v0v0h-27h-73h-103.5h-120.5h-124h-112z" />
    <glyph glyph-name="Oslash" unicode="&#xd8;" 
d="M-40 558h80v-298q0 -3 13 -15.5t32 -29.5t38 -33t32 -27l13 -11v0v0v0l-9 -14t-21 -33t-21 -33l-9 -14v0v0h36.5h75.5h79.5h26.5v0v0l6 7.5l12 15l6 7.5h41.5h42.5h40h34h6.5h12h17.5v-20v-40v-20v0v0v0h-47h-110.5h-140h-139h-106.5h-41v0v0v0v0v0v0v0v0v0v0v40.5v104
v134.5v134.5v104v40.5zM1100 558v-40.5v-104v-134.5v-134.5v-104v-40.5v0v0v0v0h-40.5h-104.5h-136.5h-139h-111.5h-52v0v0v0v0v0v40.5v39.5h34.5h85.5h102h85.5h34.5v0v0v0q3 0 20 15t41 38t47 46.5t38.5 40.5t15.5 20v318h80zM-40 614v40.5v104v134.5v134.5v104v40.5v0v0
v0v0h40.5h104.5h136.5h139h111.5h52v0v0v0v0v0v-39.5v-40.5h-34.5h-85.5h-102h-85.5h-34.5v0v0v0q-3 0 -20 -15t-41 -38t-47 -46.5t-38.5 -40.5t-15.5 -20v-318h-80zM1100 614h-80v298q0 3 -13 15.5t-32 29.5t-38 33t-32 27l-13 11v0v0v0l9 14t21 33t21 33l9 14v0v0h-36.5
h-75.5h-79h-27v0v0l-6 -7.5l-12 -15l-6 -7.5h-41.5h-42.5h-40h-34h-6.5h-12h-17.5v20v40v20v0v0v0h47.5h110h140h139h106.5h41v0v0v0v0v0v0v0v0v0v0v-40.5v-104v-134.5v-134.5v-104v-40.5zM1100 376h-80v31.5v73.5v73.5v31.5v0v0v0v0v31.5v73.5v73.5v31.5h80v-420zM-40 376
v420h80v-31.5v-73.5v-73.5v-31.5v0v0v0v0v-31.5v-73.5v-73.5v-31.5h-80zM490 576v24v59v70v59v24v0v0q0 4 0.5 5.5t2 2t5.5 0.5h21.5h21h21.5q4 0 5.5 -0.5t2 -2t0.5 -5.5v0v0v-24v-59v-70v-59v-24v-15.5v-39.5v-51v-51v-39.5v-15.5v0v0q0 -4 -0.5 -5.5t-2 -2t-5.5 -0.5
h-31.5h-32.5q-4 0 -5.5 0.5t-2 2t-0.5 5.5v0v0v15.5v39.5v51v51v39.5v15.5z" />
    <glyph glyph-name="Ugrave" unicode="&#xd9;" 
d="M-40 558h80v-318q0 -3 15.5 -20t38.5 -40.5t47 -46.5t41 -38t20 -15v0v0v0h34.5h85.5h102h85.5h34.5v-39.5v-40.5v0v0v0v0v0h-52h-111.5h-139h-136.5h-104.5h-40.5v0v0v0v0v40.5v104v134.5v134.5v104v40.5zM1100 558v-40.5v-104v-134.5v-134.5v-104v-40.5v0v0v0v0h-40.5
h-104.5h-136.5h-139h-111.5h-52v0v0v0v0v0v40.5v39.5h34.5h85.5h102h85.5h34.5v0v0v0q3 0 20 15t41 38t47 46.5t38.5 40.5t15.5 20v318h80zM1100 796v-420h-80v31.5v73.5v73.5v31.5v0v0v0v0v31.5v73.5v73.5v31.5h80zM-40 796h80v-31.5v-73.5v-73.5v-31.5v0v0v0v0v-31.5
v-73.5v-73.5v-31.5h-80v420zM1100 614h-80v34.5v89v115.5v115.5v89v34.5v0v0v0v0v0v0v0v0v0v0v0v0v0h-36.5h-94h-121.5h-121.5h-94h-36.5v40.5v39.5v0v0v0v0v0h42h108.5h141.5h141.5h108.5h42v0v0v0v0v-40.5v-104v-134.5v-134.5v-104v-40.5zM-40 614v40.5v104v134.5v134.5
v104v40.5v0v0v0v0h42h108.5h141.5h141.5h108.5h42v0v0v0v0v0v-39.5v-40.5h-36.5h-94h-121.5h-121.5h-94h-36.5v0v0v0v0v0v0v0v0v0v0v0v0v0v-34.5v-89v-115.5v-115.5v-89v-34.5h-80zM498 1100h16h32h16h4.5t2.5 -1t1 -2.5v-4.5v0v0v0v0v0v0v-52.5v-135.5v-176v-176v-135.5
v-52.5q0 -4 -0.5 -5.5t-2 -2t-5.5 -0.5h-16h-32h-16q-4 0 -5.5 0.5t-2 2t-0.5 5.5v52.5v135.5v176v176v135.5v52.5v0v0v0v0v0v0v4.5t1 2.5t2.5 1h4.5zM896 1132h-80v33.5v32.5v48v0v0l-41.5 4t-106.5 9.5t-138 12.5t-138 12.5t-106.5 9.5l-41.5 4v0v0v-68v-42.5v-29v-26.5
h-80v20v30.5v47v69.5v99v0v0l53 -6t136 -15.5t177 -19.5t177 -19.5t136 -15.5l53 -6v0v0v-92v-53.5v-26.5v-12z" />
    <glyph glyph-name="Uacute" unicode="&#xda;" 
d="M-40 558h80v-318q0 -3 15.5 -20t38.5 -40.5t47 -46.5t41 -38t20 -15v0v0v0h34.5h85.5h102h85.5h34.5v-39.5v-40.5v0v0v0v0v0h-52h-111.5h-139h-136.5h-104.5h-40.5v0v0v0v0v40.5v104v134.5v134.5v104v40.5zM1100 558v-40.5v-104v-134.5v-134.5v-104v-40.5v0v0v0v0h-40.5
h-104.5h-136.5h-139h-111.5h-52v0v0v0v0v0v40.5v39.5h34.5h85.5h102h85.5h34.5v0v0v0q3 0 20 15t41 38t47 46.5t38.5 40.5t15.5 20v318h80zM1100 796v-420h-80v31.5v73.5v73.5v31.5v0v0v0v0v31.5v73.5v73.5v31.5h80zM-40 796h80v-31.5v-73.5v-73.5v-31.5v0v0v0v0v-31.5
v-73.5v-73.5v-31.5h-80v420zM1100 614h-80v34.5v89v115.5v115.5v89v34.5v0v0v0v0v0v0v0v0v0v0v0v0v0h-36.5h-94h-121.5h-121.5h-94h-36.5v40.5v39.5v0v0v0v0v0h42h108.5h141.5h141.5h108.5h42v0v0v0v0v-40.5v-104v-134.5v-134.5v-104v-40.5zM-40 614v40.5v104v134.5v134.5
v104v40.5v0v0v0v0h42h108.5h141.5h141.5h108.5h42v0v0v0v0v0v-39.5v-40.5h-36.5h-94h-121.5h-121.5h-94h-36.5v0v0v0v0v0v0v0v0v0v0v0v0v0v-34.5v-89v-115.5v-115.5v-89v-34.5h-80zM498 1100h16h32h16h4.5t2.5 -1t1 -2.5v-4.5v0v0v0v0v0v0v-52.5v-135.5v-176v-176v-135.5
v-52.5q0 -4 -0.5 -5.5t-2 -2t-5.5 -0.5h-16h-32h-16q-4 0 -5.5 0.5t-2 2t-0.5 5.5v52.5v135.5v176v176v135.5v52.5v0v0v0v0v0v0v4.5t1 2.5t2.5 1h4.5zM164 1132v12v26.5v53.5v92v0v0l53 6t136 15.5t177 19.5t177 19.5t136 15.5l53 6v0v0v-99v-69.5v-47v-30.5v-20h-80v26.5
v29v42.5v68v0v0l-41.5 -4t-106.5 -9.5t-138 -12.5t-138 -12.5t-106.5 -9.5l-41.5 -4v0v0v-48v-32.5v-33.5h-80z" />
    <glyph glyph-name="Ucircumflex" unicode="&#xdb;" 
d="M-40 558h80v-318q0 -3 15.5 -20t38.5 -40.5t47 -46.5t41 -38t20 -15v0v0v0h34.5h85.5h102h85.5h34.5v-39.5v-40.5v0v0v0v0v0h-52h-111.5h-139h-136.5h-104.5h-40.5v0v0v0v0v40.5v104v134.5v134.5v104v40.5zM1100 558v-40.5v-104v-134.5v-134.5v-104v-40.5v0v0v0v0h-40.5
h-104.5h-136.5h-139h-111.5h-52v0v0v0v0v0v40.5v39.5h34.5h85.5h102h85.5h34.5v0v0v0q3 0 20 15t41 38t47 46.5t38.5 40.5t15.5 20v318h80zM1100 796v-420h-80v31.5v73.5v73.5v31.5v0v0v0v0v31.5v73.5v73.5v31.5h80zM-40 796h80v-31.5v-73.5v-73.5v-31.5v0v0v0v0v-31.5
v-73.5v-73.5v-31.5h-80v420zM1100 614h-80v34.5v89v115.5v115.5v89v34.5v0v0v0v0v0v0v0v0v0v0v0v0v0h-36.5h-94h-121.5h-121.5h-94h-36.5v40.5v39.5v0v0v0v0v0h42h108.5h141.5h141.5h108.5h42v0v0v0v0v-40.5v-104v-134.5v-134.5v-104v-40.5zM-40 614v40.5v104v134.5v134.5
v104v40.5v0v0v0v0h42h108.5h141.5h141.5h108.5h42v0v0v0v0v0v-39.5v-40.5h-36.5h-94h-121.5h-121.5h-94h-36.5v0v0v0v0v0v0v0v0v0v0v0v0v0v-34.5v-89v-115.5v-115.5v-89v-34.5h-80zM498 1100h16h32h16h4.5t2.5 -1t1 -2.5v-4.5v0v0v0v0v0v0v-52.5v-135.5v-176v-176v-135.5
v-52.5q0 -4 -0.5 -5.5t-2 -2t-5.5 -0.5h-16h-32h-16q-4 0 -5.5 0.5t-2 2t-0.5 5.5v52.5v135.5v176v176v135.5v52.5v0v0v0v0v0v0v4.5t1 2.5t2.5 1h4.5zM816 1136v0v0v0v0v0v19.5v39v19.5l-29 8.5t-71.5 20.5l-85 24t-71.5 20.5l-29 8.5v0v0v0v0l-29 -8.5t-71.5 -20.5l-85 -24
t-71.5 -20.5l-29 -8.5v-19.5v-39v-19.5v0v0v0v0v0h-20h-40h-20v0v0v0v0v0v20.5v47.5v47.5v20.5l37 12t91.5 29.5l109 35t91.5 29.5l37 12v0v0v0v0l37 -12t91.5 -29.5l109 -35t91.5 -29.5l37 -12v-20.5v-47.5v-47.5v-20.5v0v0v0v0v0h-20h-40h-20z" />
    <glyph glyph-name="Udieresis" unicode="&#xdc;" 
d="M-40 558h80v-318q0 -3 15.5 -20t38.5 -40.5t47 -46.5t41 -38t20 -15v0v0v0h34.5h85.5h102h85.5h34.5v-39.5v-40.5v0v0v0v0v0h-52h-111.5h-139h-136.5h-104.5h-40.5v0v0v0v0v40.5v104v134.5v134.5v104v40.5zM1100 558v-40.5v-104v-134.5v-134.5v-104v-40.5v0v0v0v0h-40.5
h-104.5h-136.5h-139h-111.5h-52v0v0v0v0v0v40.5v39.5h34.5h85.5h102h85.5h34.5v0v0v0q3 0 20 15t41 38t47 46.5t38.5 40.5t15.5 20v318h80zM1100 796v-420h-80v31.5v73.5v73.5v31.5v0v0v0v0v31.5v73.5v73.5v31.5h80zM-40 796h80v-31.5v-73.5v-73.5v-31.5v0v0v0v0v-31.5
v-73.5v-73.5v-31.5h-80v420zM1100 614h-80v34.5v89v115.5v115.5v89v34.5v0v0v0v0v0v0v0v0v0v0v0v0v0h-36.5h-94h-121.5h-121.5h-94h-36.5v40.5v39.5v0v0v0v0v0h42h108.5h141.5h141.5h108.5h42v0v0v0v0v-40.5v-104v-134.5v-134.5v-104v-40.5zM-40 614v40.5v104v134.5v134.5
v104v40.5v0v0v0v0h42h108.5h141.5h141.5h108.5h42v0v0v0v0v0v-39.5v-40.5h-36.5h-94h-121.5h-121.5h-94h-36.5v0v0v0v0v0v0v0v0v0v0v0v0v0v-34.5v-89v-115.5v-115.5v-89v-34.5h-80zM498 1100h16h32h16h4.5t2.5 -1t1 -2.5v-4.5v0v0v0v0v0v0v-52.5v-135.5v-176v-176v-135.5
v-52.5q0 -4 -0.5 -5.5t-2 -2t-5.5 -0.5h-16h-32h-16q-4 0 -5.5 0.5t-2 2t-0.5 5.5v52.5v135.5v176v176v135.5v52.5v0v0v0v0v0v0v4.5t1 2.5t2.5 1h4.5zM490 1130v41.5v46.5v37.5v40.5v0v0h-60h-60h-62.5h-63.5v0v0v-40.5v-37.5v-46.5v-41.5h-80v46.5v76v123.5v0v0h386v0v0v0
v-128v-75v-43h-60zM570 1130h-60v43v75v128v0v0v0h386v0v0v-123.5v-76v-46.5h-80v41.5v46.5v37.5v40.5v0v0h-62.5h-63.5h-60h-60v0v0v-40.5v-37.5v-46.5v-41.5z" />
    <glyph glyph-name="Yacute" unicode="&#xdd;" 
d="M1100 558v-40.5v-104v-134.5v-134.5v-104v-40.5v0v0v0v0h-40.5h-104.5h-136.5h-139h-111.5h-52v0v0v0v0v0v40.5v39.5h34.5h85.5h102h85.5h34.5v0v0v0q3 0 20 15t41 38t47 46.5t38.5 40.5t15.5 20v318h80zM1100 796v-420h-80v31.5v73.5v73.5v31.5v0v0v0v0v31.5v73.5v73.5
v31.5h80zM1100 614h-80v34.5v89v115.5v115.5v89v34.5v0v0v0v0v0v0v0v0v0v0v0v0h-36.5h-94h-121.5h-121.5h-94h-36.5v40.5v39.5v0v0v0v0v0h42h108.5h141.5h141.5h108.5h42v0v0v0v0v-40.5v-104v-134.5v-134.5v-104v-40.5zM-40 614v40.5v104v134.5v134.5v104v40.5v0v0v0v0h42
h108.5h141.5h141.5h108.5h42v0v0v0v0v0v-39.5v-40.5h-36.5h-94h-121.5h-121.5h-94h-36.5v0v0v0v0v0v0v0v0v0v0v0v0v-34.5v-89v-115.5v-115.5v-89v-34.5h-80zM196 422h27h69h90h90h69h27v-10.5v-21v-10.5v-9.5v-19v-9.5h-67.5h-95h-108h-108h-95.5h-70v0v0v0v53.5v87.5v97v82
v42h16v-35v-48v-59q0 -3 15 -18t37 -35.5t45 -40.5t39.5 -33t19.5 -13zM-40 558h80v-34.5v-89v-115.5v-115.5v-89v-34.5v0v0v0v0v0v0v0v0v0v0v0v0h36.5h94h121.5h121.5h94h36.5v-39.5v-40.5v0v0v0v0v0h-42h-108.5h-141.5h-141.5h-108.5h-42v0v0v0v0v40.5v104v134.5v134.5
v104v40.5zM-40 378v420h80v-31.5v-73.5v-73.5v-31.5v0v0v0v0v-31.5v-73.5v-73.5v-31.5h-80zM500 1108h16h32h16h4.5t2.5 -1t1 -2.5v-4.5v0v0v0v0v0v-31v-79.5v-103.5v-103.5v-79.5v-31q0 -4 -0.5 -5.5t-2 -2t-5.5 -0.5h-16h-32h-16q-4 0 -5.5 0.5t-2 2t-0.5 5.5v31v79.5
v103.5v103.5v79.5v31v0v0v0v0v0v4.5t1 2.5t2.5 1h4.5zM164 1132v12v26.5v53.5v92v0v0l53 6t136 15.5t177 19.5t177 19.5t136 15.5l53 6v0v0v-99v-69.5v-47v-30.5v-20h-80v26.5v29v42.5v68v0v0l-41.5 -4t-106.5 -9.5t-138 -12.5t-138 -12.5t-106.5 -9.5l-41.5 -4v0v0v-48
v-32.5v-33.5h-80z" />
    <glyph glyph-name="Thorn" unicode="&#xde;" 
d="M1100 336h-80v88v63.5v78.5v0v0v0v0v76v43.5v41v69.5h80v-460zM-40 580h80v-500v0v0h35.5h81.5h81.5h35.5h32.5h75.5h75.5h32.5v0v0v162v0v0v0v0h22h58.5h79h84h75h49.5v0v0v0q4 0 21.5 15t41 38t46.5 46.5t38 40.5t15 20v0v0v0v156h80v-558h-40h-102.5h-133.5h-133.5
h-102.5h-40v0v0v0v0v0v0v0v0v0v0v0v0v0v0v0v0v0v0v0v0v0v0v0v0v0v0v0v0v0h-42.5h-109.5h-142h-142h-109.5h-42.5v580zM702 608v0v0v0v0v0v0v0q6 0 7 -1t1 -7v-21.5v-21v-21.5q0 -6 -1 -7t-7 -1v0v0v0v0v0v0v0h-37.5h-86.5h-86.5h-37.5v0v0q-6 0 -7 1t-1 7v21.5v21v21.5
q0 6 1 7t7 1v0v0h37.5h86.5h86.5h37.5zM-40 776h80v-31.5v-73.5v-73.5v-31.5v0v0v0v0v-31.5v-73.5v-73.5v-31.5h-80v420zM-40 592v580h31.5h78h93.5h80h35v0v0v0v0v0v0v0v0v0v0h33.5h76.5h89.5h74.5h30v-204h25h46.5h58.5h76h80.5h99.5h132v0v-394h-80v154v0v0q0 3 -15 20
t-38 40.5t-46.5 46.5t-41 38t-21.5 15v0v0v0h-61.5h-92h-96.5h-76h-30v0v0v0v0v204v0v0h-34h-78h-78h-34h-36h-83h-83h-36v0v0v-500h-80z" />
    <glyph glyph-name="germandbls" unicode="&#xdf;" 
d="M-40 376v420h80v-31.5v-73.5v-73.5v-31.5v0v0v0v0v-31.5v-73.5v-73.5v-31.5h-80zM1100 558v-40.5v-104v-134.5v-134.5v-104v-40.5v0v0v0v0h-40.5h-104.5h-136.5h-139h-111.5h-52v0v0v0v0v0v40.5v39.5h34.5h85.5h102h85.5h34.5v0v0v0q3 0 20 15t41 38t47 46.5t38.5 40.5
t15.5 20v318h80zM1100 614h-80v318q0 3 -15.5 20t-38.5 40.5t-47 46.5t-41 38t-20 15v0v0v0h-34.5h-85.5h-102h-85.5h-34.5v40.5v39.5v0v0v0v0v0h52h111.5h139h136.5h104.5h40.5v0v0v0v0v-40.5v-104v-134.5v-134.5v-104v-40.5zM880 566v0v0l21 17t49 40t49 40l21 17v100h38
h42v-43v-107v-128v-107v-43h-42h-38v100l-21 17t-49 40t-49 40l-21 17v0v0zM-40 558h80v-34.5v-89v-115.5v-115.5v-89v-34.5v0v0v0v0v0v0v0v0v0v0v0v0v0h36.5h94h121.5h121.5h94h36.5v-39.5v-40.5v0v0v0v0v0h-42h-108.5h-141.5h-141.5h-108.5h-42v0v0v0v0v40.5v104v134.5
v134.5v104v40.5zM-40 614v40.5v104v134.5v134.5v104v40.5v0v0v0v0h40.5h104.5h136.5h139h111.5h52v0v0v0v0v0v-39.5v-40.5h-34.5h-85.5h-102h-85.5h-34.5v0v0v0q-3 0 -20 -15t-41 -38t-47 -46.5t-38.5 -40.5t-15.5 -20v-318h-80zM516 788h56.5h48.5h47v0v0v-12v-13v-15v0v0
v-15v-13v-12v0v0h-46h-44.5h-49.5h-12.5h-31h-37h-31h-12.5v0v0q0 -16 0 -8.5v28.5v0v0v34v26v0v0h19h20.5h22h24h26.5zM528 384h-5.5h-13.5h-16h-13.5h-5.5h-8.5h-61.5v-16.5t0 2.5v20v36v0v0v0v29.5v8.5h61.5h8.5h5.5h13.5h16h13.5h5.5h49.5h44.5h46v0v0v-12v-13v-15v0v0
v-15v-13v-12v0v0h-46h-44.5h-49.5zM404 728l80 -20v0v0v-244v0v0l26 -40l-26 -40v0v0v-338v0v0h-80v0v0v682z" />
    <glyph glyph-name="agrave" unicode="&#xe0;" horiz-adv-x="984" 
d="M-40 558h80v-318q0 -3 15.5 -20t38.5 -40.5t47 -46.5t41 -38t20 -15v0v0v0v0h44.5h74h82h68.5h33v-39.5v-40.5v0v0v0v0v0h-39.5h-101h-131.5h-131.5h-101h-39.5v0v0v0v0v28v76v107v121.5v121.5v104zM-40 470v36v92.5v120.5v120.5v92.5v36v0v0v0v0h39.5h101h131.5h131.5
h101h39.5v0v0v0v0v0v-39.5v-40.5h-47h-116h-138h-116h-47v0v0v0v0v0v0v0v0v0v0v0v-42v-104.5v-125v-104.5v-42h-80zM1024 410h-80v318q0 3 -15.5 20t-38.5 40.5t-47 46.5t-41 38t-20 15v0v0v0v0h-44.5h-74h-82h-68.5h-33v40.5v39.5v0v0v0v0v0h39.5h101h131.5h131.5h101h39.5
v0v0v0v0v-28v-76v-107v-122v-121v-104zM1024 498v-36v-92.5v-120.5v-120.5v-92.5v-36v0v0v0v0h-39.5h-101h-131.5h-131.5h-101h-39.5v0v0v0v0v0v40.5v39.5h47h116h138h116h47v0v0v0v0v0v0v0v0v0v0v0v42v104.5v125v104.5v42h80zM1024 256h-80v88v63.5v78.5v0v0v0v0v76v43.5
v41v69.5h80v-460zM370 314v0v0v0v0v0v0v0q-6 0 -7 1t-1 7v21.5v21v21.5q0 6 1 7t7 1v0v0v0v0v0v0v0h37.5h86.5h86.5h37.5v0v0q6 0 7 -1t1 -7v-21.5v-21v-21.5q0 -6 -1 -7t-7 -1v0v0h-37.5h-86.5h-86.5h-37.5zM2 628h38v-7v-14v-7l40.5 6t100 14.5l119 17t100 14.5l40.5 6
l0.5 -4t2 -12.5t3.5 -21.5t3.5 -22t2 -13.5l0.5 -4.5l-41.5 -6t-103 -15l-123 -18t-103 -15l-41.5 -6v-9.5v-19v-9.5h-38v146zM858 928h-80v33.5v32.5v48v0v0l-41.5 4t-106.5 9.5t-138 12.5t-138 12.5t-106.5 9.5l-41.5 4v0v0v-68v-42.5v-29v-26.5h-80v20v30.5v47v69.5v99v0
v0l53 -6t136 -15.5t177 -19.5t177 -19.5t136 -15.5l53 -6v0v0v-92v-53.5v-26.5v-12z" />
    <glyph glyph-name="aacute" unicode="&#xe1;" horiz-adv-x="984" 
d="M-40 558h80v-318q0 -3 15.5 -20t38.5 -40.5t47 -46.5t41 -38t20 -15v0v0v0v0h44.5h74h82h68.5h33v-39.5v-40.5v0v0v0v0v0h-39.5h-101h-131.5h-131.5h-101h-39.5v0v0v0v0v28v76v107v121.5v121.5v104zM-40 470v36v92.5v120.5v120.5v92.5v36v0v0v0v0h39.5h101h131.5h131.5
h101h39.5v0v0v0v0v0v-39.5v-40.5h-47h-116h-138h-116h-47v0v0v0v0v0v0v0v0v0v0v0v-42v-104.5v-125v-104.5v-42h-80zM1024 410h-80v318q0 3 -15.5 20t-38.5 40.5t-47 46.5t-41 38t-20 15v0v0v0v0h-44.5h-74h-82h-68.5h-33v40.5v39.5v0v0v0v0v0h39.5h101h131.5h131.5h101h39.5
v0v0v0v0v-28v-76v-107v-122v-121v-104zM1024 498v-36v-92.5v-120.5v-120.5v-92.5v-36v0v0v0v0h-39.5h-101h-131.5h-131.5h-101h-39.5v0v0v0v0v0v40.5v39.5h47h116h138h116h47v0v0v0v0v0v0v0v0v0v0v0v42v104.5v125v104.5v42h80zM1024 256h-80v88v63.5v78.5v0v0v0v0v76v43.5
v41v69.5h80v-460zM370 314v0v0v0v0v0v0v0q-6 0 -7 1t-1 7v21.5v21v21.5q0 6 1 7t7 1v0v0v0v0v0v0v0h37.5h86.5h86.5h37.5v0v0q6 0 7 -1t1 -7v-21.5v-21v-21.5q0 -6 -1 -7t-7 -1v0v0h-37.5h-86.5h-86.5h-37.5zM2 628h38v-7v-14v-7l40.5 6t100 14.5l119 17t100 14.5l40.5 6
l0.5 -4t2 -12.5t3.5 -21.5t3.5 -22t2 -13.5l0.5 -4.5l-41.5 -6t-103 -15l-123 -18t-103 -15l-41.5 -6v-9.5v-19v-9.5h-38v146zM126 928v12v26.5v53.5v92v0v0l53 6t136 15.5t177 19.5t177 19.5t136 15.5l53 6v0v0v-99v-69.5v-47v-30.5v-20h-80v26.5v29v42.5v68v0v0l-41.5 -4
t-106.5 -9.5t-138 -12.5t-138 -12.5t-106.5 -9.5l-41.5 -4v0v0v-48v-32.5v-33.5h-80z" />
    <glyph glyph-name="acircumflex" unicode="&#xe2;" horiz-adv-x="984" 
d="M-40 558h80v-318q0 -3 15.5 -20t38.5 -40.5t47 -46.5t41 -38t20 -15v0v0v0v0h44.5h74h82h68.5h33v-39.5v-40.5v0v0v0v0v0h-39.5h-101h-131.5h-131.5h-101h-39.5v0v0v0v0v28v76v107v121.5v121.5v104zM-40 470v36v92.5v120.5v120.5v92.5v36v0v0v0v0h39.5h101h131.5h131.5
h101h39.5v0v0v0v0v0v-39.5v-40.5h-47h-116h-138h-116h-47v0v0v0v0v0v0v0v0v0v0v0v-42v-104.5v-125v-104.5v-42h-80zM1024 410h-80v318q0 3 -15.5 20t-38.5 40.5t-47 46.5t-41 38t-20 15v0v0v0v0h-44.5h-74h-82h-68.5h-33v40.5v39.5v0v0v0v0v0h39.5h101h131.5h131.5h101h39.5
v0v0v0v0v-28v-76v-107v-122v-121v-104zM1024 498v-36v-92.5v-120.5v-120.5v-92.5v-36v0v0v0v0h-39.5h-101h-131.5h-131.5h-101h-39.5v0v0v0v0v0v40.5v39.5h47h116h138h116h47v0v0v0v0v0v0v0v0v0v0v0v42v104.5v125v104.5v42h80zM1024 256h-80v88v63.5v78.5v0v0v0v0v76v43.5
v41v69.5h80v-460zM370 314v0v0v0v0v0v0v0q-6 0 -7 1t-1 7v21.5v21v21.5q0 6 1 7t7 1v0v0v0v0v0v0v0h37.5h86.5h86.5h37.5v0v0q6 0 7 -1t1 -7v-21.5v-21v-21.5q0 -6 -1 -7t-7 -1v0v0h-37.5h-86.5h-86.5h-37.5zM2 628h38v-7v-14v-7l40.5 6t100 14.5l119 17t100 14.5l40.5 6
l0.5 -4t2 -12.5t3.5 -21.5t3.5 -22t2 -13.5l0.5 -4.5l-41.5 -6t-103 -15l-123 -18t-103 -15l-41.5 -6v-9.5v-19v-9.5h-38v146zM778 932v0v0v0v0v0v19.5v39v19.5l-29 8.5t-71.5 20.5l-85 24t-71.5 20.5l-29 8.5v0v0v0v0l-29 -8.5t-71.5 -20.5l-85 -24t-71.5 -20.5l-29 -8.5
v-19.5v-39v-19.5v0v0v0v0v0h-20h-40h-20v0v0v0v0v0v20.5v47.5v47.5v20.5l37 12t91.5 29.5l109 35t91.5 29.5l37 12v0v0v0v0l37 -12t91.5 -29.5l109 -35t91.5 -29.5l37 -12v-20.5v-47.5v-47.5v-20.5v0v0v0v0v0h-20h-40h-20z" />
    <glyph glyph-name="atilde" unicode="&#xe3;" horiz-adv-x="984" 
d="M-40 558h80v-318q0 -3 15.5 -20t38.5 -40.5t47 -46.5t41 -38t20 -15v0v0v0v0h44.5h74h82h68.5h33v-39.5v-40.5v0v0v0v0v0h-39.5h-101h-131.5h-131.5h-101h-39.5v0v0v0v0v28v76v107v121.5v121.5v104zM-40 470v36v92.5v120.5v120.5v92.5v36v0v0v0v0h39.5h101h131.5h131.5
h101h39.5v0v0v0v0v0v-39.5v-40.5h-47h-116h-138h-116h-47v0v0v0v0v0v0v0v0v0v0v0v-42v-104.5v-125v-104.5v-42h-80zM1024 410h-80v318q0 3 -15.5 20t-38.5 40.5t-47 46.5t-41 38t-20 15v0v0v0v0h-44.5h-74h-82h-68.5h-33v40.5v39.5v0v0v0v0v0h39.5h101h131.5h131.5h101h39.5
v0v0v0v0v-28v-76v-107v-122v-121v-104zM1024 498v-36v-92.5v-120.5v-120.5v-92.5v-36v0v0v0v0h-39.5h-101h-131.5h-131.5h-101h-39.5v0v0v0v0v0v40.5v39.5h47h116h138h116h47v0v0v0v0v0v0v0v0v0v0v0v42v104.5v125v104.5v42h80zM1024 256h-80v88v63.5v78.5v0v0v0v0v76v43.5
v41v69.5h80v-460zM370 314v0v0v0v0v0v0v0q-6 0 -7 1t-1 7v21.5v21v21.5q0 6 1 7t7 1v0v0v0v0v0v0v0h37.5h86.5h86.5h37.5v0v0q6 0 7 -1t1 -7v-21.5v-21v-21.5q0 -6 -1 -7t-7 -1v0v0h-37.5h-86.5h-86.5h-37.5zM2 628h38v-7v-14v-7l40.5 6t100 14.5l119 17t100 14.5l40.5 6
l0.5 -4t2 -12.5t3.5 -21.5t3.5 -22t2 -13.5l0.5 -4.5l-41.5 -6t-103 -15l-123 -18t-103 -15l-41.5 -6v-9.5v-19v-9.5h-38v146zM650 912h-228v0h-302v26.5v65v77v65v26.5v0v0h29.5h73.5h88.5h75.5h33h16.5h40.5h48h40.5h16.5v0v0v0v0h282v0v0v-106.5v-72.5v-81h-32.5h-74.5
h-74.5h-32.5zM556 958h34h79h79h34v0v0v46v45.5v60.5v0v0h-118v0v0v-30v-32v0v0l-20 5t-49 12t-59 14t-50.5 12t-21.5 5h-43h-91h-89.5h-38.5v0v0v-21v-48v-48v-21h118v0v0v28v15v6v1l24 -5t59 -12.5l70 -15t59 -12.5z" />
    <glyph glyph-name="adieresis" unicode="&#xe4;" horiz-adv-x="984" 
d="M-40 558h80v-318q0 -3 15.5 -20t38.5 -40.5t47 -46.5t41 -38t20 -15v0v0v0v0h44.5h74h82h68.5h33v-39.5v-40.5v0v0v0v0v0h-39.5h-101h-131.5h-131.5h-101h-39.5v0v0v0v0v28v76v107v121.5v121.5v104zM-40 470v36v92.5v120.5v120.5v92.5v36v0v0v0v0h39.5h101h131.5h131.5
h101h39.5v0v0v0v0v0v-39.5v-40.5h-47h-116h-138h-116h-47v0v0v0v0v0v0v0v0v0v0v0v-42v-104.5v-125v-104.5v-42h-80zM1024 410h-80v318q0 3 -15.5 20t-38.5 40.5t-47 46.5t-41 38t-20 15v0v0v0v0h-44.5h-74h-82h-68.5h-33v40.5v39.5v0v0v0v0v0h39.5h101h131.5h131.5h101h39.5
v0v0v0v0v-28v-76v-107v-122v-121v-104zM1024 498v-36v-92.5v-120.5v-120.5v-92.5v-36v0v0v0v0h-39.5h-101h-131.5h-131.5h-101h-39.5v0v0v0v0v0v40.5v39.5h47h116h138h116h47v0v0v0v0v0v0v0v0v0v0v0v42v104.5v125v104.5v42h80zM1024 256h-80v88v63.5v78.5v0v0v0v0v76v43.5
v41v69.5h80v-460zM370 314v0v0v0v0v0v0v0q-6 0 -7 1t-1 7v21.5v21v21.5q0 6 1 7t7 1v0v0v0v0v0v0v0h37.5h86.5h86.5h37.5v0v0q6 0 7 -1t1 -7v-21.5v-21v-21.5q0 -6 -1 -7t-7 -1v0v0h-37.5h-86.5h-86.5h-37.5zM2 628h38v-7v-14v-7l40.5 6t100 14.5l119 17t100 14.5l40.5 6
l0.5 -4t2 -12.5t3.5 -21.5t3.5 -22t2 -13.5l0.5 -4.5l-41.5 -6t-103 -15l-123 -18t-103 -15l-41.5 -6v-9.5v-19v-9.5h-38v146zM452 926v41.5v46.5v37.5v40.5v0v0h-60h-60h-62.5h-63.5v0v0v-40.5v-37.5v-46.5v-41.5h-80v46.5v76v123.5v0v0h386v0v0v0v-128v-75v-43h-60z
M532 926h-60v43v75v128v0v0v0h386v0v0v-123.5v-76v-46.5h-80v41.5v46.5v37.5v40.5v0v0h-62.5h-63.5h-60h-60v0v0v-40.5v-37.5v-46.5v-41.5z" />
    <glyph glyph-name="aring" unicode="&#xe5;" horiz-adv-x="984" 
d="M-40 558h80v-318q0 -3 15.5 -20t38.5 -40.5t47 -46.5t41 -38t20 -15v0v0v0v0h44.5h74h82h68.5h33v-39.5v-40.5v0v0v0v0v0h-39.5h-101h-131.5h-131.5h-101h-39.5v0v0v0v0v28v76v107v121.5v121.5v104zM-40 470v36v92.5v120.5v120.5v92.5v36v0v0v0v0h39.5h101h131.5h131.5
h101h39.5v0v0v0v0v0v-39.5v-40.5h-47h-116h-138h-116h-47v0v0v0v0v0v0v0v0v0v0v0v-42v-104.5v-125v-104.5v-42h-80zM1024 410h-80v318q0 3 -15.5 20t-38.5 40.5t-47 46.5t-41 38t-20 15v0v0v0v0h-44.5h-74h-82h-68.5h-33v40.5v39.5v0v0v0v0v0h39.5h101h131.5h131.5h101h39.5
v0v0v0v0v-28v-76v-107v-122v-121v-104zM1024 498v-36v-92.5v-120.5v-120.5v-92.5v-36v0v0v0v0h-39.5h-101h-131.5h-131.5h-101h-39.5v0v0v0v0v0v40.5v39.5h47h116h138h116h47v0v0v0v0v0v0v0v0v0v0v0v42v104.5v125v104.5v42h80zM1024 256h-80v88v63.5v78.5v0v0v0v0v76v43.5
v41v69.5h80v-460zM370 314v0v0v0v0v0v0v0q-6 0 -7 1t-1 7v21.5v21v21.5q0 6 1 7t7 1v0v0v0v0v0v0v0h37.5h86.5h86.5h37.5v0v0q6 0 7 -1t1 -7v-21.5v-21v-21.5q0 -6 -1 -7t-7 -1v0v0h-37.5h-86.5h-86.5h-37.5zM2 628h38v-7v-14v-7l40.5 6t100 14.5l119 17t100 14.5l40.5 6
l0.5 -4t2 -12.5t3.5 -21.5t3.5 -22t2 -13.5l0.5 -4.5l-41.5 -6t-103 -15l-123 -18t-103 -15l-41.5 -6v-9.5v-19v-9.5h-38v146zM294 1076v0q0 72 53.5 126t144.5 54q92 0 145 -54t53 -126v0q0 -55 -24 -92.5t-68.5 -56.5t-105.5 -19t-105.5 19t-68.5 56.5t-24 92.5zM380 1072
q0 -54 30.5 -79t81.5 -25t81.5 25t30.5 79v0q0 45 -30.5 74.5t-81.5 29.5t-81.5 -29.5t-30.5 -74.5v0z" />
    <glyph glyph-name="ae" unicode="&#xe6;" horiz-adv-x="1484" 
d="M350 314v0v0v0v0v0v0v0q-6 0 -7 1t-1 7v21.5v21v21.5q0 6 1 7t7 1v0v0v0v0v0v0v0h37.5h86.5h86.5h37.5v0v0q6 0 7 -1t1 -7v-21.5v-21v-21.5q0 -6 -1 -7t-7 -1v0v0h-37.5h-86.5h-86.5h-37.5zM2 628h38v-7v-14v-7l40.5 6t100 14.5l119 17t100 14.5l40.5 6l0.5 -4t2 -12.5
t3.5 -21.5t3.5 -22t2 -13.5l0.5 -4.5l-41.5 -6t-103 -15l-123 -18t-103 -15l-41.5 -6v-9.5v-19v-9.5h-38v146zM1144 642v0v0v0v0v0v0v0q6 0 7 -1t1 -7v-21.5v-21v-21.5q0 -6 -1 -7t-7 -1v0v0v0v0v0v0v0h-37.5h-86.5h-86.5h-37.5v0v0q-6 0 -7 1t-1 7v21.5v21v21.5q0 6 1 7
t7 1v0v0h37.5h86.5h86.5h37.5zM1486 326h-38v7v14v7l-40.5 -6t-100 -14.5l-119 -17t-100 -14.5l-40.5 -6l-0.5 4t-2 12.5t-3.5 21.5t-3.5 22t-2 13.5l-0.5 4.5l41.5 6t103 15l123 18t103 15l41.5 6v9.5v19v9.5h38v-146zM850 968v-41v-39v0v0v0v0v0v0v0v0v0h-58.5h-150.5
h-195.5h-196h-151h-58.5v0v0v0v0v0v0v0v0v-4.5v-26.5v-72v-141v-234h-80v81v92.5v99v100v97v88.5v0v0h48h127.5h174.5h190h174.5h127.5h48v0v0v0v0v0v0v0v0zM1048 0v0v0v0v0v0v0v0v0v0h-64.5h-157.5h-211.5h-228h-208.5h-152.5h-57.5q-4 0 -5.5 0.5t-2 2.5t-0.5 7v215.5
v174.5v158h80v-318q0 -3 15.5 -20t38.5 -40.5t47 -46.5t41 -38t20 -15v0v0v0v0v0h46h121.5h165.5h180h165.5h121.5h46v0v0v0v0v0v0v0v0v0v-20v-40v-20zM634 0v42v38v0v0v0v0v0v0v0v0v0h58.5h151h196h195.5h150.5h58.5v0v0v0v0v0v0v0v0v4.5v26.5v72v141v234h80v-81v-92.5v-99
v-100v-96.5v-89v0v0h-48h-127.5h-174.5h-190h-174.5h-127.5h-48v0v0v0v0v0v0v0v0zM436 968v0v0v0v0v0v0v0v0v0h64.5h157.5h211.5h228h208.5h152.5h57.5q4 0 5.5 -0.5t2 -2.5t0.5 -7v-215.5v-174.5v-158h-80v318q0 3 -15.5 20t-38.5 40.5t-47 46.5t-41 38t-20 15v0v0v0v0v0
h-46h-121.5h-165.5h-180h-165.5h-121.5h-46v0v0v0v0v0v0v0v0v0v20v40v20z" />
    <glyph glyph-name="ccedilla" unicode="&#xe7;" horiz-adv-x="984" 
d="M-40 558h80v-318q0 -3 15.5 -20t38.5 -40.5t47 -46.5t41 -38t20 -15v0v0v0v0h44.5h74h82h68.5h33v-39.5v-40.5v0v0v0v0v0h-39.5h-101h-131.5h-131.5h-101h-39.5v0v0v0v0v28v76v107v121.5v121.5v104zM-40 410v104v121v122v107v76v28v0v0v0v0h39.5h101h131.5h131.5h101
h39.5v0v0v0v0v0v-39.5v-40.5h-33h-68.5h-82h-74h-44.5v0v0v0v0q-3 0 -20 -15t-41 -38t-47 -46.5t-38.5 -40.5t-15.5 -20v-318h-80zM-40 256v460h80v-69.5v-41v-43.5v-76v0v0v0v0v-78.5v-63.5v-88h-80zM558 518q0 4 0.5 5.5t2 2t5.5 0.5h41h102h122h102h41v0v0v0v0v0
q4 0 5.5 -0.5t2 -2t0.5 -5.5v-6.5v-16v-19v-16v-6.5q0 -6 -1 -7t-7 -1v0v0v0v0v0h-41h-102h-122h-102h-41q-4 0 -5.5 0.5t-2 2t-0.5 5.5v16v32v16zM1024 498v-36v-92.5v-120.5v-120.5v-92.5v-36v0v0v0v0h-39.5h-101h-131.5h-131.5h-101h-39.5v0v0v0v0v0v40.5v39.5h47h116
h138h116h47v0v0v0v0v0v0v0v0v0v0v0v42v104.5v125v104.5v42h80zM1024 470h-80v42v104.5v125v104.5v42v0v0v0v0v0v0v0v0v0v0v0h-47h-116h-138h-116h-47v40.5v39.5v0v0v0v0v0h39.5h101h131.5h131.5h101h39.5v0v0v0v0v-36v-92.5v-120.5v-120.5v-92.5v-36zM754 20l-32 -342v0v0v0
h-35.5h-91.5h-119h-119h-91.5h-35.5v0v0l140 342h88l-98 -262v0v0h28h69h82h69h28v0v0l34 262h84z" />
    <glyph glyph-name="egrave" unicode="&#xe8;" horiz-adv-x="984" 
d="M-40 410v104v121v122v107v76v28v0v0v0v0h39.5h101h131.5h131.5h101h39.5v0v0v0v0v0v-39.5v-40.5h-33h-68.5h-82h-74h-44.5v0v0v0v0q-3 0 -20 -15t-41 -38t-47 -46.5t-38.5 -40.5t-15.5 -20v-318h-80zM-40 714h80v-88v-63.5v-78.5v0v0v0v0v-76v-43.5v-41v-69.5h-80v460z
M-40 558h80v-318q0 -3 15.5 -20t38.5 -40.5t47 -46.5t41 -38t20 -15v0v0v0v0h44.5h74h82h68.5h33v-39.5v-40.5v0v0v0v0v0h-39.5h-101h-131.5h-131.5h-101h-39.5v0v0v0v0v28v76v107v121.5v121.5v104zM1024 410h-80v318q0 3 -15.5 20t-38.5 40.5t-47 46.5t-41 38t-20 15v0v0v0
v0h-44.5h-74h-82h-68.5h-33v40.5v39.5v0v0v0v0v0h39.5h101h131.5h131.5h101h39.5v0v0v0v0v-28v-76v-107v-122v-121v-104zM1024 498v-36v-92.5v-120.5v-120.5v-92.5v-36v0v0v0v0h-39.5h-101h-131.5h-131.5h-101h-39.5v0v0v0v0v0v40.5v39.5h47h116h138h116h47v0v0v0v0v0v0v0v0
v0v0v0v42v104.5v125v104.5v42h80zM620 642v0v0v0v0v0v0v0q6 0 7 -1t1 -7v-21.5v-21v-21.5q0 -6 -1 -7t-7 -1v0v0v0v0v0v0v0h-37.5h-86.5h-86.5h-37.5v0v0q-6 0 -7 1t-1 7v21.5v21v21.5q0 6 1 7t7 1v0v0h37.5h86.5h86.5h37.5zM982 326h-38v7v14v7l-40.5 -6t-100 -14.5
l-119 -17t-100 -14.5l-40.5 -6l-0.5 4t-2 12.5t-3.5 21.5t-3.5 22t-2 13.5l-0.5 4.5l41.5 6t103 15l123 18t103 15l41.5 6v9.5v19v9.5h38v-146zM858 928h-80v33.5v32.5v48v0v0l-41.5 4t-106.5 9.5t-138 12.5t-138 12.5t-106.5 9.5l-41.5 4v0v0v-68v-42.5v-29v-26.5h-80v20
v30.5v47v69.5v99v0v0l53 -6t136 -15.5t177 -19.5t177 -19.5t136 -15.5l53 -6v0v0v-92v-53.5v-26.5v-12z" />
    <glyph glyph-name="eacute" unicode="&#xe9;" horiz-adv-x="984" 
d="M-40 410v104v121v122v107v76v28v0v0v0v0h39.5h101h131.5h131.5h101h39.5v0v0v0v0v0v-39.5v-40.5h-33h-68.5h-82h-74h-44.5v0v0v0v0q-3 0 -20 -15t-41 -38t-47 -46.5t-38.5 -40.5t-15.5 -20v-318h-80zM-40 714h80v-88v-63.5v-78.5v0v0v0v0v-76v-43.5v-41v-69.5h-80v460z
M-40 558h80v-318q0 -3 15.5 -20t38.5 -40.5t47 -46.5t41 -38t20 -15v0v0v0v0h44.5h74h82h68.5h33v-39.5v-40.5v0v0v0v0v0h-39.5h-101h-131.5h-131.5h-101h-39.5v0v0v0v0v28v76v107v121.5v121.5v104zM1024 410h-80v318q0 3 -15.5 20t-38.5 40.5t-47 46.5t-41 38t-20 15v0v0v0
v0h-44.5h-74h-82h-68.5h-33v40.5v39.5v0v0v0v0v0h39.5h101h131.5h131.5h101h39.5v0v0v0v0v-28v-76v-107v-122v-121v-104zM1024 498v-36v-92.5v-120.5v-120.5v-92.5v-36v0v0v0v0h-39.5h-101h-131.5h-131.5h-101h-39.5v0v0v0v0v0v40.5v39.5h47h116h138h116h47v0v0v0v0v0v0v0v0
v0v0v0v42v104.5v125v104.5v42h80zM620 642v0v0v0v0v0v0v0q6 0 7 -1t1 -7v-21.5v-21v-21.5q0 -6 -1 -7t-7 -1v0v0v0v0v0v0v0h-37.5h-86.5h-86.5h-37.5v0v0q-6 0 -7 1t-1 7v21.5v21v21.5q0 6 1 7t7 1v0v0h37.5h86.5h86.5h37.5zM982 326h-38v7v14v7l-40.5 -6t-100 -14.5
l-119 -17t-100 -14.5l-40.5 -6l-0.5 4t-2 12.5t-3.5 21.5t-3.5 22t-2 13.5l-0.5 4.5l41.5 6t103 15l123 18t103 15l41.5 6v9.5v19v9.5h38v-146zM126 928v12v26.5v53.5v92v0v0l53 6t136 15.5t177 19.5t177 19.5t136 15.5l53 6v0v0v-99v-69.5v-47v-30.5v-20h-80v26.5v29v42.5
v68v0v0l-41.5 -4t-106.5 -9.5t-138 -12.5t-138 -12.5t-106.5 -9.5l-41.5 -4v0v0v-48v-32.5v-33.5h-80z" />
    <glyph glyph-name="ecircumflex" unicode="&#xea;" horiz-adv-x="984" 
d="M-40 410v104v121v122v107v76v28v0v0v0v0h39.5h101h131.5h131.5h101h39.5v0v0v0v0v0v-39.5v-40.5h-33h-68.5h-82h-74h-44.5v0v0v0v0q-3 0 -20 -15t-41 -38t-47 -46.5t-38.5 -40.5t-15.5 -20v-318h-80zM-40 714h80v-88v-63.5v-78.5v0v0v0v0v-76v-43.5v-41v-69.5h-80v460z
M-40 558h80v-318q0 -3 15.5 -20t38.5 -40.5t47 -46.5t41 -38t20 -15v0v0v0v0h44.5h74h82h68.5h33v-39.5v-40.5v0v0v0v0v0h-39.5h-101h-131.5h-131.5h-101h-39.5v0v0v0v0v28v76v107v121.5v121.5v104zM1024 410h-80v318q0 3 -15.5 20t-38.5 40.5t-47 46.5t-41 38t-20 15v0v0v0
v0h-44.5h-74h-82h-68.5h-33v40.5v39.5v0v0v0v0v0h39.5h101h131.5h131.5h101h39.5v0v0v0v0v-28v-76v-107v-122v-121v-104zM1024 498v-36v-92.5v-120.5v-120.5v-92.5v-36v0v0v0v0h-39.5h-101h-131.5h-131.5h-101h-39.5v0v0v0v0v0v40.5v39.5h47h116h138h116h47v0v0v0v0v0v0v0v0
v0v0v0v42v104.5v125v104.5v42h80zM620 642v0v0v0v0v0v0v0q6 0 7 -1t1 -7v-21.5v-21v-21.5q0 -6 -1 -7t-7 -1v0v0v0v0v0v0v0h-37.5h-86.5h-86.5h-37.5v0v0q-6 0 -7 1t-1 7v21.5v21v21.5q0 6 1 7t7 1v0v0h37.5h86.5h86.5h37.5zM982 326h-38v7v14v7l-40.5 -6t-100 -14.5
l-119 -17t-100 -14.5l-40.5 -6l-0.5 4t-2 12.5t-3.5 21.5t-3.5 22t-2 13.5l-0.5 4.5l41.5 6t103 15l123 18t103 15l41.5 6v9.5v19v9.5h38v-146zM778 932v0v0v0v0v0v19.5v39v19.5l-29 8.5t-71.5 20.5l-85 24t-71.5 20.5l-29 8.5v0v0v0v0l-29 -8.5t-71.5 -20.5l-85 -24
t-71.5 -20.5l-29 -8.5v-19.5v-39v-19.5v0v0v0v0v0h-20h-40h-20v0v0v0v0v0v20.5v47.5v47.5v20.5l37 12t91.5 29.5l109 35t91.5 29.5l37 12v0v0v0v0l37 -12t91.5 -29.5l109 -35t91.5 -29.5l37 -12v-20.5v-47.5v-47.5v-20.5v0v0v0v0v0h-20h-40h-20z" />
    <glyph glyph-name="edieresis" unicode="&#xeb;" horiz-adv-x="984" 
d="M-40 410v104v121v122v107v76v28v0v0v0v0h39.5h101h131.5h131.5h101h39.5v0v0v0v0v0v-39.5v-40.5h-33h-68.5h-82h-74h-44.5v0v0v0v0q-3 0 -20 -15t-41 -38t-47 -46.5t-38.5 -40.5t-15.5 -20v-318h-80zM-40 714h80v-88v-63.5v-78.5v0v0v0v0v-76v-43.5v-41v-69.5h-80v460z
M-40 558h80v-318q0 -3 15.5 -20t38.5 -40.5t47 -46.5t41 -38t20 -15v0v0v0v0h44.5h74h82h68.5h33v-39.5v-40.5v0v0v0v0v0h-39.5h-101h-131.5h-131.5h-101h-39.5v0v0v0v0v28v76v107v121.5v121.5v104zM1024 410h-80v318q0 3 -15.5 20t-38.5 40.5t-47 46.5t-41 38t-20 15v0v0v0
v0h-44.5h-74h-82h-68.5h-33v40.5v39.5v0v0v0v0v0h39.5h101h131.5h131.5h101h39.5v0v0v0v0v-28v-76v-107v-122v-121v-104zM1024 498v-36v-92.5v-120.5v-120.5v-92.5v-36v0v0v0v0h-39.5h-101h-131.5h-131.5h-101h-39.5v0v0v0v0v0v40.5v39.5h47h116h138h116h47v0v0v0v0v0v0v0v0
v0v0v0v42v104.5v125v104.5v42h80zM620 642v0v0v0v0v0v0v0q6 0 7 -1t1 -7v-21.5v-21v-21.5q0 -6 -1 -7t-7 -1v0v0v0v0v0v0v0h-37.5h-86.5h-86.5h-37.5v0v0q-6 0 -7 1t-1 7v21.5v21v21.5q0 6 1 7t7 1v0v0h37.5h86.5h86.5h37.5zM982 326h-38v7v14v7l-40.5 -6t-100 -14.5
l-119 -17t-100 -14.5l-40.5 -6l-0.5 4t-2 12.5t-3.5 21.5t-3.5 22t-2 13.5l-0.5 4.5l41.5 6t103 15l123 18t103 15l41.5 6v9.5v19v9.5h38v-146zM452 926v41.5v46.5v37.5v40.5v0v0h-60h-60h-62.5h-63.5v0v0v-40.5v-37.5v-46.5v-41.5h-80v46.5v76v123.5v0v0h386v0v0v0v-128
v-75v-43h-60zM532 926h-60v43v75v128v0v0v0h386v0v0v-123.5v-76v-46.5h-80v41.5v46.5v37.5v40.5v0v0h-62.5h-63.5h-60h-60v0v0v-40.5v-37.5v-46.5v-41.5z" />
    <glyph glyph-name="igrave" unicode="&#xec;" horiz-adv-x="544" 
d="M584 498v-89.5v-101v-106v-104.5v-97h-31.5h-78h-93h-78h-31.5v0v0v0v0q-7 15 -7 40t7 40h47h55.5h62.5h67v0v0v0v0v0v0v0v0v42v104.5v125v104.5v42h80zM-40 498h80v-42v-104.5v-125v-104.5v-42v0v0v0v0v0v0v0v0h67.5h62h55.5h47q8 -15 8 -40t-8 -40v0v0v0v0h-31.5h-78
h-93h-78h-31.5v97v104.5v106v101v89.5zM-40 716h80v-88v-63.5v-78.5v0v0v0v0v-76v-43.5v-41v-69.5h-80v460zM584 716v-460h-80v69.5v41v43.5v76v0v0v0v0v78.5v63.5v88h80zM584 470h-80v42v104.5v125v104.5v42v0v0v0v0v0v0v0v0h-67h-62.5h-55.5h-47q-7 15 -7 40t7 40v0v0v0v0
h31.5h78h93h78h31.5v-97v-104.5v-106v-101v-89.5zM-40 470v89.5v101v106v104.5v97h31.5h78h93h78h31.5v0v0v0v0q8 -15 8 -40t-8 -40h-47h-55.5h-62h-67.5v0v0v0v0v0v0v0v0v-42v-104.5v-125v-104.5v-42h-80zM524 928h-80v32v30v47v0v0l-34.5 5.5t-86 13l-103 15t-86 13
l-34.5 5.5v0v0v-67.5v-41v-27v-25.5h-80v26v43v74v118v0v0l36.5 -6t94 -15.5t121.5 -19.5t121.5 -19.5t94 -15.5l36.5 -6v0v0v-91v-51.5v-25v-11.5z" />
    <glyph glyph-name="iacute" unicode="&#xed;" horiz-adv-x="544" 
d="M584 498v-89.5v-101v-106v-104.5v-97h-31.5h-78h-93h-78h-31.5v0v0v0v0q-7 15 -7 40t7 40h47h55.5h62.5h67v0v0v0v0v0v0v0v0v42v104.5v125v104.5v42h80zM-40 498h80v-42v-104.5v-125v-104.5v-42v0v0v0v0v0v0v0v0h67.5h62h55.5h47q8 -15 8 -40t-8 -40v0v0v0v0h-31.5h-78
h-93h-78h-31.5v97v104.5v106v101v89.5zM-40 716h80v-88v-63.5v-78.5v0v0v0v0v-76v-43.5v-41v-69.5h-80v460zM584 716v-460h-80v69.5v41v43.5v76v0v0v0v0v78.5v63.5v88h80zM584 470h-80v42v104.5v125v104.5v42v0v0v0v0v0v0v0v0h-67h-62.5h-55.5h-47q-7 15 -7 40t7 40v0v0v0v0
h31.5h78h93h78h31.5v-97v-104.5v-106v-101v-89.5zM-40 470v89.5v101v106v104.5v97h31.5h78h93h78h31.5v0v0v0v0q8 -15 8 -40t-8 -40h-47h-55.5h-62h-67.5v0v0v0v0v0v0v0v0v-42v-104.5v-125v-104.5v-42h-80zM20 928v11.5v25v51.5v91v0v0l36.5 6t94 15.5t121.5 19.5
t121.5 19.5t94 15.5l36.5 6v0v0v-118v-74v-43v-26h-80v25.5v27v41v67.5v0v0l-34.5 -5.5t-86 -13l-103 -15t-86 -13l-34.5 -5.5v0v0v-47v-30v-32h-80z" />
    <glyph glyph-name="icircumflex" unicode="&#xee;" horiz-adv-x="544" 
d="M584 498v-89.5v-101v-106v-104.5v-97h-31.5h-78h-93h-78h-31.5v0v0v0v0q-7 15 -7 40t7 40h47h55.5h62.5h67v0v0v0v0v0v0v0v0v42v104.5v125v104.5v42h80zM-40 498h80v-42v-104.5v-125v-104.5v-42v0v0v0v0v0v0v0v0h67.5h62h55.5h47q8 -15 8 -40t-8 -40v0v0v0v0h-31.5h-78
h-93h-78h-31.5v97v104.5v106v101v89.5zM-40 716h80v-88v-63.5v-78.5v0v0v0v0v-76v-43.5v-41v-69.5h-80v460zM584 716v-460h-80v69.5v41v43.5v76v0v0v0v0v78.5v63.5v88h80zM584 470h-80v42v104.5v125v104.5v42v0v0v0v0v0v0v0v0h-67h-62.5h-55.5h-47q-7 15 -7 40t7 40v0v0v0v0
h31.5h78h93h78h31.5v-97v-104.5v-106v-101v-89.5zM-40 470v89.5v101v106v104.5v97h31.5h78h93h78h31.5v0v0v0v0q8 -15 8 -40t-8 -40h-47h-55.5h-62h-67.5v0v0v0v0v0v0v0v0v-42v-104.5v-125v-104.5v-42h-80zM504 932v0v0v0v0v20.5v41v20.5l-35 12t-81 27t-81 27l-35 12v0v0v0
v0l-35 -12t-81 -27t-81 -27l-35 -12v-20.5v-41v-20.5v0v0v0v0h-12h-28h-28h-12v0v0v0v0v0v0v0v0v20.5v47.5v47.5v20.5l31.5 12t78 29.5l93 35t78 29.5l31.5 12v0v0v0v0l31.5 -12t78 -29.5l93 -35t78 -29.5l31.5 -12v-20.5v-47.5v-47.5v-20.5v0v0v0v0v0v0v0v0h-12h-28h-28
h-12z" />
    <glyph glyph-name="idieresis" unicode="&#xef;" horiz-adv-x="544" 
d="M584 498v-89.5v-101v-106v-104.5v-97h-31.5h-78h-93h-78h-31.5v0v0v0v0q-7 15 -7 40t7 40h47h55.5h62.5h67v0v0v0v0v0v0v0v0v42v104.5v125v104.5v42h80zM-40 498h80v-42v-104.5v-125v-104.5v-42v0v0v0v0v0v0v0v0h67.5h62h55.5h47q8 -15 8 -40t-8 -40v0v0v0v0h-31.5h-78
h-93h-78h-31.5v97v104.5v106v101v89.5zM-40 716h80v-88v-63.5v-78.5v0v0v0v0v-76v-43.5v-41v-69.5h-80v460zM584 716v-460h-80v69.5v41v43.5v76v0v0v0v0v78.5v63.5v88h80zM584 470h-80v42v104.5v125v104.5v42v0v0v0v0v0v0v0v0h-67h-62.5h-55.5h-47q-7 15 -7 40t7 40v0v0v0v0
h31.5h78h93h78h31.5v-97v-104.5v-106v-101v-89.5zM-40 470v89.5v101v106v104.5v97h31.5h78h93h78h31.5v0v0v0v0q8 -15 8 -40t-8 -40h-47h-55.5h-62h-67.5v0v0v0v0v0v0v0v0v-42v-104.5v-125v-104.5v-42h-80zM233 926v41.5v46.5v37.5v40.5v0v0h-49.5h-50.5h-45.5h-46.5v0v0
v-40.5v-37.5v-46.5v-41.5h-80v46.5v76v123.5v0v0h332v0v0v0v-128v-75v-43h-60zM311 926h-60v43v75v128v0v0v0h332v0v0v-123.5v-76v-46.5h-80v41.5v46.5v37.5v40.5v0v0h-45.5h-46.5h-49.5h-50.5v0v0v-40.5v-37.5v-46.5v-41.5z" />
    <glyph glyph-name="eth" unicode="&#xf0;" 
d="M-40 716h80v-88v-63.5v-78.5v0v0v0v0v-76v-43.5v-41v-69.5h-80v460zM1100 716v-460h-80v69.5v41v43.5v76v0v0v0v0v78.5v63.5v88h80zM-40 558h80v-318q0 -3 15.5 -20t38.5 -40.5t47 -46.5t41 -38t20 -15v0v0v0h34.5h85.5h102h85.5h34.5v-39.5v-40.5v0v0v0v0v0h-52h-111.5
h-139h-136.5h-104.5h-40.5v0v0v0v0v40.5v104v134.5v134.5v104v40.5zM1100 592h-80q-16 84 -33.5 174t-34.5 174l68 10v0v0v96v0v0l-88 -12q-3 18 -5.5 33.5t-4.5 24.5v0v0v0h-70.5h-76h-60h-23.5h-29.5h-70h-74.5h-44v0v0l20 -90l-294 -34v0v0v-96v0v0l314 36l22 -106v0v0
h-58h-86h-90.5h-71.5h-28v0v0v0q-4 0 -21.5 -15t-41 -38t-46.5 -46.5t-38 -40.5t-15 -20v0v0v-68h-80v598v0v0v0v0v0v0h43h110h143h143h110h43v0v0v0v0v0v0v0v0v0v0h39.5h102h132.5h132.5h102h39.5v-580zM1100 558v-40.5v-104v-134.5v-134.5v-104v-40.5v0v0v0v0h-40.5
h-104.5h-136.5h-139h-111.5h-52v0v0v0v0v0v40.5v39.5h34.5h85.5h102h85.5h34.5v0v0v0q3 0 20 15t41 38t47 46.5t38.5 40.5t15.5 20v318h80zM490 316v37.5v86.5v86.5v37.5v0v0q0 6 1 7t7 1h21.5h21h21.5q6 0 7 -1t1 -7v0v0v-37.5v-86.5v-86.5v-37.5v0v0v0v0v0v0v0q0 -6 -1 -7
t-7 -1h-31.5h-32.5q-6 0 -7 1t-1 7v0v0v0v0v0v0v0z" />
    <glyph glyph-name="ntilde" unicode="&#xf1;" 
d="M1100 256h-80v88v63.5v78.5v0v0v0v0v76v43.5v41v69.5h80v-460zM-40 256v460h80v-69.5v-41v-43.5v-76v0v0v0v0v-78.5v-63.5v-88h-80zM1100 410h-80v318q0 3 -15.5 20t-38.5 40.5t-47 46.5t-41 38t-20 15v0v0v0h-34.5h-85.5h-102h-85.5h-34.5v40.5v39.5v0v0v0v0v0h52h111.5
h139h136.5h104.5h40.5v0v0v0v0v-40.5v-104v-134.5v-134.5v-104v-40.5zM1100 558v-40.5v-104v-134.5v-134.5v-104v-40.5v0v0v0v0h-42h-108.5h-141.5h-141.5h-108.5h-42v0v0v0v0v0v40.5v39.5h36.5h94h121.5h121.5h94h36.5v0v0v0v0v0v0v0v0v0v0v0v0v0v34.5v89v115.5v115.5v89
v34.5h80zM-40 558h80v-34.5v-89v-115.5v-115.5v-89v-34.5v0v0v0v0v0v0v0v0v0v0v0v0v0h36.5h94h121.5h121.5h94h36.5v-39.5v-40.5v0v0v0v0v0h-42h-108.5h-141.5h-141.5h-108.5h-42v0v0v0v0v40.5v104v134.5v134.5v104v40.5zM-40 410v40.5v104v134.5v134.5v104v40.5v0v0v0v0h42
h108.5h141.5h141.5h108.5h42v0v0v0v0v0v-39.5v-40.5h-36.5h-94h-121.5h-121.5h-94h-36.5v0v0v0v0v0v0v0v0v0v0v0v0v0v-34.5v-89v-115.5v-115.5v-89v-34.5h-80zM498 66h-4.5t-2.5 1t-1 2.5v4.5v0v0v0v0v0v31v79.5v103.5v103.5v79.5v31q0 4 0.5 5.5t2 2t5.5 0.5h16h32h16
q4 0 5.5 -0.5t2 -2t0.5 -5.5v-31v-79.5v-103.5v-103.5v-79.5v-31v0v0v0v0v0v-4.5t-1 -2.5t-2.5 -1h-4.5h-16h-32h-16zM688 912h-228v0h-302v26.5v65v77v65v26.5v0v0h29.5h73.5h88.5h75.5h33h16.5h40.5h48h40.5h16.5v0v0v0v0h282v0v0v-106.5v-72.5v-81h-32.5h-74.5h-74.5
h-32.5zM594 958h34h79h79h34v0v0v46v45.5v60.5v0v0h-118v0v0v-30v-32v0v0l-20 5t-49 12t-59 14t-50.5 12t-21.5 5h-43h-91h-89.5h-38.5v0v0v-21v-48v-48v-21h118v0v0v28v15v6v1l24 -5t59 -12.5l70 -15t59 -12.5z" />
    <glyph glyph-name="ograve" unicode="&#xf2;" 
d="M1100 256h-80v88v63.5v78.5v0v0v0v0v76v43.5v41v69.5h80v-460zM1100 558v-40.5v-104v-134.5v-134.5v-104v-40.5v0v0v0v0h-40.5h-104.5h-136.5h-139h-111.5h-52v0v0v0v0v0v40.5v39.5h34.5h85.5h102h85.5h34.5v0v0v0q3 0 20 15t41 38t47 46.5t38.5 40.5t15.5 20v318h80z
M1100 410h-80v318q0 3 -15.5 20t-38.5 40.5t-47 46.5t-41 38t-20 15v0v0v0h-34.5h-85.5h-102h-85.5h-34.5v40.5v39.5v0v0v0v0v0h52h111.5h139h136.5h104.5h40.5v0v0v0v0v-40.5v-104v-134.5v-134.5v-104v-40.5zM490 362v37.5v86.5v86.5v37.5v0v0q0 6 1 7t7 1h21.5h21h21.5
q6 0 7 -1t1 -7v0v0v-37.5v-86.5v-86.5v-37.5v0v0v0v0v0v0v0q0 -6 -1 -7t-7 -1h-31.5h-32.5q-6 0 -7 1t-1 7v0v0v0v0v0v0v0zM-40 256v460h80v-69.5v-41v-43.5v-76v0v0v0v0v-78.5v-63.5v-88h-80zM-40 558h80v-318q0 -3 15.5 -20t38.5 -40.5t47 -46.5t41 -38t20 -15v0v0v0h34.5
h85.5h102h85.5h34.5v-39.5v-40.5v0v0v0v0v0h-52h-111.5h-139h-136.5h-104.5h-40.5v0v0v0v0v40.5v104v134.5v134.5v104v40.5zM-40 410v40.5v104v134.5v134.5v104v40.5v0v0v0v0h40.5h104.5h136.5h139h111.5h52v0v0v0v0v0v-39.5v-40.5h-34.5h-85.5h-102h-85.5h-34.5v0v0v0
q-3 0 -20 -15t-41 -38t-47 -46.5t-38.5 -40.5t-15.5 -20v-318h-80zM896 928h-80v33.5v32.5v48v0v0l-41.5 4t-106.5 9.5t-138 12.5t-138 12.5t-106.5 9.5l-41.5 4v0v0v-68v-42.5v-29v-26.5h-80v20v30.5v47v69.5v99v0v0l53 -6t136 -15.5t177 -19.5t177 -19.5t136 -15.5l53 -6
v0v0v-92v-53.5v-26.5v-12z" />
    <glyph glyph-name="oacute" unicode="&#xf3;" 
d="M1100 256h-80v88v63.5v78.5v0v0v0v0v76v43.5v41v69.5h80v-460zM1100 558v-40.5v-104v-134.5v-134.5v-104v-40.5v0v0v0v0h-40.5h-104.5h-136.5h-139h-111.5h-52v0v0v0v0v0v40.5v39.5h34.5h85.5h102h85.5h34.5v0v0v0q3 0 20 15t41 38t47 46.5t38.5 40.5t15.5 20v318h80z
M1100 410h-80v318q0 3 -15.5 20t-38.5 40.5t-47 46.5t-41 38t-20 15v0v0v0h-34.5h-85.5h-102h-85.5h-34.5v40.5v39.5v0v0v0v0v0h52h111.5h139h136.5h104.5h40.5v0v0v0v0v-40.5v-104v-134.5v-134.5v-104v-40.5zM490 362v37.5v86.5v86.5v37.5v0v0q0 6 1 7t7 1h21.5h21h21.5
q6 0 7 -1t1 -7v0v0v-37.5v-86.5v-86.5v-37.5v0v0v0v0v0v0v0q0 -6 -1 -7t-7 -1h-31.5h-32.5q-6 0 -7 1t-1 7v0v0v0v0v0v0v0zM-40 256v460h80v-69.5v-41v-43.5v-76v0v0v0v0v-78.5v-63.5v-88h-80zM-40 558h80v-318q0 -3 15.5 -20t38.5 -40.5t47 -46.5t41 -38t20 -15v0v0v0h34.5
h85.5h102h85.5h34.5v-39.5v-40.5v0v0v0v0v0h-52h-111.5h-139h-136.5h-104.5h-40.5v0v0v0v0v40.5v104v134.5v134.5v104v40.5zM-40 410v40.5v104v134.5v134.5v104v40.5v0v0v0v0h40.5h104.5h136.5h139h111.5h52v0v0v0v0v0v-39.5v-40.5h-34.5h-85.5h-102h-85.5h-34.5v0v0v0
q-3 0 -20 -15t-41 -38t-47 -46.5t-38.5 -40.5t-15.5 -20v-318h-80zM164 928v12v26.5v53.5v92v0v0l53 6t136 15.5t177 19.5t177 19.5t136 15.5l53 6v0v0v-99v-69.5v-47v-30.5v-20h-80v26.5v29v42.5v68v0v0l-41.5 -4t-106.5 -9.5t-138 -12.5t-138 -12.5t-106.5 -9.5l-41.5 -4
v0v0v-48v-32.5v-33.5h-80z" />
    <glyph glyph-name="ocircumflex" unicode="&#xf4;" 
d="M1100 256h-80v88v63.5v78.5v0v0v0v0v76v43.5v41v69.5h80v-460zM1100 558v-40.5v-104v-134.5v-134.5v-104v-40.5v0v0v0v0h-40.5h-104.5h-136.5h-139h-111.5h-52v0v0v0v0v0v40.5v39.5h34.5h85.5h102h85.5h34.5v0v0v0q3 0 20 15t41 38t47 46.5t38.5 40.5t15.5 20v318h80z
M1100 410h-80v318q0 3 -15.5 20t-38.5 40.5t-47 46.5t-41 38t-20 15v0v0v0h-34.5h-85.5h-102h-85.5h-34.5v40.5v39.5v0v0v0v0v0h52h111.5h139h136.5h104.5h40.5v0v0v0v0v-40.5v-104v-134.5v-134.5v-104v-40.5zM490 362v37.5v86.5v86.5v37.5v0v0q0 6 1 7t7 1h21.5h21h21.5
q6 0 7 -1t1 -7v0v0v-37.5v-86.5v-86.5v-37.5v0v0v0v0v0v0v0q0 -6 -1 -7t-7 -1h-31.5h-32.5q-6 0 -7 1t-1 7v0v0v0v0v0v0v0zM-40 256v460h80v-69.5v-41v-43.5v-76v0v0v0v0v-78.5v-63.5v-88h-80zM-40 558h80v-318q0 -3 15.5 -20t38.5 -40.5t47 -46.5t41 -38t20 -15v0v0v0h34.5
h85.5h102h85.5h34.5v-39.5v-40.5v0v0v0v0v0h-52h-111.5h-139h-136.5h-104.5h-40.5v0v0v0v0v40.5v104v134.5v134.5v104v40.5zM-40 410v40.5v104v134.5v134.5v104v40.5v0v0v0v0h40.5h104.5h136.5h139h111.5h52v0v0v0v0v0v-39.5v-40.5h-34.5h-85.5h-102h-85.5h-34.5v0v0v0
q-3 0 -20 -15t-41 -38t-47 -46.5t-38.5 -40.5t-15.5 -20v-318h-80zM816 932v0v0v0v0v0v19.5v39v19.5l-29 8.5t-71.5 20.5l-85 24t-71.5 20.5l-29 8.5v0v0v0v0l-29 -8.5t-71.5 -20.5l-85 -24t-71.5 -20.5l-29 -8.5v-19.5v-39v-19.5v0v0v0v0v0h-20h-40h-20v0v0v0v0v0v20.5
v47.5v47.5v20.5l37 12t91.5 29.5l109 35t91.5 29.5l37 12v0v0v0v0l37 -12t91.5 -29.5l109 -35t91.5 -29.5l37 -12v-20.5v-47.5v-47.5v-20.5v0v0v0v0v0h-20h-40h-20z" />
    <glyph glyph-name="otilde" unicode="&#xf5;" 
d="M1100 256h-80v88v63.5v78.5v0v0v0v0v76v43.5v41v69.5h80v-460zM1100 558v-40.5v-104v-134.5v-134.5v-104v-40.5v0v0v0v0h-40.5h-104.5h-136.5h-139h-111.5h-52v0v0v0v0v0v40.5v39.5h34.5h85.5h102h85.5h34.5v0v0v0q3 0 20 15t41 38t47 46.5t38.5 40.5t15.5 20v318h80z
M1100 410h-80v318q0 3 -15.5 20t-38.5 40.5t-47 46.5t-41 38t-20 15v0v0v0h-34.5h-85.5h-102h-85.5h-34.5v40.5v39.5v0v0v0v0v0h52h111.5h139h136.5h104.5h40.5v0v0v0v0v-40.5v-104v-134.5v-134.5v-104v-40.5zM490 362v37.5v86.5v86.5v37.5v0v0q0 6 1 7t7 1h21.5h21h21.5
q6 0 7 -1t1 -7v0v0v-37.5v-86.5v-86.5v-37.5v0v0v0v0v0v0v0q0 -6 -1 -7t-7 -1h-31.5h-32.5q-6 0 -7 1t-1 7v0v0v0v0v0v0v0zM-40 256v460h80v-69.5v-41v-43.5v-76v0v0v0v0v-78.5v-63.5v-88h-80zM-40 558h80v-318q0 -3 15.5 -20t38.5 -40.5t47 -46.5t41 -38t20 -15v0v0v0h34.5
h85.5h102h85.5h34.5v-39.5v-40.5v0v0v0v0v0h-52h-111.5h-139h-136.5h-104.5h-40.5v0v0v0v0v40.5v104v134.5v134.5v104v40.5zM-40 410v40.5v104v134.5v134.5v104v40.5v0v0v0v0h40.5h104.5h136.5h139h111.5h52v0v0v0v0v0v-39.5v-40.5h-34.5h-85.5h-102h-85.5h-34.5v0v0v0
q-3 0 -20 -15t-41 -38t-47 -46.5t-38.5 -40.5t-15.5 -20v-318h-80zM688 912h-228v0h-302v26.5v65v77v65v26.5v0v0h29.5h73.5h88.5h75.5h33h16.5h40.5h48h40.5h16.5v0v0v0v0h282v0v0v-106.5v-72.5v-81h-32.5h-74.5h-74.5h-32.5zM594 958h34h79h79h34v0v0v46v45.5v60.5v0v0
h-118v0v0v-30v-32v0v0l-20 5t-49 12t-59 14t-50.5 12t-21.5 5h-43h-91h-89.5h-38.5v0v0v-21v-48v-48v-21h118v0v0v28v15v6v1l24 -5t59 -12.5l70 -15t59 -12.5z" />
    <glyph glyph-name="odieresis" unicode="&#xf6;" 
d="M1100 256h-80v88v63.5v78.5v0v0v0v0v76v43.5v41v69.5h80v-460zM1100 558v-40.5v-104v-134.5v-134.5v-104v-40.5v0v0v0v0h-40.5h-104.5h-136.5h-139h-111.5h-52v0v0v0v0v0v40.5v39.5h34.5h85.5h102h85.5h34.5v0v0v0q3 0 20 15t41 38t47 46.5t38.5 40.5t15.5 20v318h80z
M1100 410h-80v318q0 3 -15.5 20t-38.5 40.5t-47 46.5t-41 38t-20 15v0v0v0h-34.5h-85.5h-102h-85.5h-34.5v40.5v39.5v0v0v0v0v0h52h111.5h139h136.5h104.5h40.5v0v0v0v0v-40.5v-104v-134.5v-134.5v-104v-40.5zM490 362v37.5v86.5v86.5v37.5v0v0q0 6 1 7t7 1h21.5h21h21.5
q6 0 7 -1t1 -7v0v0v-37.5v-86.5v-86.5v-37.5v0v0v0v0v0v0v0q0 -6 -1 -7t-7 -1h-31.5h-32.5q-6 0 -7 1t-1 7v0v0v0v0v0v0v0zM-40 256v460h80v-69.5v-41v-43.5v-76v0v0v0v0v-78.5v-63.5v-88h-80zM-40 558h80v-318q0 -3 15.5 -20t38.5 -40.5t47 -46.5t41 -38t20 -15v0v0v0h34.5
h85.5h102h85.5h34.5v-39.5v-40.5v0v0v0v0v0h-52h-111.5h-139h-136.5h-104.5h-40.5v0v0v0v0v40.5v104v134.5v134.5v104v40.5zM-40 410v40.5v104v134.5v134.5v104v40.5v0v0v0v0h40.5h104.5h136.5h139h111.5h52v0v0v0v0v0v-39.5v-40.5h-34.5h-85.5h-102h-85.5h-34.5v0v0v0
q-3 0 -20 -15t-41 -38t-47 -46.5t-38.5 -40.5t-15.5 -20v-318h-80zM490 926v41.5v46.5v37.5v40.5v0v0h-60h-60h-62.5h-63.5v0v0v-40.5v-37.5v-46.5v-41.5h-80v46.5v76v123.5v0v0h386v0v0v0v-128v-75v-43h-60zM570 926h-60v43v75v128v0v0v0h386v0v0v-123.5v-76v-46.5h-80
v41.5v46.5v37.5v40.5v0v0h-62.5h-63.5h-60h-60v0v0v-40.5v-37.5v-46.5v-41.5z" />
    <glyph glyph-name="divide" unicode="&#xf7;" horiz-adv-x="1018" 
d="M190 687v0v0v-226v0v0h640v0v0v226v0v0h-640zM638 817v19v30.5v44.5h-37.5h-88.5v0h-88.5h-39.5v-41.5v-33.5v-19v-14v-23.5v-28.5h10.5h28.5h41h48v0h88.5h37.5v31v21.5v13.5zM638 331v13.5v21.5v31h-10h-27.5h-40h-48.5v0h-88.5h-39.5v-28.5v-23.5v-14v-20v-33v-41
h39.5h88.5v0h88.5h37.5v44.5v30.5v19zM-40 -2v0v0v0v0v0v0v0v0v63.5v168.5v230v250v230v168.5v63.5v0v0v0v0v0v0v0v0h110.5h123.5h121h104.5h73.5h27v0v0v0v0v0v0h26h70h100h116.5h119h106.5v0v0v0v0v0v0v0v0v-63.5v-168.5v-230v-250v-230v-168.5v-63.5v0v0v0v0v0v0v0v0
h-106h-118.5h-116.5h-100.5h-70.5h-26v0v0v0v0v0v0h-27h-73h-103.5h-120.5h-124h-112z" />
    <glyph glyph-name="oslash" unicode="&#xf8;" 
d="M1100 256h-80v88v63.5v78.5v0v0v0v0v76v43.5v41v69.5h80v-460zM1100 558v-40.5v-104v-134.5v-134.5v-104v-40.5v0v0v0v0h-40.5h-104.5h-136.5h-139h-111.5h-52v0v0v0v0v0v40.5v39.5h34.5h85.5h102h85.5h34.5v0v0v0q3 0 20 15t41 38t47 46.5t38.5 40.5t15.5 20v318h80z
M1100 410h-80v298q0 3 -13 15.5t-32 29.5t-38 33t-32 27l-13 11v0v0v0l9 14t21 33t21 33l9 14v0v0h-36.5h-75.5h-79h-27v0v0l-6 -7.5l-12 -15l-6 -7.5h-41.5h-42.5h-40h-34h-6.5h-12h-17.5v20v40v20v0v0v0h47.5h110h140h139h106.5h41v0v0v0v0v0v0v0v0v0v0v-40.5v-104v-134.5
v-134.5v-104v-40.5zM490 362v37.5v86.5v86.5v37.5v0v0q0 6 1 7t7 1h21.5h21h21.5q6 0 7 -1t1 -7v0v0v-37.5v-86.5v-86.5v-37.5v0v0v0v0v0v0v0q0 -6 -1 -7t-7 -1h-31.5h-32.5q-6 0 -7 1t-1 7v0v0v0v0v0v0v0zM-40 256v460h80v-69.5v-41v-43.5v-76v0v0v0v0v-78.5v-63.5v-88h-80
zM-40 558h80v-298q0 -3 13 -15.5t32 -29.5t38 -33t32 -27l13 -11v0v0v0l-9 -14t-21 -33t-21 -33l-9 -14v0v0h36.5h75.5h79.5h26.5v0v0l6 7.5l12 15l6 7.5h41.5h42.5h40h34h6.5h12h17.5v-20v-40v-20v0v0v0h-47h-110.5h-140h-139h-106.5h-41v0v0v0v0v0v0v0v0v0v0v40.5v104
v134.5v134.5v104v40.5zM-40 410v40.5v104v134.5v134.5v104v40.5v0v0v0v0h40.5h104.5h136.5h139h111.5h52v0v0v0v0v0v-39.5v-40.5h-34.5h-85.5h-102h-85.5h-34.5v0v0v0q-3 0 -20 -15t-41 -38t-47 -46.5t-38.5 -40.5t-15.5 -20v-318h-80z" />
    <glyph glyph-name="ugrave" unicode="&#xf9;" 
d="M-40 714h80v-88v-63.5v-78.5v0v0v0v0v-76v-43.5v-41v-69.5h-80v460zM1100 714v-460h-80v69.5v41v43.5v76v0v0v0v0v78.5v63.5v88h80zM-40 558h80v-318q0 -3 15.5 -20t38.5 -40.5t47 -46.5t41 -38t20 -15v0v0v0h34.5h85.5h102h85.5h34.5v-39.5v-40.5v0v0v0v0v0h-52h-111.5
h-139h-136.5h-104.5h-40.5v0v0v0v0v40.5v104v134.5v134.5v104v40.5zM-40 410v40.5v104v134.5v134.5v104v40.5v0v0v0v0h42h108.5h141.5h141.5h108.5h42v0v0v0v0v0v-39.5v-40.5h-36.5h-94h-121.5h-121.5h-94h-36.5v0v0v0v0v0v0v0v0v0v0v0v0v0v-34.5v-89v-115.5v-115.5v-89
v-34.5h-80zM1100 410h-80v34.5v89v115.5v115.5v89v34.5v0v0v0v0v0v0v0v0v0v0v0v0v0h-36.5h-94h-121.5h-121.5h-94h-36.5v40.5v39.5v0v0v0v0v0h42h108.5h141.5h141.5h108.5h42v0v0v0v0v-40.5v-104v-134.5v-134.5v-104v-40.5zM1100 558v-40.5v-104v-134.5v-134.5v-104v-40.5v0
v0v0v0h-42h-108.5h-141.5h-141.5h-108.5h-42v0v0v0v0v0v40.5v39.5h36.5h94h121.5h121.5h94h36.5v0v0v0v0v0v0v0v0v0v0v0v0v0v34.5v89v115.5v115.5v89v34.5h80zM498 892h16h32h16h4.5t2.5 -1t1 -2.5v-4.5v0v0v0v0v0v-31v-79.5v-103.5v-103.5v-79.5v-31q0 -4 -0.5 -5.5t-2 -2
t-5.5 -0.5h-16h-32h-16q-4 0 -5.5 0.5t-2 2t-0.5 5.5v31v79.5v103.5v103.5v79.5v31v0v0v0v0v0v4.5t1 2.5t2.5 1h4.5zM896 928h-80v33.5v32.5v48v0v0l-41.5 4t-106.5 9.5t-138 12.5t-138 12.5t-106.5 9.5l-41.5 4v0v0v-68v-42.5v-29v-26.5h-80v20v30.5v47v69.5v99v0v0l53 -6
t136 -15.5t177 -19.5t177 -19.5t136 -15.5l53 -6v0v0v-92v-53.5v-26.5v-12z" />
    <glyph glyph-name="uacute" unicode="&#xfa;" 
d="M-40 714h80v-88v-63.5v-78.5v0v0v0v0v-76v-43.5v-41v-69.5h-80v460zM1100 714v-460h-80v69.5v41v43.5v76v0v0v0v0v78.5v63.5v88h80zM-40 558h80v-318q0 -3 15.5 -20t38.5 -40.5t47 -46.5t41 -38t20 -15v0v0v0h34.5h85.5h102h85.5h34.5v-39.5v-40.5v0v0v0v0v0h-52h-111.5
h-139h-136.5h-104.5h-40.5v0v0v0v0v40.5v104v134.5v134.5v104v40.5zM-40 410v40.5v104v134.5v134.5v104v40.5v0v0v0v0h42h108.5h141.5h141.5h108.5h42v0v0v0v0v0v-39.5v-40.5h-36.5h-94h-121.5h-121.5h-94h-36.5v0v0v0v0v0v0v0v0v0v0v0v0v0v-34.5v-89v-115.5v-115.5v-89
v-34.5h-80zM1100 410h-80v34.5v89v115.5v115.5v89v34.5v0v0v0v0v0v0v0v0v0v0v0v0v0h-36.5h-94h-121.5h-121.5h-94h-36.5v40.5v39.5v0v0v0v0v0h42h108.5h141.5h141.5h108.5h42v0v0v0v0v-40.5v-104v-134.5v-134.5v-104v-40.5zM1100 558v-40.5v-104v-134.5v-134.5v-104v-40.5v0
v0v0v0h-42h-108.5h-141.5h-141.5h-108.5h-42v0v0v0v0v0v40.5v39.5h36.5h94h121.5h121.5h94h36.5v0v0v0v0v0v0v0v0v0v0v0v0v0v34.5v89v115.5v115.5v89v34.5h80zM498 892h16h32h16h4.5t2.5 -1t1 -2.5v-4.5v0v0v0v0v0v-31v-79.5v-103.5v-103.5v-79.5v-31q0 -4 -0.5 -5.5t-2 -2
t-5.5 -0.5h-16h-32h-16q-4 0 -5.5 0.5t-2 2t-0.5 5.5v31v79.5v103.5v103.5v79.5v31v0v0v0v0v0v4.5t1 2.5t2.5 1h4.5zM164 928v12v26.5v53.5v92v0v0l53 6t136 15.5t177 19.5t177 19.5t136 15.5l53 6v0v0v-99v-69.5v-47v-30.5v-20h-80v26.5v29v42.5v68v0v0l-41.5 -4
t-106.5 -9.5t-138 -12.5t-138 -12.5t-106.5 -9.5l-41.5 -4v0v0v-48v-32.5v-33.5h-80z" />
    </font>
</defs>
</svg>
